<mxfile host="app.diagrams.net" modified="2022-01-27T02:54:47.411Z" agent="5.0 (Macintosh; Intel Mac OS X 10_15_7) AppleWebKit/537.36 (KHTML, like Gecko) Chrome/97.0.4692.99 Safari/537.36" etag="d1snlAhjFGlf7jH-TsIK" version="16.4.7" type="github">
  <diagram id="aE2iUcvTd-GAZIzFrjn4" name="Page-1">
    <mxGraphModel dx="860" dy="506" grid="1" gridSize="10" guides="1" tooltips="1" connect="1" arrows="1" fold="1" page="1" pageScale="1" pageWidth="827" pageHeight="1169" math="0" shadow="0">
      <root>
        <mxCell id="0" />
        <mxCell id="1" parent="0" />
        <mxCell id="u-FWoVEfWogfuSIkOhqo-108" value="" style="edgeStyle=orthogonalEdgeStyle;rounded=0;orthogonalLoop=1;jettySize=auto;html=1;fontFamily=Times New Roman;fontSize=15;fontColor=#000000;entryX=0.25;entryY=0;entryDx=0;entryDy=0;" parent="1" source="u-FWoVEfWogfuSIkOhqo-32" target="u-FWoVEfWogfuSIkOhqo-98" edge="1">
          <mxGeometry relative="1" as="geometry" />
        </mxCell>
        <mxCell id="u-FWoVEfWogfuSIkOhqo-32" value="NEW SITE INSPECTION" style="dashed=0;align=center;fontSize=15;shape=rect;fillColor=#F2F2F2;strokeColor=none;fontStyle=1;shadow=1;fontColor=#000000;html=0;gradientColor=none;rounded=0;fontFamily=Times New Roman;" parent="1" vertex="1">
          <mxGeometry x="94" y="80" width="180" height="90" as="geometry" />
        </mxCell>
        <mxCell id="u-FWoVEfWogfuSIkOhqo-36" value="INSPECTION ACTION LIST" style="dashed=0;align=center;fontSize=15;shape=rect;fillColor=#e0e0e0;strokeColor=none;fontStyle=1;shadow=1;fontColor=#000000;html=0;fontFamily=Times New Roman;whiteSpace=wrap;" parent="1" vertex="1">
          <mxGeometry x="469" y="80" width="176" height="90" as="geometry" />
        </mxCell>
        <mxCell id="u-FWoVEfWogfuSIkOhqo-37" value="SITE INSPECTION LIST" style="dashed=0;align=center;fontSize=15;shape=rect;fillColor=#e0e0e0;strokeColor=none;fontStyle=1;shadow=1;fontColor=#000000;html=0;fontFamily=Times New Roman;" parent="1" vertex="1">
          <mxGeometry x="276" y="80" width="190" height="90" as="geometry" />
        </mxCell>
        <mxCell id="u-FWoVEfWogfuSIkOhqo-60" value="" style="dashed=0;align=center;fontSize=12;shape=rect;fillColor=#ffffff;strokeColor=#cccccc;rounded=0;fontFamily=Times New Roman;fontColor=#000000;html=0;" parent="1" vertex="1">
          <mxGeometry x="698" y="80" width="100" height="90" as="geometry" />
        </mxCell>
        <mxCell id="u-FWoVEfWogfuSIkOhqo-62" value="" style="dashed=0;html=1;shape=mxgraph.gmdl.triangle;fillColor=#cccccc;strokeColor=none;rounded=0;fontFamily=Times New Roman;fontSize=15;fontColor=#000000;" parent="u-FWoVEfWogfuSIkOhqo-60" vertex="1">
          <mxGeometry x="1" y="0.5" width="10" height="5" relative="1" as="geometry">
            <mxPoint x="-25" y="-2.5" as="offset" />
          </mxGeometry>
        </mxCell>
        <mxCell id="u-FWoVEfWogfuSIkOhqo-46" value="" style="shape=ellipse;dashed=0;strokeColor=none;shadow=1;fontSize=13;align=center;verticalAlign=top;labelPosition=center;verticalLabelPosition=bottom;html=1;aspect=fixed;rounded=0;fontFamily=Times New Roman;fontColor=#000000;fillColor=none;gradientColor=none;" parent="u-FWoVEfWogfuSIkOhqo-60" vertex="1">
          <mxGeometry x="1.25" y="4.25" width="81.5" height="81.5" as="geometry" />
        </mxCell>
        <mxCell id="u-FWoVEfWogfuSIkOhqo-47" value="" style="dashed=0;html=1;shape=mxgraph.gmdl.chat;strokeColor=#737373;fillColor=#737373;shadow=0;sketch=0;rounded=0;fontFamily=Times New Roman;fontSize=15;fontColor=#000000;" parent="u-FWoVEfWogfuSIkOhqo-46" vertex="1">
          <mxGeometry x="26.196428571428573" y="26.196428571428573" width="29.107142857142858" height="29.107142857142858" as="geometry" />
        </mxCell>
        <mxCell id="u-FWoVEfWogfuSIkOhqo-89" value="&lt;u&gt;Home&lt;/u&gt;" style="html=1;strokeColor=none;fillColor=#0079D6;labelPosition=center;verticalLabelPosition=middle;verticalAlign=top;align=center;fontSize=12;outlineConnect=0;spacingTop=-6;fontColor=#FFFFFF;sketch=0;shape=mxgraph.sitemap.home;rounded=0;fontFamily=Times New Roman;" parent="1" vertex="1">
          <mxGeometry x="20" y="110" width="50" height="35" as="geometry" />
        </mxCell>
        <mxCell id="RNrIEYivnAnbzNg7K0AD-7" style="edgeStyle=orthogonalEdgeStyle;rounded=0;orthogonalLoop=1;jettySize=auto;html=1;entryX=0.453;entryY=-0.008;entryDx=0;entryDy=0;entryPerimeter=0;" parent="1" source="u-FWoVEfWogfuSIkOhqo-98" target="RNrIEYivnAnbzNg7K0AD-6" edge="1">
          <mxGeometry relative="1" as="geometry" />
        </mxCell>
        <mxCell id="u-FWoVEfWogfuSIkOhqo-98" value="" style="rounded=0;whiteSpace=wrap;html=1;labelBackgroundColor=#CCCCCC;fontFamily=Times New Roman;fontSize=15;fontColor=#000000;fillColor=#FFFFFF;gradientColor=none;" parent="1" vertex="1">
          <mxGeometry x="110" y="200" width="550" height="210" as="geometry" />
        </mxCell>
        <mxCell id="u-FWoVEfWogfuSIkOhqo-102" value="" style="rounded=0;whiteSpace=wrap;html=1;labelBackgroundColor=#CCCCCC;fontFamily=Times New Roman;fontSize=15;fontColor=#000000;fillColor=#FFFFFF;gradientColor=none;" parent="1" vertex="1">
          <mxGeometry x="466" y="220" width="170" height="30" as="geometry" />
        </mxCell>
        <mxCell id="u-FWoVEfWogfuSIkOhqo-103" value="" style="rounded=0;whiteSpace=wrap;html=1;labelBackgroundColor=#CCCCCC;fontFamily=Times New Roman;fontSize=15;fontColor=#000000;fillColor=#FFFFFF;gradientColor=none;" parent="1" vertex="1">
          <mxGeometry x="466" y="280" width="170" height="30" as="geometry" />
        </mxCell>
        <mxCell id="u-FWoVEfWogfuSIkOhqo-105" value="" style="rounded=0;whiteSpace=wrap;html=1;labelBackgroundColor=#CCCCCC;fontFamily=Times New Roman;fontSize=15;fontColor=#000000;fillColor=#FFFFFF;gradientColor=none;" parent="1" vertex="1">
          <mxGeometry x="200" y="220" width="170" height="30" as="geometry" />
        </mxCell>
        <mxCell id="u-FWoVEfWogfuSIkOhqo-106" value="" style="rounded=0;whiteSpace=wrap;html=1;labelBackgroundColor=#CCCCCC;fontFamily=Times New Roman;fontSize=15;fontColor=#000000;fillColor=#FFFFFF;gradientColor=none;" parent="1" vertex="1">
          <mxGeometry x="200" y="280" width="170" height="30" as="geometry" />
        </mxCell>
        <mxCell id="u-FWoVEfWogfuSIkOhqo-114" value="" style="line;strokeWidth=2;html=1;rounded=0;labelBackgroundColor=#CCCCCC;fontFamily=Times New Roman;fontSize=15;fontColor=#000000;fillColor=#FFFFFF;gradientColor=none;fontStyle=0;sketch=1;" parent="1" vertex="1">
          <mxGeometry x="130" y="220" width="50" height="10" as="geometry" />
        </mxCell>
        <mxCell id="u-FWoVEfWogfuSIkOhqo-115" value="" style="line;strokeWidth=2;html=1;rounded=0;labelBackgroundColor=#CCCCCC;fontFamily=Times New Roman;fontSize=15;fontColor=#000000;fillColor=#FFFFFF;gradientColor=none;fontStyle=0;sketch=1;" parent="1" vertex="1">
          <mxGeometry x="130" y="230" width="50" height="10" as="geometry" />
        </mxCell>
        <mxCell id="u-FWoVEfWogfuSIkOhqo-116" value="" style="line;strokeWidth=2;html=1;rounded=0;labelBackgroundColor=#CCCCCC;fontFamily=Times New Roman;fontSize=15;fontColor=#000000;fillColor=#FFFFFF;gradientColor=none;fontStyle=0;sketch=1;" parent="1" vertex="1">
          <mxGeometry x="130" y="280" width="50" height="10" as="geometry" />
        </mxCell>
        <mxCell id="u-FWoVEfWogfuSIkOhqo-117" value="" style="line;strokeWidth=2;html=1;rounded=0;labelBackgroundColor=#CCCCCC;fontFamily=Times New Roman;fontSize=15;fontColor=#000000;fillColor=#FFFFFF;gradientColor=none;fontStyle=0;sketch=1;" parent="1" vertex="1">
          <mxGeometry x="130" y="290" width="50" height="10" as="geometry" />
        </mxCell>
        <mxCell id="u-FWoVEfWogfuSIkOhqo-118" value="" style="line;strokeWidth=2;html=1;rounded=0;labelBackgroundColor=#CCCCCC;fontFamily=Times New Roman;fontSize=15;fontColor=#000000;fillColor=#FFFFFF;gradientColor=none;fontStyle=0;sketch=1;" parent="1" vertex="1">
          <mxGeometry x="130" y="340" width="50" height="10" as="geometry" />
        </mxCell>
        <mxCell id="u-FWoVEfWogfuSIkOhqo-119" value="" style="line;strokeWidth=2;html=1;rounded=0;labelBackgroundColor=#CCCCCC;fontFamily=Times New Roman;fontSize=15;fontColor=#000000;fillColor=#FFFFFF;gradientColor=none;fontStyle=0;sketch=1;" parent="1" vertex="1">
          <mxGeometry x="140" y="350" width="50" height="10" as="geometry" />
        </mxCell>
        <mxCell id="u-FWoVEfWogfuSIkOhqo-120" value="" style="line;strokeWidth=2;html=1;rounded=0;labelBackgroundColor=#CCCCCC;fontFamily=Times New Roman;fontSize=15;fontColor=#000000;fillColor=#FFFFFF;gradientColor=none;fontStyle=0;sketch=1;" parent="1" vertex="1">
          <mxGeometry x="400" y="220" width="50" height="10" as="geometry" />
        </mxCell>
        <mxCell id="u-FWoVEfWogfuSIkOhqo-121" value="" style="line;strokeWidth=2;html=1;rounded=0;labelBackgroundColor=#CCCCCC;fontFamily=Times New Roman;fontSize=15;fontColor=#000000;fillColor=#FFFFFF;gradientColor=none;fontStyle=0;sketch=1;" parent="1" vertex="1">
          <mxGeometry x="410" y="230" width="50" height="10" as="geometry" />
        </mxCell>
        <mxCell id="u-FWoVEfWogfuSIkOhqo-123" value="" style="line;strokeWidth=2;html=1;rounded=0;labelBackgroundColor=#CCCCCC;fontFamily=Times New Roman;fontSize=15;fontColor=#000000;fillColor=#FFFFFF;gradientColor=none;fontStyle=0;sketch=1;" parent="1" vertex="1">
          <mxGeometry x="410" y="280" width="50" height="10" as="geometry" />
        </mxCell>
        <mxCell id="u-FWoVEfWogfuSIkOhqo-124" value="" style="line;strokeWidth=2;html=1;rounded=0;labelBackgroundColor=#CCCCCC;fontFamily=Times New Roman;fontSize=15;fontColor=#000000;fillColor=#FFFFFF;gradientColor=none;fontStyle=0;sketch=1;" parent="1" vertex="1">
          <mxGeometry x="410" y="290" width="50" height="10" as="geometry" />
        </mxCell>
        <mxCell id="u-FWoVEfWogfuSIkOhqo-125" value="" style="line;strokeWidth=2;html=1;rounded=0;labelBackgroundColor=#CCCCCC;fontFamily=Times New Roman;fontSize=15;fontColor=#000000;fillColor=#FFFFFF;gradientColor=none;fontStyle=0;sketch=1;" parent="1" vertex="1">
          <mxGeometry x="410" y="340" width="50" height="10" as="geometry" />
        </mxCell>
        <mxCell id="u-FWoVEfWogfuSIkOhqo-126" value="" style="line;strokeWidth=2;html=1;rounded=0;labelBackgroundColor=#CCCCCC;fontFamily=Times New Roman;fontSize=15;fontColor=#000000;fillColor=#FFFFFF;gradientColor=none;fontStyle=0;sketch=1;" parent="1" vertex="1">
          <mxGeometry x="410" y="350" width="50" height="10" as="geometry" />
        </mxCell>
        <mxCell id="T_9PMd5KUvyudqsOJ9a_-1" value="" style="dashed=0;align=center;fontSize=12;shape=rect;fillColor=#ffffff;strokeColor=#cccccc;rounded=0;fontFamily=Times New Roman;fontColor=#000000;html=0;" parent="1" vertex="1">
          <mxGeometry x="466" y="340" width="170" height="30" as="geometry" />
        </mxCell>
        <mxCell id="T_9PMd5KUvyudqsOJ9a_-2" value="" style="dashed=0;html=1;shape=mxgraph.gmdl.triangle;fillColor=#cccccc;strokeColor=none;rounded=0;fontFamily=Times New Roman;fontSize=15;fontColor=#000000;" parent="T_9PMd5KUvyudqsOJ9a_-1" vertex="1">
          <mxGeometry x="1" y="0.5" width="10" height="5" relative="1" as="geometry">
            <mxPoint x="-25" y="-2.5" as="offset" />
          </mxGeometry>
        </mxCell>
        <mxCell id="RNrIEYivnAnbzNg7K0AD-1" value="" style="dashed=0;align=center;fontSize=12;shape=rect;fillColor=#ffffff;strokeColor=#cccccc;rounded=0;fontFamily=Times New Roman;fontColor=#000000;html=0;" parent="1" vertex="1">
          <mxGeometry x="200" y="340" width="170" height="30" as="geometry" />
        </mxCell>
        <mxCell id="RNrIEYivnAnbzNg7K0AD-2" value="" style="dashed=0;html=1;shape=mxgraph.gmdl.triangle;fillColor=#cccccc;strokeColor=none;rounded=0;fontFamily=Times New Roman;fontSize=15;fontColor=#000000;" parent="RNrIEYivnAnbzNg7K0AD-1" vertex="1">
          <mxGeometry x="1" y="0.5" width="10" height="5" relative="1" as="geometry">
            <mxPoint x="-25" y="-2.5" as="offset" />
          </mxGeometry>
        </mxCell>
        <mxCell id="RNrIEYivnAnbzNg7K0AD-3" value="" style="shape=stencil(lZjdchoxDIWfZm81tuU/Xafpe2QmpDClkCGkbd4+YrYlXbloc+6WhQ+v5CMdrSe+e9k+PG+mFF7Op+P3za/d43k78Zcppd1huzntzno18f3Ed0/H0+bb6fh6eJw/Pz9cfnm5+nH8efmH3zMXKIQLlMLbfCOG662vM7DfHRZAiRAQKWFAolhBoBYIYKpY0JkkQUClhD1So9YgQCh1bB8CdSzqqIkVjMhUwKeqlEGiUwQJoY7FoaItIMHEWHZVVB0sjEoxY0SjDNZSR2tDlVjA8guUsexyROuJEwUsu0qAJchMBWsLnNGq5UIB23MlBFyjUgPXaGhnYNUVuIagvSQHYmyNHCmCThCpYxWVE9p3M5OAcRRKmHZzJQGJjkZeItqvCuzMZXBaqdS7A3Rqy8YgTK3cBqpGscyUBKrsAExpmajeqHjDgo4XBsjETgx1MM1+bZD/B5rVYFMX9WLoVoKt+POLblOHgEghgYBR7BrAFCMEaHc2QUdXS/p/vAxa8+ZpqVXrGLW4WmqDgdfkakn3NS1XKOJqqYmV90dJ3QLMMKxV62mpD3Zf/JpWMYcKAn+S+FlgmA7WAWNGawDb3rcONOyRhlliDRhGiXWgYo9UibGNaxQTCHQsaHUtTBrD2LECqBsUaAXRXg3VgyRK2AqJBFvhaoGfBbI9BlgDivWH7Pu0AmZgzL5Pq+8bQ8m+TytgXvLY92kZZib2fVoa8TKt7Pu0Am2508n3aQVMM06+x0m3prgOmBfbdcAMJzjg2+4IRN92Fahm2PVtV8ZZ17ddEQpmDPWVIXbUyH9t+Nbv63Kf1w57hoM9C+jFx6Hg026/n88U//3eHiLqrfkAku/fAQ==);fillColor=none;" parent="1" vertex="1">
          <mxGeometry x="653" y="281" width="66" height="4" as="geometry" />
        </mxCell>
        <mxCell id="RNrIEYivnAnbzNg7K0AD-4" value="" style="shape=stencil(xVjLctswDPwaXzF8Ezin6X9kJk7taWpnnPT194VH0yQElGV16k2Wdi0Sj8WKu3zzfLh72u9SeH65nL/ufx7vXw67/GmX0vF02F+OL3q1y7e7fPNwvuy/XM7fT/fL76e7K/J69e384/oPvxZe7lTDlZXC7+VOoLDc+LzgH4+n/4pPFMo2fGOAb9TTgM9UO8BXkjLgC5UG8bEN+EapAnyhzAOe8X51uTLghTgBvIYvD/gYqUVACFT6SMiU5WOCLljiSNAYgBSkTnkMaezEIKapUh9jpEVUQZA0p2V8g95JYNMpUhijqu9ksOnI1OtIYFhHsVEZo6SBzmDTsVAYC0lTGcGmNa+2sjNJBoRgS1WLt4MosS29t+ZbxWtWzZYZVlK3pZqFEsC/dtZrawZYeB6vaQc5W8MLSFm1nVMSrOtCTbbgs220KT7mLfhk+3KCj1TbFnywbTzFh1HaS/7bdf/4/xph1DFu/RXLiouPNjVoMB9/VT6g1b4ehCLoR1efNUDRcv1Y8awUO5oqnpUqKGZWVjwsvWRVPC11FCWzJDwuVUXZLAnPS51dbUxaC1AUvbA3PGB12MUxzS1BGVWCjLrSCtTFlTc0KHSrBKR0K5vGI3wlrAx7eYUguJkdoWOTsEKIsJ39pmcEl7gZQahuWpJKGPMmglbO2HE9QU1SkTEi2SdWSqyK9QJVTG2NkaWOvZe35L1jzy/WSnWBuqRzySSOI9QlHQTGP3KGuqTKbvLABepSdcOHG5SZ6qYJY/dVnf1ibL+q84My8V/OcMrEgLn5INiBNTcfBFuM5ubDjOBUY0ZwqjEjODGeE0y1zghOZiYEVdK8aQ/dfU/NCbwpcSpbrW0iOOWbEdxXp2D72d13rWD/2dkaRMEGtLtPbcEOlN3HvGALyu64QBjKPbvzC8GmlZ16x4CPhNgd8UwZYrt6xtBaME03ZRTqGxnN1viM8e75xxS9eDvcezg+Pi5ng++f28NAvbUcJObbPw==);fillColor=none;" parent="1" vertex="1">
          <mxGeometry x="654" y="278" width="16" height="14" as="geometry" />
        </mxCell>
        <mxCell id="RNrIEYivnAnbzNg7K0AD-5" value="Inspection details" style="text;html=1;align=center;verticalAlign=middle;resizable=0;points=[];autosize=1;strokeColor=none;fillColor=none;" parent="1" vertex="1">
          <mxGeometry x="717" y="270" width="110" height="20" as="geometry" />
        </mxCell>
        <mxCell id="RNrIEYivnAnbzNg7K0AD-6" value="" style="whiteSpace=wrap;html=1;shadow=0;" parent="1" vertex="1">
          <mxGeometry x="50" y="450" width="740" height="380" as="geometry" />
        </mxCell>
        <mxCell id="RNrIEYivnAnbzNg7K0AD-9" value="" style="dashed=0;align=center;fontSize=12;shape=rect;fillColor=#FFFFFF;strokeColor=#E6E6E6;shadow=1;" parent="1" vertex="1">
          <mxGeometry x="60" y="470" width="720" height="190" as="geometry" />
        </mxCell>
        <mxCell id="RNrIEYivnAnbzNg7K0AD-10" value="A. Working standards." style="shape=rect;fontColor=#000000;verticalAlign=middle;spacingLeft=13;fontSize=14;strokeColor=#cccccc;align=left;resizeWidth=1;fontStyle=1;fillColor=#F2F2F2;" parent="RNrIEYivnAnbzNg7K0AD-9" vertex="1">
          <mxGeometry width="720" height="40" relative="1" as="geometry" />
        </mxCell>
        <mxCell id="RNrIEYivnAnbzNg7K0AD-11" value="" style="dashed=0;html=1;shape=mxgraph.gmdl.triangle;fillColor=#cccccc;strokeColor=none;" parent="RNrIEYivnAnbzNg7K0AD-10" vertex="1">
          <mxGeometry x="1" y="0.5" width="10" height="5" relative="1" as="geometry">
            <mxPoint x="-25" y="-2.5" as="offset" />
          </mxGeometry>
        </mxCell>
        <mxCell id="RNrIEYivnAnbzNg7K0AD-12" value="1. work at height " style="shape=rect;align=left;fontColor=#000000;verticalAlign=middle;spacingLeft=13;fontSize=14;fillColor=#FFFFFF;strokeColor=none;resizeWidth=1;" parent="RNrIEYivnAnbzNg7K0AD-9" vertex="1">
          <mxGeometry width="720" height="30" relative="1" as="geometry">
            <mxPoint y="50" as="offset" />
          </mxGeometry>
        </mxCell>
        <mxCell id="RNrIEYivnAnbzNg7K0AD-13" value="2. Lifting Operations" style="text;fontColor=#000000;verticalAlign=middle;spacingLeft=13;fontSize=14;resizeWidth=1;" parent="RNrIEYivnAnbzNg7K0AD-9" vertex="1">
          <mxGeometry width="720" height="30" relative="1" as="geometry">
            <mxPoint y="80" as="offset" />
          </mxGeometry>
        </mxCell>
        <mxCell id="RNrIEYivnAnbzNg7K0AD-51" value="" style="dashed=0;align=center;fontSize=12;shape=rect;fillColor=#ffffff;strokeColor=#cccccc;" parent="RNrIEYivnAnbzNg7K0AD-9" vertex="1">
          <mxGeometry x="161" y="68.39999999999999" width="50" height="25.333333333333332" as="geometry" />
        </mxCell>
        <mxCell id="RNrIEYivnAnbzNg7K0AD-52" value="0" style="text;fontColor=#000000;verticalAlign=middle;spacingLeft=13;fontSize=14;strokeColor=#E6E6E6;fillColor=#F2F2F2;" parent="RNrIEYivnAnbzNg7K0AD-51" vertex="1">
          <mxGeometry width="50" height="25.333333333333332" as="geometry" />
        </mxCell>
        <mxCell id="RNrIEYivnAnbzNg7K0AD-53" value="" style="shape=rect;fillColor=none;strokeColor=#cccccc;resizeHeight=1;" parent="RNrIEYivnAnbzNg7K0AD-51" vertex="1">
          <mxGeometry x="1" width="21" height="25.333333333333332" relative="1" as="geometry">
            <mxPoint x="-21" as="offset" />
          </mxGeometry>
        </mxCell>
        <mxCell id="RNrIEYivnAnbzNg7K0AD-54" value="" style="dashed=0;html=1;shape=mxgraph.gmdl.triangle;fillColor=#cccccc;strokeColor=none;" parent="RNrIEYivnAnbzNg7K0AD-53" vertex="1">
          <mxGeometry x="0.5" y="0.5" width="10" height="5" relative="1" as="geometry">
            <mxPoint x="-5" y="-2.5" as="offset" />
          </mxGeometry>
        </mxCell>
        <mxCell id="RNrIEYivnAnbzNg7K0AD-65" value="" style="dashed=0;align=center;fontSize=12;shape=rect;fillColor=#ffffff;strokeColor=#cccccc;" parent="RNrIEYivnAnbzNg7K0AD-9" vertex="1">
          <mxGeometry x="229" y="67.13333333333333" width="120" height="29.133333333333333" as="geometry" />
        </mxCell>
        <mxCell id="RNrIEYivnAnbzNg7K0AD-67" value="" style="dashed=0;html=1;shape=mxgraph.gmdl.triangle;fillColor=#cccccc;strokeColor=none;" parent="RNrIEYivnAnbzNg7K0AD-65" vertex="1">
          <mxGeometry x="1" y="0.5" width="10" height="5" relative="1" as="geometry">
            <mxPoint x="-25" y="-2.5" as="offset" />
          </mxGeometry>
        </mxCell>
        <mxCell id="RNrIEYivnAnbzNg7K0AD-68" value="Upload" style="html=1;strokeColor=none;fillColor=#0079D6;labelPosition=center;verticalLabelPosition=middle;verticalAlign=top;align=center;fontSize=12;outlineConnect=0;spacingTop=-6;fontColor=#FFFFFF;sketch=0;shape=mxgraph.sitemap.upload;" parent="RNrIEYivnAnbzNg7K0AD-9" vertex="1">
          <mxGeometry x="370" y="59.53333333333333" width="50" height="38" as="geometry" />
        </mxCell>
        <mxCell id="RNrIEYivnAnbzNg7K0AD-70" value="&lt;i&gt;&lt;font color=&quot;#c2c2c2&quot;&gt;comment box&lt;/font&gt;&lt;/i&gt;" style="whiteSpace=wrap;html=1;strokeColor=#E6E6E6;fillColor=#FFFFFF;" parent="RNrIEYivnAnbzNg7K0AD-9" vertex="1">
          <mxGeometry x="450" y="69.03333333333333" width="200" height="25.333333333333332" as="geometry" />
        </mxCell>
        <mxCell id="9fDAD1BXsFrjNk6evdLn-3" value="" style="shape=image;verticalLabelPosition=bottom;labelBackgroundColor=default;verticalAlign=top;aspect=fixed;imageAspect=0;image=data:image/png,iVBORw0KGgoAAAANSUhEUgAAAZAAAAGQCAIAAAAP3aGbAAAABGdBTUEAALGPC/xhBQAAAAFzUkdCAdnJLH8AAAAgY0hSTQAAeiYAAICEAAD6AAAAgOgAAHUwAADqYAAAOpgAABdwnLpRPAAAAAlwSFlzAAALEwAACxMBAJqcGAAAgABJREFUeNrs/XecJMl53wn/nkhTvtp3jzc7s34XWAALDxAAAZKg6CSKpCh7FKnTSaJ45MujJFLmXr66u1cn3YkSKd6dROkkiuKB3gAiQcK7hVmHxTrs7njTM+27y5s0EfdHukhbWd09u9OzFZ/59GRGRmZlVUZ883HxBAkhMCmTMimTchAKm/wEkzIpk3JQygRYkzIpk3JgygRYkzIpk3JgygRYkzIpk3JgygRYkzIpk3JgygRYkzIpk3JgygRYkzIpk3Jgijr5CSbltSrCGprNFbO5YrbWrO6W3d2xejt2b8fuORsNbg640RO2wQcdwS2730y8Dqk600pKsUZqgRWqTC8rxZpamVOr82p9Ua3Oq5U5rX5InzupTR8hNunzB7jQJHB0Um5pEZZhbF8bbl0xtq4MNy8b21et1rrRWDabq3Zv59Xu7kzRZo4V5k7psyf1+dPlY28oHn6gsHh2QrGDUibAmpR9K8I2h+vnB6uvDFZfHqy9Mty8ZGxeMRo3IPhtPQYUrXj4gdKRB8vH31Q5867yiTczrTh5mrfpw5oAa1J2WQQfrJ3rXX2qd/0bg7Vzg9WXjc1LgtsHfkgoWvn4I5XT76iefXftvg+q1fnJo76Nns4EWJOSvxjb17pXnuhdeap79cnelafsQWtfLqtopBZI1aHopGqkaMRUKBopGhHB+esobURgCsnn2qYAIDi4DW4LbsM2BTeFbcIyhWUIayBMQ1iGwC56OlH5xFumHvyO+gPfXrnrnaRokz7w2pYJsCYlqwhu9a481T73+c75L3WvPmW113fZzxj0EtPKpJdJL5FaYFqJtAJpJVILRJR9E+McEpH+7VULmANh9LjRF0ZPDLt80OHDrrCtvP1fKdan3vi9s4/+UP2Bbye1MOkbr0mZAGtSYkPeMrpXnmif+3zn3Bc6l77Kh92xTmcqFapUqLJChfQKK1RJrzCtQMikUvSgkI4wBWAg7x8UEANTQArgiF4MIAjLbc8tgMM2YZuwDXADErki1zcHot/izr9uwzb6o4eDS663/nD9wQ8TUyYd5tUsE2BNijOARe/6M80X/qT9yue6F7/CzX5ePCkoTSulKVaoUrHOCjWmlWhUp1M8+ijOPyIVTIH7VwEpYCpIdWtcWhGIASw4XaaYUykfDSoVcIOsIawerD6sPswOhk0MGxi2AnQJALAM0d3h3R27s233mjx7cOgzx+be/WPz7/kxfeb4pAdNgDUpt7zYvUbr5U83n/9464WPm621XD2GoTTFyjNKaYaVZ1ihxlIVOpcdCpizoXqEIsChD7kkAiMiwN32Kz0wkUSocbGl+H+JfPYpbr0QMFoYNjHYRHcNvZsYNH1+cVu0t3hrw25tWFmSF7Gph//Mwvv+ztSDHwbRAesBE2BNyu1f+jdfaD7/x60X/qRz4cuCWyPbayWqzCmVeVaeUUpTjOLzI8iDGZgnE3lgAnmEkjkVZpZbkx9bLLo9FrakXZB/twqIwR6iv47OClqX0boCy3C+36DNG2t2Y9Xqt1NDNMrHH1n6jn8w++gPgSYTSCbAmpS9c+rG8ztP/fbO078zWHslD6Sq80p1QanMs0KVhcAUYVUAFI9QQJRWebHFAKJITX5sBaiSD+XDVvDP2wXQXUHzMpqX0LgIbkLA6PHtm9bWjVSZq7Bw5tCHf3bunf/NxKU4Adak3FpOqTrVDinVBaW6oOhlSiFUGFXuBhJQFcdWdDcftuIb42FLAla4Mhe2HHJxE40L2H4J2y/TsA2gs21vXrd21qzEqNjC4t3Hvv+fT7/pz0263wRYk5KrDNbObT/+6ztP/fZITpWmWf2wUl9SyzPMR00yoaJ7JNXvAlssRfLKh62QSkhjYisibbFc2AIAgfYy1p+hjWdh9qyh2Fy2Nq6Z5jBhHFXPvufYD/5C5dRbJ71xAqxJSS52b2f7yd/c+tqvdS99LaOZolFtSakfUmpLilpIE6YoocLtMHRrsBXYs6S/+bGVKHCNha0Ip1gKtgBhY/sVWnsa268Iy966aa1fMQfdBHFr9u1/+dj3/3Nt+uikc06ANSn++BHt81/Y/OKv7Dzz+8IapnJKpfoRZfqoWltSfH0uC1IU3hIiHJo5JraIpAbjYosRUZJWmBtbFI7nGgNbsW25mF2sPkE3H8egub1irVw0h70otlihevi7/vHSh356YtiaAOv1Xqzu1uZj//fml35luHExlVMaTR1Vpo+q1YUcnCIktgCQMo15t9iK0AoYH1tyoAONia2YJgjaPbYEx8ZzdP0LorO6tWzdvGBYRnRklY4+fPKv/YfKqbdNOu0EWK/H0rv61Prnfnn7yd9ME6lIwfQRdebEHjkl1YiMuc0+tihcMya2Qg2YJIjlxJZMKMoKfUjDlhdMn27bSscWgK1v0tXP2I0bqxfN9WtmlPDEDn37zxz53n86mdwzAdbrpQhuNZ75g7VP/0KGlao8w2ZPadPHFEWjLE7lgZRcKWyMmEOcgS1f+JIQloot5+O860R1SacwIiaJY6HoeTAVpKWHyNOY2IrbtjKwJbD+LF355HBra/kVo7kRpXzpyEOn/9vfLB15cNKZJ8C6kwsfdja+9O/XP/uLxtbVxAZqgWZOqLMn1WI9MXIqIk9RLkhReCgKkSO/VQRb0t8oyOJFSH8TD4r0s+T7dD7Ej7ZXwTQwHaSRokMpgpWglqCWwdQUl+JIbMmh/Er0G3ELy1+iq59rrg2uvzQ0BqE7ZFrx+F/4pfn3/reTXj0B1h1YrM7m+uf+zfpn/01als7aojJ3l1Y/pAQv+0RUJYhUNApSac1ECBREo9iXUcRu2iTDS6TeoXwo5DnQoJZJLUOtQqtCq6EwA6UYkrx2ja3BDp3/Q77xys3z5vo1M3Kvc+/8b0785X87yRc4AdadU8zmyuon/sXmY/8+MWuCotLsKXXutFqosRRcxC3iKUyhnIphSv0eZ9GJsUAWh9coco3ElvC+hFOpFF1yFedQnENhBqSGYk3BxsDWyhN08Y/bG/2rL0RFrfLJR8/++Me0qcOTrj4B1h2Aqn+++cV/x81B/KhepoWz2uxJlWmUhaqRIhXlUwyzmuzjjF+RyaUcyqAQWdgKKvJhy98gBYU5lBdRPoTyIVLLqSHyjqsxjq3BDr34X+zGzWsvGjtrofmb+szxsz/xx6WjD0/6/ARYB7JY3a3VP/1fNz73y4moKs+wxXu0qcNqaJE2im3RHjmVycHcHWw0YvIjTGRfJNIyk1wZ2BLSrYvEo4TiLCpHqHoM1eNgWr4QeUDYdO4PsfrUxjVz+RVDHnlKsX72v/949cy7J51/AqyDVPiws/aZX1z75P+WuKRVbVFZulerzCshFCRLVWmookz6JEKKxuTR3kuOHKNZ8Mog13jYSmeWt6HXcOTtpM+iMANWyIWtlcfp3Ee7O9alZ4emFKvFtNLZv/tHtfu+dTIKJsA6CEXwzS//x5sf/SdmazV+cOqwcug+vTjNoqhSiiguQJ8hrQa14spN9hD2QAy3MdyG4Rnps4zilA9SeXKG7gJhYgSjUg/H4ZVBrluDrem7UJoDKSANWo0KM9BnPLdjOrYaF+m5/2T0rAvPDAYdPmHWBFgHrLRe+tTy7/wP/RvP50MVoXyEaqdROQZ9BoJD2N4/eVtA2DDbonsF3eu+MSadU7khRbhlshWSUDISXtnk2hW28jCLVCw8GCQmdDmlQZ8ifQZaNcysMLa6q/T0L9umdfGZYWfHlpl19099snr2PZNBMQHW7ViGm5ev/9ZPNp/7r/FD1XnlyIN6eZYJHxPFeZp9I2pnoRRjeIpse7vgEBxmU+y8CLsfwlD+qNHRhNoXfonx+SUyyZVxNEVkGgtbxRnUjkvylOqZ21WQCrVA2gy0mmfkirkUu2v09C9xi19+dtDcDJillKfv/XtfKh15aDI6JsC6jQo3+6t/8s9WP/Ev4hNrytPs8AN6bUlxnw1TMHUfzT2C8hFwG+DgaZzyNsDD8OLghmi8ALOTjirKDam92N13a3EfAa8kNmULXGnYytQQZWaJ6jEUZ0jW/lx4qcGGokGtUxq2Oiv09V8WHJeeHcgB8frsift+7gmtvjQZJhNg3Ral9eKfXvvI3xluXo7UayU6/IA+e1x15qWA6Vh8G82/DYoe8MhhlrMhkrYFD8tZ3JWz7KHY+UYsTp1yQCofuXYtZuUKX0ipz4pjQGooA0TS6enYShK1xNQZqEUKOBUTspgC0ty/WoXUipTY3sPWznl64b8IjgtPD9qSblg98657fvpzpOqTwTIB1mtZzNbq9d/6qZ2nfitSzxQs3aMvnNWYAhCEUqSld2LurVAKEFamPJVkupKBBe7LWaJzEcPtfJzKJFd2JtI9sCrpiMh14i4isHaHLY9ZYuYeB0AUlbDCQpazAhBTwXRSylAKUXv88mN05dO2Jc49OZBzxi9+8CeP/9C/ngyZCbBes7L1lV+9/ts/FQ9ZmD6qHn1I10oEgmAalt5NS+8G08BtCCsfpxJlKxsQQQ246C5jIC2Gmj8aK9dknX0sIje/ssm1O2zlELWgYOpMkI5mtJCluvOxmUasEPYkMnrpN7F93hyIl7/Wl2Mdzvyt35/kWZ4A6zUoxva1q7/+N1svfiJSX6yxY2/Uq25oFWHuTTj67dAqAX24tRvZKqQbCl/OEt1rGG6PnqaDeI6HkXi6JXNzko+KPOQSKbFamdjKY9hytpmK6il/IcXcQpbmkys0MxFET/8yjHa3yc890fcHpVqdf+D/+7xWPzQZQRNgvXpl6yv/6fpv/aQ9aMuVjGHpXn3xbs2drlw/Tce/R5QPh0QqZxHjkSZ2/2+cU269uy3a52APUyiTH1K0b9QSuzucP6g9Xd1LwFaGPT4mapGG6olARMorZGkyv8jJluNkuRm26Rv/DkKsXzWXXzH8O55+5M+e+dt/MBlETlEnP8EtLVZ74+r/8981nol2uNqCcuyNurt8llrBye+mubd4bAoDiMtGKMnrFzerQ64UUr23zYcercblVPZs5z3IVmlL1IvEwyJ2mgikxYAyFGpPJGGLvHrnWzvYClf61wxOEd4MAQFB3mUFICC4k5BLQJDgXkovDhAEARzEIQiw3V1hgxiEUy8EUwgc3AQxFKdw/L249sXFk1p7y/YDHRrf+MPGsx+dfuP3TUbTBFi3trRe/MSVX/1vIisqM5WOPqTPnVTdUbH4VjrxvVAKELbgsrHc8g1PLrMgGdEj2wGqRHAWhEQ6AQgYO7ucprMbPI1sJrLOonAzgQQSJZIrJAdRFFuuoJQTW+RBUDpEwm3p/KokvDz3HGABxcAAAeLuNjmNefB0BAdsCCaYCnDiBgTnx9/Htl5Cd+PEg4WXvtK3TPfLXP+tn6w/8O1MK03G1GSJ2ltShG0u/97fP/9LH47Qqr6o3PetJZdWxTl68O/SXX8RSgGCi0QVL+jfMTEq2BaS2CWNhwi/hC2MhjeMHU0EwW5ovg8FYhcBJK+QGoda2r88RMtzrn+3ifccu23/nqOHfEZHLgIpCSqiUzQpPXWqEJ706r4eBMKPAJHHEfPb+g2YKpQSuElWR5z9syBoBTp6TxDQYGxdXf/ML06GFSY2rFtRhpuXL//7H+5eeUKuZAqOPKjPn9YAgAhL76LTfw6kOn5A4Vum9tstGDQwm6K3ki4ojZncPZVB+Rq6XE/Yym4XrRw5BTrNSuVsizyVEWO8VF86AqbLKf3ItVjltmTJJi1hk9kW5cPsld/DxvMQOPfEoNNwFUOlNPXw//+KUp5+nQ+uiYS1z6X5/B+/9L+8OUKr8gy79/2l+dMaCChM0wM/Tmf+okcrW0Qj1NNsVfFtEX2lu7QSUTkLQrjOQWTKU+Hl5kMNYoCj+L/c0lX02uHrRK9CqSIVjRIVowJXTNpKqIwEpkVELelSwhxPyJJtkZEHDQ6lINQKjKY4/R0gBsKxewMhy+431z7zryfjawKsfSuC2zc/+o8v/PJ3272GXL94Vrv7PaVClYGA+Ufpzf8jpu/zxSgh7MBc5bsFczFLxGxYQqoPs8xsgQ+TSBThFBJAlkyoVPbs4V/kYhGEjbw3pBM5HVtECSTyVsEQgvode2fduvZM/+rjvdaKFaKYbUJ4Niwhgt8fniXLPSq7QWTDYphi3IJageCiOItDbwFQnmYzS4GVef0z/5oPOxNgTco+FLu3c+GXv2vl4/+LXKkW6Mw7i0ce1IkBik5n/wrd+2NgBc9nZ8XcfxG3YGwm80i3IERIzvLs7mK4NWoMJ7IgjVBjWax23TKCsDi80mSu3WFLIhEAUL9rb90ctrasnUvGzgWjcc28/OVed8sOS1jeD+5t7EnIAodWhz0Ux98HRgAOnQ0WXrX7zc0v/8cJsCZlr2Ww8tJL/+ztkaDQ6pxy7/tLtUUFACpH6JF/hEPvkdx/NsD33y0o88sXu4wWuBk2S48a+VFIjTKKR/4l6onJchONc/EwvEbcP6T1ECkHtgJRyzLF9sqwtWnalhA2uoFghe6mHaiHthGIUZGNXQtZAIiJ4izmHgShVGVTC0Hyv43P/x94fRudJ2ENey3NFz5++d//cCQodPGsdvh+3Y0IPfQeOvuX3Ogb2D6bbr1bkEMIcEsY2zkykWJUlENS5R7n67htRbQ21ZQeCbBCZgSW/5WTQhmcMIikUIZBx2ptDn0sdFZMbgX3UJ5V3cgsIvfxEQO4F67FARLgJCg1JsuNzOJeNJbzHvKCs7w3kzj6btp8AYTFk5qfyGGwdq5z4bHq3e993Q63iYS1p7Lx+f/jwi9/j0wrpuD0WwtHHtCJAUylu/8q3fvXQWpIhhJcyMmqpPq8pquATTFzlR9+BQEIYe5A2Dk8/Wmma4RFp7CstJtohkRuxQW0tE+Jn5Ihc8lfMFJPifb1XstsbgS0MrtcFq/Ks2p1UQ3ISAR7mFvIEjEhy0565biVon5SlOYB1OaUYiUYp1tf/c+v5xE3AdYui+D29d/+qWu/8XflbC16me75ltLUYRUE6NP0xp/FkfdD1vteRbcgBIdtwGyljuScnBrBjhTo7MXoHqWk7H9Mu08E5MqFLYSxRQANOlZ7K5gTwy3RuGDIEt7hN5bCyAP4UDZgSRtxS5adZMlKj9ISNg6/zRENZ48EmtDOM78vbHMCrEkZo3BzcOlXfigSy1edV+79llKxxkDA1N306D9F/bRkL09xC8aNr/viFnTe0sZ2ysCmcDxkbPwTJUEqA09JJWq6GimHZVyW0m8sBlzK+II+tiLnotcymhsD6YWExnnDHga4mjtTqC5oYaGMwE1JsArkKbEvQtbCG51vMXs0AJbd22mf+/wEWJOSt9j95vlf/PbGM78vV86dUM+8o6joBAKW3kOP/By0qmtG9btgolswSMiX6RbM4FSSWxBCCLsPuxcesRTz4lMyp0ZASq6m1H/RU9Ks8pGzMOpDQ6KfgKRnC5GPyyFscS6a64P21lCm1c65oSGlpirUlMNvqEg/FIKr2YNAqtpfIUsrY+qUIOhFKteDodp64U9et6NvYnQfr5iNm+d/8Tv6N1+QK4/cry/e7Yaw010/gBPfI0Wr75NbUMhuQTvdLei94WEjEsqQHOMemfk8Kj1WruUn8luykhxeFJvwLAABy7CtoWUZlm3ats25xbnNBU+4AjEiRowRUxlTiClMUZmiMkVjisqIkW+h55wP2ka3MeR2cB1uicZ5Q6aVotHp99YVTZqZGEwqFLCHUEoeqoRvgBfglDC70Nt2DO3kPFYWtsEHZngx/zA1LwvC1KLaa7nqavPFPz32g78wAdakjCjG1tVz/+qDw42L0tjAyTcVph2JXdHo/r+Fxbd5GRes18It6G0bTQg7N6peneTu+U8XAGyDt1d73c3BsGkYXZubgttCWBDCy8hCYCopGjGN1CKpJaaUSNFJcCG44AAMO35ppjCtqBCRbdrmMNrAHoidc0NLWk2eKXTqPfVCTQGc+YOxidDCBjegFACKuAsBxyEouwttdzvZXSi9nEiB4Ji527lebZ6tXHBvabDyktXZVKvzE2BNSmoZrl945V++32zc8GsUlU6/tVB1wmT0Kr3h76N+Gtz2IPXauAUBLrgBsw3EJ+5moyp7aeg8hMrMk5UVP+Qe47Zo3+y3b/Taa32jbWW1tgDAhojYn5lKWo3pVabXmFZh8TviNh92eeJlBzt265IpS1vE6PR7p6qLmvuxRFKQhM8swB6A6ZKQ5f4bJWTxmJDlJZ/xhSy9jtI8epvlaYUp4B5gOxe//PpMODMBVq7Sv/H8uV/4VquzGfxwOp15Z7E0xQCgOEeP/CzKRyAswH4t3YKCCyFg7IQMwzI2dsOpXSd3z806Qe2bva2L7faNnhz0tIvCLTHcsYc7tgOvwhQrzCiFKUVeejnh8zna183eWgiRikYn3z1VPaRLSWa8xFhChJllgptQSBKyKCZksZiQ5eBplJA1dRf6mwSUp5TOtkus3tWnJ8CalLy00op09l3FghMdUzlKb/qH0KchrMRECyLKoFvpFhQcdg/cGBtVCXpfnrzJ40Irzhe+da61+UrL6Oy/q55bor9l97dsYihMK6V5pTClxG/W7PDmJUNWAwHoZeX0+6aLU6oUYioCQZEoxCwAdg9MyxSyHHKNLWSJqdO0+gQI5SkWAOv6N16fg3ECrLFpVSizM+8q6iVywxce+ftQygGheCzBsasDprgFEyaX7dYt6FSajTBERsW4j1iHIhFSOdNdZRTBLbH5cnPjmw1raKdeglFxSivOFPSKqpUVtagwhUghANzk3BbWwDZ7ltG1hk1z0DQTbfAABMdg2x5s20yl0oJSXlSVAgEQNtrLUcEKQHVJP/nOabXIQkn+BMXS+0kIS7Bk7V3I4iCOyhHnQ0q1wFE4uPniBFiTEi3D9Qvnf+k7I7Q6++6iViQQMH0fPfJzUDRwa/duQX89wch2lltQJLkFnRWeG5JhOBNVI6fpYM/53dPLzuXOytNbZj/ZSlVZLNYOl6uHS+W5ArF4ltHkRSiE4MOW1dsYdNaG3fWB0U24OLdEd8XqrliFGaVQY50Vi5si8m2WHqwuPVSjkN4HV/WL5E2OMGu0JStbyJLcL66QZUMwaFVoFZjdYjUAlrF9VdgmKdoEWJPi9Ymd5XP/6oOylb1QZne/u6g6tJp9mB75ByAW5dGr4Ra0kwN57AHswd5QlR3lkFxJ4yyuM2yZy4+vt1d68UPFKX3mTG3mdE0ry91SJFyZPGpI5CJixSm9OKXNnq0BGDTN1nK3db3f3Rwm3IZn55JLoaYef/t0ZUGXsiqL8HzDSN5kEWrj2AQopyWLx4QsG4KlCFmH0bigl6W80dw2tq8VFs5MgDUpAGC1N879y/cb29dCtHqXRKs3/SzAIKzbwi3oJr1qusM4MdsvkvLS5eUUJRFqbNlq63zzxpMbcbN67XB54YHp+tFKhFNCRD4lBq8QuULzn4tTWnFqevHBaaNrNi51d650B80sM9n8vdXDb6wzhZKSuEMyV8VNWlIbPgSpSUKWIEeqCoQs7s2HzyFklRbQuKAWSHYUms2VCbAmBQDsQfv8L31YjrdyaVUiAJh9A73pH7j9zBGpXnO3IATMlvfS3jWqaA+QGgEv2+DXv7rWuNqO1JfnikfeMl89VA7zyLtjSoNXhFyhFSiMrtm82uWWYBrZJrf69rBtmr1US1l5Tj/66HR5Tg+QF18vJ2JiD5m05PgGE0okglSStnYrZInClCPJqToZffe7y7L/BFiv3yIs49K//f7eta/7NVqRzry94NJq5n5608+CmJd83X7t3YIQsA1Y/XTBKgVVowLcaffJ3UPNhi3j0mdvDFuGfEwpKEffsjB7tp50WeatneXjSXjqHxeBkQ7RrDIkrIF97o9u2CbP1fsL7NAj03NnKt6lEtfLibsFEYp0DzFLQPipx/YoZEnJZwp15zMVNYhns8KJbSfAen3iSlz5z3+99dKngx9Ip7vfUSxUmQAwdZbe9A89WtmBKzDZLRieEniL3IIOxcxWimA1FqqyOZUpW6UTrLPau/z5m3bYFTh9snbsHUtqUQqOEgSmCVLhZBELZg4731cId0Et5q2sxSXEBOTqrg/z0EorK/P31ufvqTLVX/4rYquCJ2pJFJPXJUxjlm1C1cYXsuQVDGNTdrS68wne9CAA4IPWBFiv93LzY//j9hMf8XeZgrve5tGqfpLe/I+gFDzBaqRbMJKsPY9bkI/tFhQcdgewomGilGhWz4OqXUdjJbRvXu9c+fwNOdqAKXT0bUtz90wHoCEVSgmkeXhyVieV6eEMYOf+eFDpSV4i+FxRnNGJUrNyKjqrHytPn6zUjhQpTDppdcJ47ALCYlR8mUJZYfRk4fGELJ4lZKlF59JMGq/2sDsB1uu6bH31P698/H8ORh7h9FuKlWkmnDUE3/xPoFYkNfBWuAXtXG7BUCYAE1YvnVbZqMrPqd2EjMZppVe1uz54rDhd8M5WoNbANMBdl5SICwEQc+FFEp7cCS4yvAScqwvhuOaEoEJNP/2Bw1sX2/bAlenUItPKanFaL83qpWndzUHqwkokLKoqy1CpzArvQlIYHTsmo/0UskhxWEqv++wqE2C5pXP+i1f/y38r1xx/Q6G+qAgC1DK9+R9BnwK3PFnpNXULOkZ9Z9uZM7hvqMpOmpxNqNCh7nr/yhdCtKoslk5/4HigBqo1qJ7xSHA30bBgRE4ELJdkK/KiliR4uXKVk1kYAgB3sVU7Wqkd9c1SCDainkQhLYkaV/SQGsqQ7DqUmWUByn4KWWBgDDyk6grbmADrdVqMrasX/90PyIkcl85qc8dVEEAqPfL3UD3u2apuG7eg4LC6EFY+Wo2FqjycoowKo2te/tx1Ic0irh+vnn7/MSdIHaRAnwfTJAWQecwSgCDBhUciD08em1xhRCYMc69DjllPEJHn6IsvSR8JgIgY1CEJTeHYhZBJK9F1KDFLWBC6KxLuTsgKtj0hi2kQQ1nVJUWfAOv1WLjRu/h//VmrveHXzBxRj9ynu533gb+J2Yc9iem2cQsKAW7B7gXJxfcfVZmQSg8WFQJXv3jTGtgSrWqnP3DMjVlnOgpLHqHCtAp0QEaCg5gQXkS4iwUW1golHEkIEkJIRixHFOLuhpsmkEkSE5LTMCDHdJzojEKvQSAL5xOygnQOPJQtKyRkAXBX1Xk9lwmwcPXXfkyeSlqeZiceKcB5vx7/Dhz9Vjc6VNjJS8a/Jm5BcFidcWlFGdFYWdHq8cQMWaar9Rc2u2tBIHt5vnTqfceIMQBgBZQOS/Pv4rTyYcRCJi3BoxZ3VzYRMYFLmrgT3+CeXknMi/BEitCEsE0dydNx4sxyqWl7klpcyGLRwHencbaQFfvJlWJtAqzXXVn/7C9tP/mb/q5WoLveUmQMIGD6HrrvRyUMWYG/T8rKkMst6LNJ3t61WxAcVh/Ckmi1L6jK5lSukFGjY659Q0rCU1BOf/AEUx1a6SgfdWfSuQogvBHu/CAOhhTJbMeIuPAFHNni7ohIETsXJHEssDRFcOZg3wZsMMXDVqZ6mGDSSmeWn9WPFCkyQ/7HXavYWEKWPQTBMgKdUK0tToD1+iqdi19Z/t2fCUYew+lHi1qJAIjCDD3y9z17xJ7dgiGxy87lFpRdgZFtbsHu5xCsEnXAvCEO2EXUKNHNp9a4HdiGj7/nqFZ2kkcrKJ8EU7z5cXHBCgB3bdWBSYsDSpJJS3gmLYTsXJDFMRGVvALmeAe4BVhgurTWTkqWPkRMWiOZxYMgMqK9CllWz7m2JS2KoVbnJsB6HRW717j0Kz8kG9qPPViozDAAgoge/onX2C3oAi7mFnRs7VHWjCVY7TlpsgRCuQybw8aVpr87fWpq6oQXyF46CkWH8KUlx1UvCVaCgSjGMjhs8piVaNISKWb4kD0qrPxRSE+0h2CKG12RfzoOxcJKQ+25e7e7ELIoJmRZXec3C0lYlQmwXk/l2kf+jjwba/aYOn9CdXvsye/C7MO3o1tQCNh9wE4BUESw2juqaCSk5JYbLwWrijGFjr7tsHsFfQbatIQnT9CQBSvwbJMWCYGQScvDUGpkqcSf0AaFcObWcNhDSdTKNx0nEqIaZ5brWMwWspxsM5KQ5XQDWcgy2wBMIxQOOwHW66jsPPVb20/+hr9bqrPjDxXcZc9rJ+nuvyyFsN82bkFnnhofJDEoh2CVyC/kEKmSF6GI1nCTb1/Y8XdnzsxoFR1wlMGjAPMkFeEOV4GoYAVIwQ2y5OVnaGG7iCyNoUokWejhiVoamJLqFkxlVhLj3KCqkUKWv5Z9upBlNECI5ETVZo5OgPW6KGbj5rWP/J1g5DGceqTgTHoQikYP/6Q7hG43tyCEtM6gzKAIrfI4DbFPSZODytZym0uT+BYenHePlJZAuidG+RKQI2JQVLAKlCl4zBKu0LG3yFLPpZhh0nI+3HSDnnyepZrh05jlmfyduI1clqwRQpYwdgAMOtIa4zPHmVaaAOt1UIS48ms/ZnUD5eXIvXrRSz5LZ38YlWMQViiJaJZb0A7JULfOLegog26HRqIamCRYpYe57z5pMhJXoGhcDebilhfKxZkSAJCC4qFgiPrueQHPdu7sJgpWCMx2Y0SWhmMMEIosTTFphWu4DSHghmVS5ozCRGb53klPqtq7kDXYBDCQF3Zduvt1SKvXI7A2vvhvWy/+qb9bnVUWT2uuMjh1hk5815huwaS1mhPcgpJ9PWElwVFuQSHAHWUwD61GxY7mRdUYyd0FF63rAbCmT097A2vBm9XMJaEJ4VAGJAtWLtR2EVkqsiNLYxsU1RPd5VELIWYlLPCVzSxpmcK9CFm2BaMJwqAVAKu4OAHW66AYW1eXf+/v+btMpZOPuKYrMIUe/FuuvLP/bsFIgvY0t6CQ3IJCipYW4L0wrUapgUna4viZSJEzuXt3vcOtYDhNn5x2mxWX3FAGHxwuFbyYA3ir9QUmLXgCyC2OLA1QFQnX8mLT7SFYwftxUqY9ZzNrX4Ss/rrzucNOYMMqLN07AdadX6595O9wKSnH8Qd1d/EbQJz6Hqoce63dglxyC0q+QrsfqCRhuGSqgaOn6ewhaXKocueStAZaRdPrOgAoRWj1wKPnniLZsITnoaOIGf61jiz1L8jjzEKSJJXCLJlNIXJlC1lcFrJEfwUA55DXfy0dvn8CrDu87Dz1280XPu7vTi0ps8fcry8qR+iuP387ugXBwa1gncGw3pegBlIMXmlU2k3SZCStYg9u8d5mMBenulR1D2iznu8PbrhAKBzBJxE8hCkJZvjXMrLUY5asGyIltD2DWQGq/ECHbCHLs9YJDljorwDU37HkDNLlk49OgHUnF7vXuP5b/72/y1Q6/lAhGJ73/xhIccNEbyu3oBDg/TFplUew2u00nSSW9bYb1kAyr8yWvPCraUC2WElEiNqwELPK54ks9Yl2qyNLjZANHhHlMTGNn0Qr2oOQNdiAMAF0tySL+8IZtTo/AdadXG78wc+arTV/98g9mru2ICAOvYNm7o+6BREwS4Sm3byKbkHBwfueOJBNq6TY0f1Lmhy7Wohlg2bLlkKEClNFr3PVpEgF/9Y8ISJkw6KwVT5nZCnCZvhbFlkKgJvemoM57FmhKdPYi5AlutecC8rAqpx66+uTVq8XYHUufnnji//O3y1PsYVT3gqUSoHu/ksJbkEvlEG4izmnuQXD0wb30S3oZBPlZhKtso1WKbRKcCNiV9FYoRp7aFiDobxyl14ruPes1WKyFYVMWgk2LNymkaVO1K7j8YwyC4jiDWEz2W6FLKsLo+FcrrcdpOupnH77BFh3bBHcvvb//O2gIxFOvKEAf67r6e9FYWYPbkE7ZXvPbkFw2IPRtEpWA/OFuWegKnfUqNHrczsUga1oDACIgWkQkmwVsljFa277yFLOodiAkqz6AdH1CkMTd3YjZImusywmDdu2PO1Znz3xugXWnZ8jevOx/9C/8by/u3haK9W9b11exInvuh3dgoKDD8OkkGlFY9CK5GbSRoJ5S24fqY8IZf4/GL2eCK/4x1QFIDjr37j/FJACYkB2DQW7YKGjIK8ZeYuAseD6ztGgDaOgxm/v1biV3l+3noXqg0PhGtuScBt/BFE7YzAzUYTdhSFa8dBfzz4Aq4XhlnOd5s1Q4r7L//df3vj8/5m60sYEWAe32P3mzY/9E39XL9Khu/Wgg939l0F027kFhXBD7SmNVkgYKtHRIg+YGNQoxq9UVCH4OA9ScgN7aEQC4wUXLrDgkSgEl+waCs6K70baIEYriU0EolAbCogWNIvDK3FDukLsuYxglqwAB6iSFX9/oigXfh8AF52r/tnbV0JrVnNzcO03fvzCL3+31dmcAOuOKisf/5/l3MdH7tODhZJm7sX8m25HtyBsJ1vbOLRKMlHFBSuisVHlcyp0KGhgG2akE3HL0dec9HhKSGIiBWxkTVjIoghlIm3itJLlKUaybEUSp+BdWYZXMrNYqEYIcD4Gs0iiVX4ha7DhL4bU2bSH7YSVFpsvfPyb/9MjnQuPTYB1h5Th+oX1z/yiv1uZYTNH1KBfnfmhcHbQ28MtCA7b8GKU8tGKkDB+coY4UEQKi9AtTTEMsGWbJlNCIpZt2K4kEoFLVAfMrqGw8EVRZgXiEoXFMQooSeQyK6pORtTAMApDqGIJFHMyq49mlj/ImBTfn0PIsgdisOJfavNcsDpORJg1GzfO/cv3r336X02AdSeU5d/7e6H8fPcXgm609CjqZyCsVLcgMuzot8wt6ISJhldFHU0rUNLIwQjBKgFVCLdP55T3v29EYdKKxMO2Z33jRthEFdYBZcUwuYaFBTSSLF+y0CQbvwikREUqUmImLRYzabGwSSsijsX0R9tKsVghYeKBv1TPaCFLQNiid9OPVus37ObNoA8v3Ksff7TgrVYNAILby7/z05f/41/l5uD1AKw71kvYOf+lxjf+0N+dPaqWp5nXfxSc/oERbkFuJ6iEI9yCERvWuG5Bp70xPq2QNWaScvvtbl3ouFdRcG+x0gIZposvo+19BXsApSilaog5BxGJI43X3K6Rpf5+OJhB2o1EZiUGvkvJZ+DNix5uehMbAGDtpQBDxLBwVleLVJlTrj4+6DcCPXH78V8frr1y5sf/q1ZfurOBdcdKWLKtnSk4cq8eDLQj70V54Ra4BeXFnHk+t6C0ODsEhCF3f4oAIsu4m+00DJu6KG6riktV0jbJmmMIZP45SlEKfN/ouAftDkhNkq0yFUOmRE3sFLfKKwmCVYJJK2KGj5i0KGrSShOsEPcqEjhPVgYTn5Gf4iYkZPGokGXswO77P29n02ouB+LV7CldLTIAhRq7+/3l2VMhaaN75cmX/9d3DFZfngDr4JX2uc+3z33B3108rWlFb7gyHae/77ZxC3rWKwhwU053FV09cIQrKt4gTf6iHKgKq37xsAb/gOJQA1o16Ei99a57M8ZOCFKyfV1WA3M5ECmMuYhJSwmbtOIBEBQyaSW6C5Fk5wqZtMKWLyGSOZVozAomciNBH3R6gtl2crc7JwiBG88EMzSJYfH+QtAbFBx/S/HYmwvy4vXG1pWX//m7upcfnwDrgJUbv/+z/raikp/xCgCOvQ9a9TZzC3I3rj2BVnmCfdIsvnGLFaKMS0ZVokhFid5DpqoAtErQkayBOWgMAMJwW+KCGhWsEpyD2TWUYJVPNmmxhCAJyMxisSgtFjNpsbBJi2LwoqQUGunGLKZkCVl2F1ZPfvdsnhsMGkGEW3lJJTXiFMbcafXMe4uqLk086O2c+1cfbL/82QmwDkxpvfin8ktm8bSmaJJ4dfzDt51bUAg5THRsWmGkGR7JglUcVTQqcDQa5QDFAVaZkRI8gvb1BgBYHVgdSbBSku3rY0SWstsrslSIzOeC0CEvXSqAqJBl92AP5NfMoGmvPB+IV4pO1SOabYq4R6Uyr9z9gWJBknD5sHv+3/yZ9sufmQDrIBQhbnz0H/t7qkaLd6lB7zn6PmgVyS3IX3u3oDNJDfn1izy0QvgKMeUxKxPpeNFYiu4G4ur1gFit6w0v2cBqmE0KmBqLtNqXyFL2WkSWIvbjI1oZHGIgWciCNwGrD27K7bktrn6tI6TQq9pJjRTYFmLPCwD0Kjv7vmJ5JhjLwhpe+OXvuSPlrDsNWM3n/6h39Wl/d/EuzY0SIoCpOPZtYdXPyucWTLRh7YtbUAC2kz8kyS2YZ9rHSFpFBlWaYJWJqiingpGjltylEApTQV/q3GzahgUCulfCSFIkkxbb18hS5TWJLI2ljE5/2QBgiscpuG8vZ82LMPKWn+wMmgGcirNKcUYBYNsi+ZkCaoHOvLdYXQjeGdzsX/jl7+5e+toEWLd1Wf3Ev/C3tQItnJLEq0Pvhl7blVswHsqQ6BbkY7sFHVu7L/BEbE+EXBpHQgNKmEJIGbat+IzCRJEqjC0iELRy2QXWdDBaBBc7FzYBgtmm4SaIgalhNsW1wgMZWSoSU/0kvDDgClnuejxC+huSf9df6u9c9e0DUHSq+5lFBFJyXgMEptLpdxZri2Fm/R/fM1h7ZQKs27R0rzwhz1RYPK0FQdik4MR33GK3IB/PLega2r3MJhH5aAStxlIVE+c/x1PQRKLkkRw4KjkJAdIqVX9o6bWgO22f23AaiPZ5IoUisaNpJqqDF1mKqNkxNdGF93pwlj6khNfPztXhynMd+bypM7ofJqqoibk3vHnmAFNx6h3F6nzALKuzef4XP2x1tybAuh3LmiReKSrNnVCDx7r4KPSp28kt6C9Sj6Q3c/qXHE2ruKqYNE06HuKQLVJRJMrBPcpU1dcKS/NBZFBvvd1bb4OA/jKsjuebU8KRWUo+eGXUUHq+h5hgJQdAxP5SKHor3aSFsHk+VXlHimKYOC+aADRvGNe+1pQfdf2kJr8DCmUlehYp0KrQaijMoTgPpjMFd70rZM8ytq5c+rd/Xp7yMQHWbVGGGxd3nvl9f3fuuKqokh302LfeXm5BN6gdCaarXLP/M2gVHi27yUQam6YT45Rsdy/Up5yq4qwi+wrXvrHsZuRrPu8IR+QTKqDM+JGl8diF1zayNJqnLP6DpyREJJlWw6tf3gllbV9Uy4vBC6BYVVSdos+LadJQ1lA+hEKdFNz1jpDfsH3uC/JiURNg3RZl7dO/4GcIIsLiaS3oFjP3onL4NnILgnuGdrk/5+dRblqFADRSsMqeURjhlL9JxekZ95iC8kIwxpqXtwbbPYDQvQZj0/EPUkglVHYTWZoca/oaRpYiIW91Qn7XVPlr60LvymM7sluwOKvUT2qCo79p97dsRWX1WS15lmKkFOdRnFWLdNc7C4o0wXP9M78oz1SbAOs1LlZ3a+vL/9HfnTmi+inbAeDoB5LdghhrYcH9cgv6qiXGNF3tjlbxK2NUJlJKF6m8QC0prFSrVNzgBqB8SJUH0Y2vXHI2xNYTvo5GxIjFuXMgI0vDclXcmBV5KSU4+Fafay8/2ZRlq8KUMnVGt02x/c1h85LRvGg0zhvEYtIxpRgOSguiOFuosFNvK8j3cPXXfsxsrU6AdVuUra/8qjxbffEuSbwqH8LMfcluQW7lmNUclq2wZ7egk58v3GtTow3HoxWl2k0SJx6OTpiF8DQdCrsUg6OlWXcRF0UnWchqL+80L28BBKMpGs/BN2MFJi12wCNLM+YSpr9RCADZBr/8+a21F9tyTy5MK9P36Gabb704NHuu0NXdMG0j0uUpw9JJlSPQa7UF5fB9uvRS37726//dBFi3QRFi80u/4u/V5pSSZKr0xKu9uAUlVIl8bkF5jhgkZgW0cvpwxnwOjE8rJI+fXE7DXSRNDm61NLfgb1ePqrIla/mxC25MVvMFGDuQzFjk27AObmRp7Den5LcOIgjrbxvn/nS9dTOUE6Y0p0zdpbWvm9svD7kZCF1aiXn6nTyhOpVXAKF+GkxbukerScFZjWc/tv3kb0yA9RqX9vkvDNbO+bvzJ6QsfWoJC4+8Bm7BkJ7IJVHLCiuDGGW6AjKCsxDTCxJy+1Gu3H67SJqMILm7UiwUplzTO9OoejgwBpvd4fXPn3Ot7+ufBzdkESkwaR3AyFJKCqRKUQyDhyUE1l9snf/kutEJZWqvHFa1Ktt8fthbDdWrRXbqPfV09qWNbA31u0A4/qZQ/qzl3/0Ze9CeAOu1LBtf+LfB0y3Q1KFwNAOx28Ut6JyV0MWRZbpKs3Ah226VL/AdeZImU5I9Pprkr7x4ODT2pOnQjUsbmy/cAACrJ9Y/DxCY4sPIZdZtFVkqG+9TI0vJW14s6b2SQBYCMGyZFz+9vvKNhuDhpYZ06m/YraumLFgBKM+q93z7THlWjWuUKaNBqi/OorSgl+jog4FiaDZurv7pP5sA6zUrVnu9IUczHFNDMsHSO24XtyBE2DOYZd1IZlDq+3UsWlFKbmWkoyqLU/5NFOpTWrnit526S5OFv+XHLrSubAGEwYbY+FLE8LSryFJ2CyNLQ2av5MhSElZG9sS4x5BbYuWZnVf+eKW7npAa1DaEvLajc97iA5WzH5rRSizBW5KzTJ0FU+ZOqRUpMmv90//abK5MgPXalM2v/KocFDd3TIpMqZ1CaV74mt1r6RYUgB0OakeKGJXOoGQejTRy5cztt7ukyXINVY4c9WvVEqudkJ6FEFc+9c3uWgtE6F0Tm1+WgKJKJq38kaXKaxRZSh6tuE+npOcY7Aohti+2X/7Y9fUXmxHBKq1U5rW7PzR7+A1VYpTs0iXkWuZLKaB+GsDRN/i5tMDN/uon/vkEWK9N2frqr/rb9QWlUJFE9KW3C9dulcctyG+hWxBctrXnUAZHma7yOxAxbm4/jBONJc3UISpOzwVCFlBeUkvydFzLvvixZ9rLOwDQuSQ2HguZqw5MZClzlwJInfKJIJRUYOdy5+WPLl//6obZs/P05/Ksduo9M2e/ba48p8evmbIRwVm4pnYKaqE8zaaPBN7bzS/9+wM6X+dgA6u//Oxg5SV/d+5YyNwu5h4cxy1o53ILynKWpANmuQUh5P5NCfM2sCvT1e5oFeZgQm6/HEmTA2RFPYbVY6FFieundL0upWqy+KU/+sbOuTWA0L0i1j4DYbmkYMrBiCzlBgkjSfgNYUJwbJ1vvvyxq9ceWzPao6fFqAU2d7Zy97ct3P0dC1PHi6n6P42vG5KC+hkAh+4NBF5u9GTL7wEqB3sRiu0nAh+totLUkmRun38jSNl/t6DPLwhfFst0C3qhD6CsIJ1I16T0xAz5aUWZMdZpEQ9IXIoiUe6LN0OhPqPXp41Wwx9fM/cUtl8emh03pEhwcfXTL/bWWkfefTf1V8TNj9PSB6DWATt0OSIhpE9xsyLY0koWcJecABKWt0iu4W4CBndFDHlXWrTCrXFWV+TuuvYgcBN2z3v3+CvRO9vBIvVW39y+2Nr45o7Zt7IwwkivqsVprTynVxYKlTknKa5IumbC2W6DpEeQUFM7hcb5Yt2sLymtNfd33nzsPxz+zp8DHTCR5SADSwg5qGT6kCL/+GL+DbeHW5ADtpRAJgUWCRHMSe/wsSfxYBynYUrgu0SR1CER1FH9xOnNF78RTJNimL1X33nFMDrB3JON569315rHv/WB0hyJG39Mc4+ierd0PQZhE4UX5BA8DC9yF78JboZia/NQwmo9whvqAiAh7XIvKai8DA/cGqsHPghWvgmY4l5ZQHRu9rYvNBrX2sJOoIxSoOoRTa1QsVasLVQKdd2zfkJK6efBKLJBwsstI38oYk8tpTAVU6exc27hjOYDy9i60n7lc7X7PjgB1qtUOpe+Ymxf83dnDkv6YGEalaO3gVuQQ9hRWGXHNKRSJubMzpoUjRG0IoyY45aFqhRbid+lSuXK0pHu6o3guEIz9xWal4zBdiBG9dZbr/zm12bvP3L47Wc0PI7edZp9K9QqYPsyEZEzQOWfEU6cigQvROElPMAl1/gkothKYiIsWHEIgPdh9cLsCDGltzFoXG3uXGqavWSRStGpelQrzStaSasu1PWSnBIrhidCmE2U2jKrxJ5R/Sx2ztXmFb1MRs89fefp35kA69Ur2098JPgaOgVpgAiYewgQr7VbUAC2tIZzPkhRPiRR+lkYN7FyumCVgSrK0kGqR04MtjdtI0hERwzTZ/T19iASZ7T90s3GudX5N5xYfLOpDtZQv5/qD0h6ChG4yGATEFMDKaYqxmt8ucZNSuzqhoIHghUfuKnWwUMQcW7BFt31XvNqs3G1ZXZTTVRqiVUOq6U5RS2olflasVYKCVOhZSwkGSqXkJWBraRHo1VRWkR/feaYunbOveHGNz564i/9nwdLKzywwBJ85+nf8fdmDqvyCBKzD0oLKedk1v66BYU0wxn5bO1pwYfZpqv8AVkjp+nsAlXJyggpav3U3TvnXpAr+5t2hFZO4TZff+bK5nPXZu8/MvdQq7RwHrV7qHYWTIegYNQSBT+pkEPzeRReIvKbpNVwgEnCF4cQsAew++B9T4gTssXKaBvtG+3Wcqu90uEmz+iehSlWXlIL04qqa9X5WqFW8q6WSaX9FLJiZeou9NenDgXAMlurveXnyscfmQDrlpfu5cet9kYArCOSPliaR3kJoWTtOdZtTuTU7t2C3BME0qxCibv5QbYfGR0S1cBUxTCbUxHBEIXpmdLCUn9jzXu/oC2tCUqK93NK2Np8YXnzheXSQm32vgsz9x5VZ05S5RQKC24MFHg0sNL5pOwFpX1xLG75cmxY3AAfwB7A7oEbrtgVrNJMg2a/u9bprLQ7Kx2zN8LfpxSoNKeUFlSlQGpBq87Vi/Wy8z1FVJjyftVkIUv+mmkNErGVrrBXTwCPl2eYqpNluCd2zn1+AqxXozSe+6PgOxSoMs2C5+WIV+O6BUPJ2nm6W1DkcAv6yqDXZULiFWJ0QJQ1qSEO2Lf8M9hFbj+k+DSTB0z9xFmj1bSHAwC9NUsWr+qndK3M2svmcCcandTfaN/YeOXmY+fKh6ZqJ+bqpw6Vj56EPkvaFKlloZRBamDnCsEryeIuE40PYQ/Ah7CHHqeGXhvv3gQN24PBVq+70eltdHsbPW6Ojp9iKhVnleKs4sRwFKrlymxNrxS8KxMgiCCislKGkEXhuNCRDdJeJDJNiygtoL9enVMaK665rSut2DIB1i0szecDYE0tKPKTEtP33Eq3IB/lFnQWwhHji1fIrQzumVaUFsoQ52Ni4E9SvEV89CjK9Jn7tl56VnDRlSb0FqaLlSWdW+bM3brZ5Z1la9iMQkEI0V1pdFcaq49fVIpPlBfr5YV6ebFWWqjrU3WwIpguhWs5opP/UrHdBWm4CWG5f4UlLa4FR5ISnBud4bDRHzb7g51+f6s32Olxi+fshEqBCtNKcUbRawwEYqw0XS3P1lVNDS8zEYNOmpCVyK9d6X/Jj6Z6FP31Yo3gzcyxWmsTYN3yYmxf6y8/5+/WFyV9UK+jNP9augWdv9JgHiVe5bZq0chcS7vIP4NxcvshJUortUarTlWPnNz4xgVZvDr6ngdrJ+b6GyvdtRtAf+Ze3erz7qo12LJFEivsgdm+ttW+tuVxkBXqJb1W1OslvVZUCqpS0NSiqhRVxSOForsb3LQEF9y0BIdtWGZ3aHSGRntgtAdGe2i0BjnnygTfkEGvMX1KKUwratH9vnq5WJqpF2sVz34teRKlcK0kISuMM9lilQiyiOl9LFoBKB0C4N82ALM9AdatL01JHySG+oKkD07f85q6BUXgcc8Wr1KphITG0V1K6qz7ni0rDVWjorHCzarHTl77zAX/YHGuVj+9CKB86Gj50FGjudNbXxnsbE6dZvUT6G9bgy3baGXJOMLmg53uYKf7qvU3UqBXFb3OtCrTqsz/eRRdK9arpZm6qmvh5VEzqZSAnjxCVuKhMUtpEYC8tP1EwnpVgCXpg9VZJVjLCxD1U6+dW9C33EdSIyErrDxjl8ZKRpoIk8xwh7y0SkQVxSCVPH76mx2jFdiqF998Wj5Hn5rR6zPctgbbG4OtdVIa5QWVW2LY5EbTHjZ4NIfBq0MoBrXEtArTqkyrMLUU+mqKrhWnasV6VSsVJSN92K6UICuNFLLidaPiG0S6nJUYd6IUoWhqIVDATclzNQHWLSnCMtqvfN7fnXJWjiSvo9WOxtyCKbLVvrsF3b/ItF7FhndW7DvGVgaBJCkspSWNCnwfiapkToVqtl++IQ11dfrsYc+7x2Fb4BwQDKI8M1eeW+S2PWhsDRvbSmGnNGcDsHrc6HKrK8wut3pc3Ap8EdQiKUWmlUgtM7XE1CLF0a+Xy4V6pVCtqMVCSJhKdt6NKWQl4ikKtKQGaV8pdcSXFW0oDSeOA1UOHrC6V5/iZt/frUnLRqJyBKQGM3KQOO05j1uQj+8W9AWuccUrjDHHEJlr3u3GgYj03H7p0VjjZL9sXQqUjul7jjBVAQAhYNtBqIFbY7nkml8UxMx2c9jYNloNtdJxACEE7KGwB9weCvefKYQluA1uiTyWaaaRopNSIKVAik5KkdQiU3RKvn0irVzSyxW9UtKrFWIUcCrNi5c8wTBcn4yejPiGDNN7fq3Qf3bKgRvyBxtYnfNfDO6+QMWqZMCqHd8ntyDP5RaMLIyKXYtX8foUlBByTL7ZNa3yRGNhxDSdsAI72O4Mm70AWGcPu59lc8CfqSdCTlUhYFkEoZcrem0KRMKyzW7b7LbNbsvsde1BP7FjCBsCIsjiI1weOkkZGKPRo5tILRa1UkkrFdVSSSuXiEhS+lInPKfM9UsWsiTW5RGysk3vOSYSRtowdRe2rwmwdl/a5z7vb9dmFXl4iMqRV3dtQVk95CmESosA2EOgw24m8eTMP4N0pyHS816msqBzPUi6pOhq9di8F3/gpEDwBl4iubgAN0Agpur1Kb0+7T5lbluDnj3o24O+NRxwY2AbBjdNDpNAyCNAECmqxnSNqZqiaUqhoBYLaqGgaBrI44JIi0vIGUuVx+uH0WwabXofv7wGVsHXK7AEtzoXHvN3q7NS9ySG8tJr4Rb06sOjOvbmywzI3JNVKzOz+xi0SokdTUVVnFPR/d5aw9+uHJ1zF9fz78TFk0wuKXuB/7m2DdsCkZMMi5iilataueq1DEYht0xhW9yyIITg/gRpAYAURoyRwhhTiLFg4IZSJiAyF8e7WzlMAcnCVF4hK256j/+Ge4y9ynwowvLD3AGwQnUCrFtYelee4sPAn12dk/TB4ryb0uhVdQt66+UkDNeUzLYJ8BqZQzKnMjiOVQsjc/vF7iEZVZQxSELAOjQjfZYvv4gYuUQyuRyzFxxyMWkBG4c7BAimalBVpRCTj2Iho8GhqGZH40tVmXP9RkwGzEgdk0crzH5fJLw2BTfNgbSAWH1pAqxbWNrnvxDcumzAAlBeeC3cgiIYdXI3GZnWNo94lQbBtHj3hLYZqbVGGrZS7j8VVdFAB8H5sBm8XUqLU94kPuYNRUm6Ccglp4iKoM1rY3M3R76bO9Rf4VUkZNdDmhJG0fxWyeFRuS1WI92FUoOU+IZRPsS9a4X20BoGZ6mVuQmwbmHpXXnK367OhA1YxbkcbsEYp/bkFhShwKsR5vb84lV27HumDzHh9MTm4zoNM1CVmozUaPblOPLibM2b4ucZsODJDuQbsCQTUgK5YnQTCGZRO6eT9AVDjjxJyIoIXO4f/04ioJF5lCb1ZM71G0vIQs6NeKEcNTa4IUtYam1hAqxbCaxrX/e3y1PhPD6l2RxuQR6dEZ3kFkRet6AcuTcymgFJCWHSnYaj0ZYOsjFm6mTkn0HuTKSJYwNGK/APksL0WtmjFQtIRClaYZRcMbpFyAXvFAHJBxKxUvnbHkuSc37GbWoIVjySP4hyClnhRzq2WzARUxGtMJ/nz2iC0JcmEhSX7pkA61YVu98cbl5KAJY7i3Bqv9yCIpdb0B9vY4lX6Q3kDUo5kTLSNmA/8s8gJdENdpE02ewZ/rZWLgQf7WQiFhFDVZrTMD+5ECJXsIsgYMLbJu+QAMWsZvI9IGTwAhcRrsnPhvKHVoWPp5VEukXltdyFCIMtAINmAKzS0TdMgHWrSi+cCiMkYalFME1K4n7r3YLBazyzw6VWxWcUjileJe/uJf8McuX2Q55oLABk9QNgqZWidzUFYGF5Kq7uZYY7pJFLxFGVj1wk3KoscolAxpKPSrft6b/CF7tIvoe8oVX7oQymLPklButmX8hewuKRByfAumXAuhYASy+RogXShyjUX1W3YDAAonBJNrcngymncxBjWLUo3ba199x+I1EV/nRuBill3AB3t40igSkc2bA7cmXLZRFUJZLLWaJnl+SSLP2+UCYQXErIgnJGfENOrTCMubFKf7UnpdUHsdLh+yfAulVFTjZWngoHCKqVV90tyIOklyP1QeSk2CiWjYjYTA9TuEW5/ZI45TcQdiCBKrrmncUkozvC5PLzfI5Jrqw2+cglmcNi5IpJVXnJJYOPhJdzxvu18rFmtFYYPyXF+m4PMdzyV80BUD7xpkkc1i0s/eVnJWCFDVhaOZRZ9Ja6BYUY1dvGsl6n9bZ84hUyokxzTOJBjtx+o79L8jciJdDZhbyMlR+CIGRtDlnkSggxHZdcSBWyRpMLKeSS7jOZXN5XjpALADjBc+MA+bTCPIBL9xX2bgCiLQGreva9B4tWBwlYglvDjYv+brEWdhEqhcAtGLVh2TFD+97cgs5fliANUVYQZdp+7rXIc8W+Y0SIQ4LdKo1We0iaHNvmpuWe5SwKHwETkKQhjmyA1OD4fSaXKzQlkUukkEsysSWTiwkAQgHZnucHo7TCxLk7uUdQ91q/wc1+wL6ph79rAqxbVYzNK8IO0ioVKxQaR0zN5xbkY7sFEeZUaCDtKg4gCg6MDtqikRpixFieyaBUeOXIlpUdjRW+vFIq+NvWwAxAQCwJTGFSjNvgFpErrFSOQ664bhgnlyPBKSAFwoZIWeEiNRJi9LsxqOEWejcay4FVUSnWa3dPJKxbVgarLwcPgaCXJXUDAKm3yi0osyxAWMabLU90exqYsFvxCuELjj9TZx8ykUbvWStLwOr0g8dFaUb3NDBFoh8yG6RN68mjUSaY5OUwsQi5XN6kk8upyEkuAjEIC9zKxaZsM1a89K6DWzvXAmBNvfF7SS1MgHXLgLV+zt/WyyxqaWH0argFg0nOOfXBPL62UUFbtE8JHvJndEAepyFGzSgkrVYOgDUw7KGlFDQI21sRPtHojv0mV8akRaTKZREhC9gtuZBMLiHdeUAuAilgCvjQvU72+vXjzMsRrQvNFVvWB+fe+dcOHK0OFLBWX/G3i5XY8BDi1XALuv2YITROR1qjIyM6Q0lMOyfTqzjaqpWp/e1bJtLobnG2Lu/2NxvVYwveIh2q9AJIk7OkbUG7b4AxJy2KdFRFyRUALoVckRM9ckUCJmRykQYw8L7Eo+yQ95GdBxhuw9jZvBCExelzJ+sHbZH6Awas4VogYRUqLPpcxK13CwaxiKl9JF9MQ7z5WFpkdlfNmGOIBNiNkLby5PZDWnpCpahrtbLZdifo9FZ2qscWAQAWSA9xikR4qpMIT9yBFMtOu2qQGRyfZ7p1lFyREPwouURIUksiV1S+k8jFFFAZdh+ww1OsaXfrUIjWud4276wH/sGF9/3tg7VCvV8OzE0Pt66EgOWHjDr/2cOoDWvf3YKB+/kW6IOjU9Ag3Xo1ymmYMYmH9kgryfMQpEwISuVIkAygfW3dbc+H0pKCzE0J6tQwuUZx/7lHmdfe+aA8DVi4gZd+1G/vzBMK3YNXL+8mnuvuUugspxkpBEYgIoq1JOniFN6Vj6pQyiOmE+SM5zK2MVhffTHI484KlYX3/s2DSCscIAnLbN70t/VSTJmyh5Jb0M7lFkzQB9Pdgs4hNpatPbGzjRNfSuNMRcyjMEZuLyumITtbFnJGY1UOzzVeue5sd5bX7aGpFDTPHcbSg7AQlrliUw6BsEiV0SBl0uI+TrcGMmSu0KRFRAQ6xCYtyvKdArUMq+v9qhnBDUh/BEI0X+5s2O21wNy++P6/q5RnJsC6hcVqbwhLmklbiDnR7cHYbsGAX7KEFXMLJkQnImWeCmKVOSmGGJjSFUDKvoH0OYbIMF1hxIJgI3L7Ic2hPthuB0PH5s0LN2YfPA0AvAelHsJKmj5IyCJXwpzEcRvgtpxu7UisBTDTtcEHv2oYUiJrRVXRuSrMzo1nBn4NK1SWvv1nDiitDgywZPEKgFaMPSKze6vcgsJfvIty263kvV2EjMeuksurmCaX5czogBSW5c/t5x2QKjrL6/KX2Xz2wtxDpwHA7gp1yht+iR7DfORKPoVSpv7g4E23VsrgRlLSZArl80p8c5hNdK9vnDMGrcB6deg7/oFanZ8A69YWoxEAi5i0dK0/O83q3EK3oNtBWRQHiANn7yb53QVtZX86pQNu7wuCebcbU1rN7mAoSVgAeqvb3RtblaPzgCC7I9SpEEdyxTrEyZUBJuyqQQ5yvWrTrYnACuCDMKRkahGE5Q1k6RlYPdG5OOzwtRcD8UqfOb70bf/DwaUVDorR3dy57m+7+qD0chEKYPZgD2+JW9DtcEouACVammjX+mAe8Qo5xCukLiKNvdOKiOQcFYEc2rm+Hv+SNx97zhtRLQBhu7tkhifJpi5b5UMmdpZkdJcvSDGDev4Gvv3bv4fApp7UJmp39wztibshQz6BETHXQu/8gLINXinGXw+hDTetrjxgWqJzkVvW1a92uB0w7vgP/xLTywcaWAdFJVwNgFVkoWfnIJcEjAYKM/vsFoyGMiBp2KejJOGUnEFbGVdLhA6yxKvUjA5j5SlFXFKjzGisRGB1ltebF29OnTkKgMxtoS9mSUDZUVpxuSxV5hIHZLp10tQfpQAzLFvFre32ANwE0wCAG8I2ALH8VK/fCEBGTNVnjh1oWuGgSFhWN1jeTgtPJxDM+9vfTAi/8pS7XboFIQMrmUQ0tu18zFitZO4gh1cxT0YHJJArWU8M/QhhqcrfkKMc0LqykvhNlj/7NLcsEGB3YfeSpKqRsQ4pQlNc5oqeQuEAiPwNIhEJeWQuZXyZi3kyFxEx8m/AIRFl9hZhwerB6oKbADYvDHauGqHj3Dr/S985XL8wAdYtL3a/GdyxGhYxmPfs+uvhtSd8+1SaWzDR0B4zuhNLQARypWVIPeXVCNpKapBmj49wbVS2LAroFt6QorH6G02jFSyZU5gJdGqj1V3+3DPOWCVrE7Dz6oMsxrI0fTAZfxEw0ShyUQq5WCq5Eug2JrnCoWEOuUBqatdJSqnYXjVvPtNLePF3Ns//m++UX/8TYN0aYPUa/raipox8YWKwNY5bkIf+xt2CQTBxPlP6iFAp7EEfzJGCZoR4hawph5QO0wRaRU6XUCWd3Lx4Q37HTJ/V1VLQ2baeu7Dz8lUAEJyGq946g0mWrASpyiGXMopcowQ395REMOVpkEQuOcR0XHIFUakxciVEpad2xX7DuvrVtpwtXi0Gpw/XL1z6lR8S3JoA61YCS5KwFE16OtLtCwK61/fNLehsp3UUyiQRpZ2CLN6NmGYxFsWSGlC8XkbS6HAHTw2kqI5JFFcMmxeX/ZOLcwUiTN2lyZ977U+/1l9vOIHvNFhJlaGy9cFsco1nyI/pd4kNktXSzOD4PBplciw+BVeOPN8UYX/YsS99vmWb0iTnuwr3fltVzm7Sfvmzy797UEOxDiCwJAlLhKEhzC6G2/vjFvRpRXlokh9Auw7ayoc1YGzxKkqoZMWQEqfpUEQrdI+avUFvJdA7KkenAWgVVj3qv23ALfvi731u2GgDBLtLxvoIGSpbH2SZtq2cgtsIMCkpc4Pi83XSyMVGa5SJ5BJWjk5AZo9f+nzTGgaZqatL6tE3l9UiO/3eiqIFZ61/5hd3vv57E2C9KsDSpDlUMZFCdK6CW3t1CzqGdho535go26o1woCVG227mSM9UrwaldEhlVaUqnV6izA3zl0LrspY/dQRd/wcUQvTgTHL7PYv/u7nXFOX2aDhOpg6WobKlqqYMirWIachPxtM2Q0ohVzjaJTypfhwlG8aZs++8Lkdoxu4BYtTyql31ZxHV6yzE28PBTRc/S9/w9i6OgHWqwCs9DcNAdwU3Wt7dQuKJM8g5Ta05zVgJZ1CuR2LYwdtZddnZHbPzu1HAaq8K2y/eNm/9dqpw8W5RX93+oyuSurJsNE+95FPDhsdEMHcpsFNiS+jZCi2uygtZQ/TrdlrMN3aHnhG1dQuN+zYFz69Y3QCWulV5a731SSpiuqH1UMPBi52u9e4/B//SvjKE2DtU5FthJQ84KViNERvNWZKz+0WjJqu8nGKMCoCC+PxLr8+SKPiJFLFq0h98rRnGhXiEL4BGu60eiub/qVnHzyjTc2T4vq5SMHMPboiRf+and753/yU0XSYtUP9awCB1FHkyq0Pjo51yOmC9IM5d9EgMcQ0Qq5kuUwYO5mTt9BvmBc/s230AlopOp16V1UrKpE+s3RfoboYSLidC49tfOH/mgDrFt+xmjyxNzRUhxvorwW+wpFuwVDkIY3gC2VSZLwILOSY8JwJo7wkzBSv0oKzkmmF0G4sxGHrhUvSyNGm7j5OjBVml+ThVAiv0mZ2ehd++zNmuwci2G3qXYSwvDGfTq5x9cG4A3GXhvxMcqU1yAqOZ6mmd7MVm/wc2m6vDC98etvsyyuq0ex9BdknK59x4q1lVXpbLP/+PzhYiuHBABY3B9IYyjNgCcY2esvgVi63oK8SUjabRpZR4tgIm1d2uuS96IPIEq/iCAumMY/MRBqxu4udbwbAmr73FFNVgIoLx/3Kzk2rtx51qw8b7XMf+cRwpwMAfEDdc7C7YdCoYfpkylC7j9JSRpArIbiBMu1laQ1GTeshBj4Uw83UXkjYeKVz6Qvb3Ap8gkqBZu8rKEUKzyULrqCV6OgjxWBkDbvLv3uQZhceEJXQGiZUjqSJ3UdvGWYnt1twPAxRXvokXYpGXj/7lDyMy2fVSlEGoyH82cmzXKchmhdvyPGisw/e5YCsOHfU0Qq7K1ZnOXl5GKPVPfeRP+2tbjtDiboXqX8jrG355FLTyTWOPjg6SiunC5Lt/6RFYYr+jYSMVwQA3MLVL2/f/HpLPq6W2Oz9BaVIxEjVUme/Th9Xp44Ec/J2vv577Vc+NwHWLS45ZR/BYWxjuA6rn+4W5OGF4fb4wbQPldlxXqMvuGvxCglEG73Ejt+ANp5+yb9EcW6qeuKwezlFLS2eGGzZ7eshWpUXVUUPPtrqDc7/xicar1xzP8XYoM5LsHspcQmJ5FJGkGuXsQ57nG6tjEcueyi616JTmr1nNGiZ5z+x3rjal4/pdTb3gO78mLofKUoM+iwqx6l2hqp3oTDrVB99U4FJQFv+nZ+GGHPV+wmwxkKVGIGO8Epc3ILZxHAbVgf2EMIEt9wllYTpdovsNP6jxaX8Fvdd2LyQeQrluwCNICOlKIMj8894DQabjfbVYP7gwlse8AMdQARltnEpNLutdrxUP6XN3leQmcUt+/LHvnjj818XXIAI9oA6r9Bg2R1+yTbyMLmyZagMfTAr1kHZ5aTFsRswmDuie9WjVVi+Fth4uX3+T9cHzRD3SwvqzL0FUtzGpZoW0Eotg6lgGrQ61e+m2TeC6VqJFu/V/dN717/RePajE2DdkiIFjo5rYeLgBuw+rD74ANyAsJKSzO5ByKJxz9qFzWvXQVtx+I4MgIhVJs+RdnfXJfFKKeizD531d63e4Ponn5Z/7MVHHzz9579HrUwpRZp7sKCVQ11x/clvnv8NL9wBwHCdWs/B2AJz2JRJLqbmkqH2d7r12LOpkyYtChvdq+ivJHbLYcu88Mm1m083ZKMVEaZOa1OnNf+pqhorlFQAUMoJUzX0aZp/B5TSwj26KiXCvPnRf3IghKyDByzbkpY8yiKE2CV6sq1LNC6GdmFxT7rUrQ7aokg+woyFLZKzZZmd/s6LF/2LzL3hHqZpLs4ErvzXL5qdYDru9L2njn7rW5VCZf7NHyrMHWYazd5fkGNKAXRvbrz8n/9o67kL7ucKk3qXqfUczAZIGUUuJZlcbEx98FWabq0ABGMT7XOw2vFHyW2x+lzjlT9e6W6GjLmKTrMPFEoLoSRR1VkdBBADS0kepZZp/u1MZYfuD2Ia+zdfaH3zkxNg7U8h+acXkRGeQiWRnjqWcsNr1w2yP2K0xX2PQap5GJe8QamTqJFCK1fCWv3qs9yyvefFFh59wD9n4+mX2leCudDlpbmT3/0+x7pMqjb78LdUT97vxGdVj4TGGDesa5/42vnf+tRwp+1+nN2nzivUep7MHY8pEXJFbORxcqXIUNn64C4nLeabTW000HoZ/ZsQdtxisHO58/JHl9eeawge6tLFGWXuoYJWCQ3hQkUtlB19MDPVnT5D0w/NntI0aT2XtU//wu2PgoORwI8VKn6wuy2lJPOy5aYVMZ5tKNIg07pEY6Sa2YXFPb0l5akcU2umHCtZZKSmIRit3tazwcKRc2+4R6/XnINGq3Pzi0/5h5SCdurPfStTVXnZtNpdb9SnFhvf/Gr1GLQaa140Za2nc23tpV/9o8VH7z/0joeYpoAAq4v2y6SUUToCfUG4njVI4SnxZMrk1fARy/NkL5KYP7X8yIzPsDHcxGAV9jBx/ZvWcm/12a3+thEdDirVT2nF2agfUNFYfcELWUjOkSuVqfupc3n+jLnygnv91jc/Ody8VJi/67ZGwYEAVoKERd5s29S1IZBv2gHt753uqnkKvGgczEU3xwrayjhLJlpS6lECQKuPPSM49x4WW3rXG/0PXf7017gZRF0d/473FKbr8RwPhbnD82/9sD41X5hS5h+OqofC5muPv/jN//CxzWfPe0+VYPfQOS+2n0TvKnGDQqKNmh5Qqnhy2SgZ6tZNt7aH6N9A43n0riXGhbZv9s7/yY3Ln1uJ06o0p8y/oeDQyjaE2eU+rWYOlRnzH82ooU2M5t40d1qV3YVbX/nV2xwFB0TCKlbhZR0LclQTQcCdqCyQskabGMdGvnebV+xA1kfsTRncxdzGUUFblJanNGE3OGmw1dh+Ichj6YpXAIDujfXmuSCQeursiZkHzgSPxl2OwZV6lGJ57k0f7C6fa196buYe6m/Y7eshUcvs9q9/6sn1J19aevsDs/efJsXBnin610X/OrQpKiyhMA+mCCGkRMKSzBWZ0pAgcyXJUNmLJI5eFMO7iD2EsYXBOqwOgPjygkKIxuXW2os7g52EwEOtwmrHNb3OAJhd3r1pDXZsAFqVHXm0OrVY8izsInsqT1Cqdynlp6aOGDvX3TfK9uP/z5Hv/acTYO21kOTskMQmclcNyWBWPHg992eOQtJI9IyDwl1GmWYbsHY91ydRvEJa/pnlTz8hPMWcqcrSu97kt7/5hSf9yzBVOf4d75ESmRMAWENh9MAtgEMAilJZOl6YO9R8+UlgszDNWtfMwVYoHGnY6Fz7xBMrjz238JZ75x8+oxQ1d8ybDWE20DkHfZb0+Ri5eIgjcXL5DTJIlL1IYlpqeasDYwvDLVgdTxmMZmW3+tbW+cbmKw2zl5BaT9GpekwrTDOzKzrL5mDbtgYSxztcIZWYd81ky2PiO49h6v6Zk4/7wBpuXjK2rupzJyfA2lNhxbq/LUlYDIK7f93OFM/OL6deuGW4CbWiUdfYx9DTxM/NnqiYKvdRrnXDotN3Gq9clQ3qS+98RK9X3NSXa1uda0FY1vyjD2n1igsNx9Jj9mAOIDiIIBhIgNvC7ijA7P2PDhpbrQvfmD5D5hJvXTV93ccdpd3BzS8+u/qVF6bvPb7wyN2lpRnvgXMMN8RwA21ArZM+C30GWl0IFszHSiQXYg0ySJQtVUHA6sJswNiB2QQ30iytwhbtm53ti83mtXbEph7q/xp1ls3mpdQGWpGN7i1EcXJR/Z7q/FNOQIVTOhe+NDsB1h6LUqj625YpDVFHsHKZ5YjuMWY5UNsPIu0P6fYSNkGZ90DjfoVR07yRmD8+qLeH5vKnv+bX6VO1xbe/0Wfi+tMvSENOPfTON0m4FLBMWKbrNRMc5Mz0JHfXNorVavHNH2jfuNS9eXHuQTbYttvXTXsYerjcsrdfvLL94pXiXH3m/pMz953Qa6VgfVZH5uoKgEGbJn0aak2oVTA9hVzOxTPQlkIudwGIDqwWzBbMjhvi50v94V4puGivdBqXGs2rLdscbWmNwDr0nBRaerBanNbGiKKSqVWYpeJ0ZWbQ2bQ9YD02+/a/MgHW3u6yOudve+lfCcQgAOIQvj0rkVkCgo92muTh0dhxoa9VA8pET/YpI430QYMbn3lcjq469qF3MlVxWnLLarwUzIKee8N9SrHgjX8AEJYBYh4UFIA7+czcN5A7Nd2qHTlROXyyefEFYK04o/S37e5Ny+pHB/Bgq7Xy2PMrjz1fOTI3debI1JnDhZlqwAnBYWwJY9OFCNOg1aBUoRTBilB0UAFMyySXM4XeBDfBB7AG4APYA9g9WF3YfQBB2o8UdlhDq32j3V5uN6+1bMPe46BQNDZzurRwf1UvK1ENI48Ny3d6VE9V5td9YLXPf/G2RsEBAVawuLZlON1BuJPgXWYxl1yJzBIcri9kLPkIu2xMY7UY6SLMb3EfeQOp/kEauTxPaIMANC9c23r+vH+F+pkTU3ef9E9pXVyWnYPzb34gdAXbDlbSdsUr5i0OyANFXnBAMPCZux+2jPtbl54HbZXmlGHD7q5aRitB7uje3Ore3Lr5pecL09XaicXq8fnq8Xm1qHvdgQABbmC4CbEZsMlNK+SHdHlWdse4xjmE4S3FhISURAkrBbqfJmzR3+q1llvt5VZ3o4s9B5PrFbV6qFA/XKwfLZKCdHdT3s5KlWOVuacBd67PYPVle9BWirUJsHZflMqsDCy3h4GBOEAerTKYlVvI2p8gh3xYpD1eOX8l7eE7JydKNdu9ax//UvCACvqJD79HBlzzQuAcLC7MFhdm/UcBCGHbIAoJVq5I5YVTkf/IXOlGVWn2wbeZvW776kvARmFasQeit271N23Zk+iXYaMzbHQ2n7sEoDhbKy9Nlw/NlBenirNVpinuuvAhQdyh0jBEsWCR1LBHL9lgCgBm1xjs9PvbvcF2r7/dH+z0M4xT7iAsUmFaEYCwBAQxVVE0VXDBFGIqMZW0kqqWWaGmlaY1d96lkCXBvZXSUmlGXs1F9G88Vz3z7gmw9nCX5QBY0oog/iIRPq1I9hGH3nvchqLsE6hGRo3u+lMSVbnMxtlhE5QJoFxBW/E9Epxf/tjnrX7gej/2be9yDepe6+5ysFj39H13hS7lGt1ZTLBy/rKwtYh5Vm0Oa6jp2txD7zS77e6NC/2NG7UTVD2uDRv2YNMeNuw0M85guz3Ybm+/dN3Z1Wul4lytMF3Ra0W9VtKqRa2sKyWNKSzld45el5u21TfNnmF2h2Z3aHaMYXtgNAfD1oBbeZMOK0UqzSrFWUUtMyIq1EqlqUqhUnSxERXiEJbs9tjTpFKYVQuqViKz7165f/0bE2Dt7S4lG5Zlek8kUAnhvZwdv6EPK5lZAsIGqfscKLr7bnPrSJe/wS6DtpY//Xh3ec0/Yeb+u2YfvlvWFq3+cLgdpOGvHjsc+izXDZIoWPnilYgZ412xQgzaakGfvvfR2ukHe6tX+qtXaaZfnFG4LYYNPtyxh01bZBqIjHbfaPfj9UxT1KJGCmOqouiq220cQlm2sIVtWNzi9tAcKTRlFK3CCtOsMK04s2r0crE0XS3Wym5cwrgzkFOU0RxxLVJTrVqa6pp991frXf/G7YuCAwEsWSW0Den5OO4/Pzg0iHLwn6XELG5DyfN9R87LyQOFsWxe+wGvvOv3YJQBK7FlsLHx9Zc2n3nZb1GYqR//8Hsjk3j6axvy1StHD0nhV3AjDByNLBCvmPcgueShk43xkqhlm8JuKlqxdvL+2ol7hzvrvdWrw+3V0hyV5hQhYLS40bKNFs/wr8ULN23D3KstPLEwjQpTrDCl6FPMWbpcLxcL9UqxVlE0JVHrJIIQNI7SRympR2h0b1QrpSnWWnW/+2Dt3ARYeypa/ZC/bRnCNW4IEcxHD561/zaOM0tAWCMmhe6CFPt84lg2r/EFq7GzTYT2GueuLn/6cWkcqqe//9uUoi7TCkB/fUci2hQrSIvfuv43xX1SfmbqqGA12hgvjD5sg7RSYWaxMLMobHOwtdrfvGnsbBSmUJhiALglzC43O9zsCLPLE61dt6IoRdJKTC2TWmZamTmLbhCjQrVSqFUKtbKrfop9skPtsRMqBV2aRG3uXJ8Aa293WVuUdy1DaCVKWJk5JGolMYtb4Zwbe9YPb62CuSvS0a6vNsLm1b62cuVjX5B1lpPf84HSwmw8BaDRaPltinIDOCIV8+blRKxXvmAVk7YCndGJe/CM8ZyLQQeqTlqBFLW4cLS4cFRwy2hsDnfWhzsbGPQKU4q/5gU3hdUXVp9bA2EPnX98LytdkUKKDkVnTCe1SEqR1AIpReZ3TCLSyiW9WtErJa1UIKKQTSr4kceUpAJT4Li8o0S+ymkbjJ3lCbD2VPSZY/KuORBaiUgI4Tr+5AgGj2IJzHL6rAWmvbooSdPXbllcxe6s+6Hj0cr21ZVLv/dpIeXKOPL+t07fcyoxaMtoBUmdtEpo/U4I5oVf+TxCkmA1SmeMaogmaQXnbURMKcwsFmYWANhG32hsma0do92w+h2mQdfImY4X3JENbgpuCW4JbgMc3HaWtZQyGSkgAilEDEwhUsFUYholhiQrBV0rlbRSUSuXtFIxBVKvYYkriaRKSV+FbU6AtafC9DIrVPjQXd3AcsKdOQcpbj8IVoNmQWh7lFmQhKx9FI3o1b7SPtu8RtZS88L1Kx/7gp/uCsDCow8uveONoVOku7IHHWkoKDE+sjCeJHJFzVhKus4YM8YbAzAGVZdi7oSiF0sLR0oLR5xYCqvbMnttq9e1B12r37WHAwCkQFFI2e1zVPSCWiwoBV0tFNRCQSsVSWGeTUrsUxpPugWk85OdAILbkrLM9PIEWHst2tSR4bobpmg6Mz+55absgOQW9FVChJ2G8gRpboIV8qZqeJW8irfAQDbC5pU3Kdjms+euf/Jr8sCbfejssQ+9M+lSrkrIjWEyYYXwUrLI4oakGLokgiReJRrjpUpZ1BICRt/FVizsjhjTatNabUoKSee2MeDG0DaG3Bhy2xK2JWyb25YsSxKBmEKKQowRI6ZqiqYxVVE0jam+MzEcurVr5tCrL4QRILgkVLFCZQKsvRZ9OgDWsMcBwDbBFPgGCCGCgAZ42AqYJSV14DYo/2SdsbgxUtW67aiX7iKE4OLmF55af+oluXLmgTMnvutb3I9LOU+IIIuTPTTkDxOCeRaoiA4IkG9Qlwxbrt2KMnVGWfJi4ALGAERQNChKFgOIFL2o6AUN8TBRWYlLqgzFSWVQ59Un0PjdQNhhCWsCrD2XwuLd7XNfcIHV4c6vDAGPWbIZK8IseYK0N+WKm2DK7fpdR83LuWXwkovZ6V/5oy91rq/JlfNvuu/4t787KfFfIGTZgzZTAju23RvIz8NNd5eFJ8SM8ZRqjA90xrAx3gGKNYQFKCqYEtKjsxgiHSN61ddl2C/Sjfn0bUOOFlLLMxNg7bUUl+71t4ddyYKuFsAAHpntHB4jxGNJHbgbR/q6KGPbvJoXb1z7k6/IsewADr/3zYfe9cjIK5udhr/eFCISFghMgWA58LQfxngoEBy2BcsEIy9NKN3Wz+o1eej2wOhJwKovTYC111JYulsCFve6qAkqu5aRSBFeGhOkJHWwTahqjof9OunfbrH6wxufe3r7m5flSqYqJ77z3VKy0PQfjWD3mrLwavX6UmScABQvYV4insKQChnjIeVOiBjjZZ0xbIwn5jKOc8CG4/9iDCAwtq/wotvDA7grclmdoRRhq8+emABrr6W4GABLcBh9oZeJrKEoKmACPMIq/38B4slJHcBjYVmv6yKE2Hruws0vPWsPQnnE9anq6e/7QPnwfM7r2MM+04JBYrY77jQRVzJSUmWoCL+ixviwtSskWNEIY7wfZ+8E2XMOwWHDNWsScxF2B5espQ9sWH2jG9C2uHTPBFh7LYWFs/K0m0Gb62UFVo9IEU5HTQv/c1CVmNSBG68WsG73wdC8eOPml54bbDUj9dP3njzx4XcphUL+S/Fhzwns9vhlWL2+WvY85aS6TEkNaLhlxng/CYSfJhCOMcGCLdyco+6aEXcovBJXxhtsCi5cu/AEWPv2U6t68dB9g5VvOru9Bq8vKbCG8HNZJzBLErWSkzo4IQ76rb99cXsySwjRvHBj9WvflCfTOEUpaMc+9PbZB+8a986FbSnF0CmDja3qyZL3IBWXLAmQ8kGDqPTkW7tC1quIYIUknVHOCCgk+UtKEwgKWnLLxRzzF22+I+FFwfcarPZ2bDncv3TsjRNg7UOpnHyLBCwb0AABawCtTBwC8noTIpZ0NCWpAzdB2r53Sm6L619ebl1vaWWtNFcqzZXKc+XSXFkparfJj2l2+jsvXdt89qLR6saPztx38ui3vjUcpD4Gc5lCTCfuOZ56N9erJ44FwCLmrRjKAwbFZahEPDnNotauSEBpUgBXkGML3pxq+Sy42mIgiDlmLwtCuAZ7ojsNXkQAie713naAK62+NLFh7U8pn3x062v/xQOW9xNbPeg1kCAnCwD3RxfCgy08QVpO6sANsGKsPe1ioPpl5+LOzsUdALZhDxoDZxuAXtVLc+XiTKk4XSrOlgvTRaa8CtEVwVfgptW4sLLz0rX2tfVEn31pYeboB95cO3l4/G/tKHrglgFAq7ChlwW4u3wTeFMwSBw9DnYCg5AHT4nWLkmwStYZpYyAsjFeThPoIkySuXxxjFvuVB0iIgZGSV//9inj3EznSldal6hy+h23MwQOFrDe4m9bQ+HMKITRRuWoow+6r0kuACX14YlYUgdhj5P0PVexh8lZSoyOYXSM5tWGN3pRqBWLMyV9qlioFQvTpcJUSasWKQjF2h9dsr/RbF/baF1Z697cEnayta8wXT30rodn7z8lTSmXPj35Rrxa6SgxBYBeZcMdL034lWUhhCedcM+MhZDdPcNjmIAnhAxhofh4NkJnTDPGR4IhojIXgxAEIYQQ3IItQESuzniLQPOqELC/Ioxuez3oErV7PzAB1j4B69gjsmTU3banj6owWiAGKIENi0Y96XhSB9uAWtrHW505M73xzS2zZ468k2FrMGwN5DpipFUKWkXXa0WtWtCrRbWkqUVdLetKUVeLuhzllPLFYLR7/Y1Wf73ZW2/21htWb5hxF5XDcwtvuXf67hOk5FkJPBFdwW/KtAIAeYKxPRh2l29Wjx8BAG5AKYSM67ATGJToMZSnHyYawhKyOyTqjJLdPWqMDwdDyDIXuBOqD+ICBMGFs14OEQh0G1m7xpjAKJovdTZCOabrD33nBFj7U1ihUj72Bj8dYmeLTx91nLI9qBXASfIeUQxlu3tGUof0EIecIk4Q9kUAtLJ2/w/c21nt9rf6/a1Bb6tntI28fYgLoz0w2oPuaiuxASmMKUwpqKQoTJWWmLW5bdrcsGzDyvNBpLDps8fm33xP9chcapq38PeKDQwKHxUAMa0IQKswppI/Ehovnq8eOwyAxFDQdLLdKtUYn4GndGtXJNVygs6YaIwPy18urRQJbYBgBAFiwu1FAlwIWHAE46i2KCL/v0rMQmYog1O4ieYr/iqqAIpL997OLsIDBiwAtfs+GADLW5gIRhP6lC9eeYphZHTK4e9JSR32O8SBKVQ/Vqsfqzvvbdvg/e1Bf6s/2OkPGoPBTn/XCz0Jm9s2z0mlJFBR7fjCzP0nps4eUwp6uE+PNN6J6NLNsSNMdw2CxVmlt+7e5M5LF45+23uIEawO9CWQ6i5CE/CODoYxXlqDnlxRK5DFBAQsDgLt2kIvxqjNe5W0O2m+ZA+HzRtBR5p59IducwIcNGDd8/61T/1LZ3vQ5uZQaEXCYBu1u1yV0DdmUWR2oSI9x6SkDs7qT0rOgKOxrfKKrlQPVauHal6ybTJ7xqAxGOwMhq3hsDkYtgZmeyhu2eQ1tVyonVisnVysnTykVUpSP066/9By2alsSkKYUMv1OLCsbq/5ysXp+88CnOwO1CmRFumeyKAIpKJ4yrB2xVMtCym0RaQY45NmJpIv8cH7FIUEhz/j0A3gJ4ALLgBOadLWrS4iLc27dD/cENvP7ly1uPTiu52XUD2QwKre8z5iiuDeKrUb9sxxFcMmBAepErOEZOwS4RAtEQOO5zTkFph+SywRIeHO3dIqulYp1I5O++F8gsPoGkZrYHYNo2uYnaHRGZpdwx6Y1mDshQ9IYaX5emlhqrQ4XTkyV5qf8iBFu7TlBxSTICVrhUKASK1OO831OlMK5K/VvPHkc9P3nwEAYxvqDJGfyYxB2BJuKNkYH5ehEqcfplm7xlqeJxC14sZ45uZpkI3xJIS8HLR7FrxHJojRvnamPG1SE1Q4D1FsPSOswcaFwMxau+d9t7k+ePCApRRr5ZOPdi+7acXb6/bMcRUQGGyicsSnldNdPGYJwA8rHZXUgRtQiiOpk12HXTWCk/O7XijUi1JcH/mWCNu0rb5lDy1u2tyyuS14sMq5Qw1imqLoGtNVRdcKM1VSFOkibthB+r3EbVJI0gEzNgBALdf8n768qLavu0Oic32lc/Vm9cQRiD7sFtQpAgHcS87Co3arA2uMD9RYb06F4CKWxWdvDkEx6kTn7ZtW+jfQvrBzzZRn5Cx84O/e/gQ4eDPp6vd/yAdWc9V2+1t/naonXCpRIFK5rz53UMfCHeJJHbgNZu9zqqz9grWmKroWoZi3Qb6mGd7OtkONhGk642RpKypkMa0yZXZ2AJQWlM4N0494W/nC43f/1T8LAMMVaNPOXBgCB5G7QkxipHuIQUgIaIgcilu7ErI7ZOiM4SD4ZGO8Z/OKGeOFL3lJopabMouLIHfhrS7cTP2k4ZbYfErYWPtm4AgqLJ6dedP33/7Dn93+txgpU2/8Pn/bNkXXMb0PNkAMpIIUMBWkgjnbCjmVoX/OfDEn9aU3d8zdJthG0P/H61y7fWeOtluJcT5cjPsRIrTcuci6uhCZ9a4qp027i4YwlcpLwUuxc32lef6yay4crMpPgZwNpgaV7hNRwpWK98hYqFI+BOkQU6LPGtKVg78UOitoQNIhuZI5tJU+zv1HYG58lnM0+EQCMSEo54MUY69BH3s0VjfhCr1lsfkkhL1+zpBTyhz+M/8YdABocPCAVTn5qLwmRWPFBgBhY7AOpkq08v96zGJxbHn9GBKznAmG+1LEfhBN7LrRyEqRj3EpG9EGwd/CTLAsW+WwKgusy5/6MjctCIHhKng/eM0QI2IU7Eq4QRhMMoNy4UmJoc2bZxOvRAQxSgAjl2tJlW5jfwaPQiByF4v1xGHv+gKKcMfdXniUXe3kEDcx3ISxA6MJY1v0rovtZ0TrPAQfdvjay0FoXunow3Pv+KsHYvgfPGCBaPqRP+vvNVdcJ4foXAOpYJrPqTCzFK8yLmpJr1mnyzozYNO7jhDjc2fsTpkPNyKz/4rMS4mMShH7lCQhSyCcJtjd1mcP+74LplL1SDCD0mi0V770pLvTvQBwDzQKSAUcZsnQ8ZmihIViFoNa7FDoEWcKVgH1KHyKJF4FgCOJaJQkc5EnNrKQFO8jD0xAeTV0Q8FhdTDcFL1VDDZgD5wHeO2Jgbw49rEf/IUDIV4dTGABMrDMvug6Uzf7q56vUAvTytUTXWZF1UMlzCyvS0WFrFugG+bVOnfXIL0ylXGxjQRFMlWqkpnFVE2fDrJWlg+pcv6G9cef6yyvAAJ8iO6FEFaYCmLkLKflSV7hB6RGSZQqQ8XxFOGXEiVRss7IvJV+wjqgL2pFFENIaR6IESikIQailiJIGaefjN/BUq61+uKwtx3gavatf7F+/4cOytg/kMCq3v0tqrR4/fY1EwAER/c6mAZSQVqIViQxi6UYs4hCL0NuYbwFNsU4XSgHg7KbiGxL09g4G2VGE0lClohuO82EAFBaOumfTISpU7r8YVc/+lm7P4AQMBroXQEUj0SBMEXESJK8JNB4b51EBo3AU5q1i5IoJuuMEVErpTIqc3miVpRWTns1ZQDeOtMBmsvmuqQMavWl4z/8Swdo7B9IYJGizbz1L/q7jWXbCcwSnSuuSsh8ZkmiljsMfGaxsDFLsok4vdA2Rg7z3RBNZDYQ43bJ3JUiyWKVaKhK1AqjF48DOkSx4tJJkjIl63VWXgys70arc+VjnxNOQNPgBgbLHolYxLx4ZxvjhTO5Yt90wxGk623Z157oyzWnfuRX1eo8Dk45kMACMP+uH/G3bUu0bloAMNiA2QbTPEuWFhW1mAqKy1lK7O3qW9+tfIAYo9OMiZv9skllf3oerTAiZIUhFWWWYIpeXDguf1jthKZKimHr0vWbn3vcbd+7jMGKO4ndfTpxY7ySaox30JBojI8fGmHtomRpC6Ps7qCYsUySuTzJK2aMV8IhJvvYtaInDpr2pce63A55BusPfvhgDfyDCqzyyUdLRx70d7evWe6rvfUKSPOYpUiilhoKekhwFyZZQIQ1Rk8SOTvb2GEHI9AmcrcMnZKhFaYJWYleQpF2Svno3fL1iWH6bl227a4/8fzG0y+6l+qcw+CGRyLvKYSM8UqqMd4RtRKN8Yl2+tHWLjZKZ0w0xrNUYzyxdGO8kruTjNU3QqW7aV34fEdey2vqDd9z+Ht+/sAN/IMKLABz7/wRf7u9brvLfrQuAABJlixX1FJiiqGawCyEPUROStLs+ai7DzvIfdb4NikkhlYln5qt+qW7BROYJS04CujTi1ptTr6iWmJTd4XCr5c/9dWdFy+4O51z6F3xFEP1dWKMF6Pdc2MKU7HmzRvmpS+GaFU59ba7/sZv0O27NOedCKzZd/wVUgJ/+eZFCwC4gfZFT8LyVEKmuMZ4KT5LYpYa7pfh7hsKcRhfaB87FGsXNqnEljmPhjZEqtKHxPCFGLO8Bh62Kifui9xBcVapHgvlib7yR1/c+eYF9wqdi2i/JJEoZowHSzfGK+nGeJaOJ5Zq7QoQk6Ezxo3xLNUYH497iGb1GUuWz9V488Lgylc6siZYOvLQ2Z/449t5Pfo7E1ha/dDMW37Q392+atmmACAaL4CpIWa52EpiFimIhjswQAlM7y6zckIqf4ORPU+M8mcnYWh3oVWpG0luwSxmyWu7CwiUFk6olXrkhqpH1NKCKpP3yh99afv58+51+tfReArClhghSU+e9keS5BXGjZLEICUdT0qqtSt4jdEonTFmdw/kLyVd1HKM8SLlZbRXU7xliGtPdG58vSdfqXLXO+756c8eLEO7XJSf//mfP7jM0mdPbD72791nzKEWqDKnwO5T5QT0qfDYk9Z/D9Y6EhRZwTxU3JVB3flijugeJEUjyprQl1QZbPh3EJnknF4pfW6OyvgF4zeG5NPh/CTxesQuGPopw1ku/HzJUPTSYP1a5JctTivWQFj9YCQ1z19jqlI9tggAdh+DVeizXhpY32jtXNYVWLx7lX4xv4F/MyT/IOFbjR8K/Q23dE/1Leh+SyZtw8uYLDfzP0iqdPsSAID3cgTQjAxzjzZo3TQuf7HV3Qy9a6fe8D1nf/y/KuXpgzvkDziwpo+2X/qUsXPd2R12+PxZjQiw+zT9IOCnWPJHkZBp5XVpac3eaBIYiVlMiTCCKA0Bo4A1mmLZlfmOjiBphG5BAwo1iFOJwi+A8FJ30eQ8pFamjJ01e9iLvAsKM4o9DDGrfXXF6g3qdx0hEISJ/jJIgT6XdJ/wNCyXrzH0eG67+FmJkJIPpV4QEnckioUqEdqWX3Jyg+CX5LB76WwSu4gatQb2ja93Vp7tyomPAcy/52+c/tFfZ+oYS0zehuUAq4ROWfzgT/nbRk/sXLUAoHMVw23JjOU7DbVQNKlnhidSE+YYhiKz4L4GBcYMO0gMKN2FTQp5T8mvFQYboQYiecINMk4J9EERSSguAFE/+0j8nohQnI0afTefeeXS737GHgzcc9svYftxcMNT2/357SG9L2yMjxjX1eRJPJQ0PxGJ1q64zYsydcYUu3tiMAQf7GqaffJDFwIbr/Re/vj29uVBvEnx0H0H0cp+pwFr+k1/Tl5Gbe1l0xkvYuspb5qOFnYaam6IQ3JSB5aa1OHWWbJSK0US4xLN6mKMjZFuwagBKzwmQswSKe5I4ZFLANDqc+UjZyJfsnPTapxPyHPfunzz5V/7eG9t273acAObX0DvWtj25PGLKenGeCXdGK+kG+NzWrsoRr3xjfEQzuS+8d9nCQ3aq8Nzf7J185mOY8mNl9U/+Wf2oHXQx/vBVgkBEDGml5rP/7Gza5tCr7DStILhFk0/lLAWTtTSIiQVh6IN4uf4RorA1rMrQ9V+mrGQSysEMs+K1I9UDOWfJaIexrehT833V68I24V+64rZXUl9AdhDY/uFi0xVK0fmAUDYGK5huIHCLJRiSCUMNCxX+3MfSqIy6P8aCZWjDo1h7aLwWUnqpLNhbHuBfnt6EfZ3zOtfa6690LGGIVsYMUwf1wdNd9ogN/ukFmr3vn8CrNe4lI+9cfuJj9g9d7HSQVPMn9GIAGHT1L2xpy6kIRe2wPjESl1Gi7srmEeBld9ilWmo2oUZC6MMVcmW9bQG0hWi1vdRzAr2kpDPFLVUHaxfd2jl53p3cVZn1SOa0bYlWU20r6x0rq/Xji8oRR0QsPvoXgE3oc+AaVGyB0EDYWN8CDdhY3x+fo2wdiFGJcSM8TG7u7kDu5/IpnQXYTRQZti2bjzVvPF0y+hEFzSpHdJPv6c2d6bQXjXNvguy/rWvL3zgxw+0GetOABYxRSnWG89+1Nm1TaEVqTyrYLhBM2+AmpLy2Le1UwhkSVKWiApZ+2B3H9+3uEs2ZVwKOYSskcxKw1b0Z1TLdbvf2Xlls7caolXlkDp9l65VWGlWNVpcNhUbre7Wcxe4aZWXZt0Fzcxt0blCAPQ5BEsBsnRjfFjUes2M8WG7u9mE1Y5wKr0kNBi2zJVnmstPNAbNqIymldnJt9cOPVxSdQagUGU7V1zVW1iGVl+q3HVbr+185wMLQOnoQ7KQ1dvhc6c1pkjuwoRnL6QXYAhkBJGqGDpC1mhgISmRcUplAuNyXgfjiGBIFbJSWTaKWYiLWvKh6C/YXeluPhMKcTjyLW8sz9vO6vZMpdKCyg1hSZkwBRfdGxubz10kotLSNDEGYWO4gd4VAqBNgdTgLRL+KVxxCywW90CS/y6DQTkOZQlWKWcZWzBbueKKk/wn/R3j5tON5Scb/Z1omklSUD2qnX5XvTyn+efqFdZZs8yeK2QN184vfutP3DZrvr5egUXElPJM4xt/4OxyG0KgtqRisEn1u92YLCGSRhEFIQ6RkCyK9yH4a8N4WuFI81M2aMa0be02tGpMIUumkqwYZjMrCVFSTX9j5/IffkFe++f4t7198dEHSkvHrU7DHnSdKxVnFLXMjDaXg5OEZbevrm6/eBlAaWGKFIKwMFhD9zKERfq0t6YkhcPlJOZ6kleqRWl3kEJKrFZiJTcxXInFMSDFuxJt0rrZv/HUzsozzbhURQyVJXX6br22pFdnC5FLKSo1ll262b2d8om3FA/dOwHWa1zKR9/QeuHjZuOmOzx2+PQxTS0Aww2af2uweJTTgUREhqJQfFYwRtPWSsL4dneMZ2Lf19CqcYSsWJssZiElAitKLsH5xd/7jNkOxuqhd75h6W0PACCmlBZF0r1yAABGeklEQVRPgNtGa8s5pJZYaSEapQWAG1b76urWcxe5ZRfn60xVIWwYm+hehNUlVoRajpmlGHzLFihJ42OjGJTvUIJghZAaaDQwXAmvDZErlME2+NYrrWtf2dw61zE6VrwrlhaU6bsLxVmFKTS9VGIKAQSmQSmCFHCrUGPbVwxuBj7cmbf8wAEd5nTrVu589Uvn4lde+Rfv9nfrh9XT7y4BRCe/H9MPg5vghvTXhDC9XQvc8nYtCAvCBreEcOptCBvCguDuNpylN0fZ3bG/NqkxtUKM5xYMtQF2wyykLjK88uXnVr/ynL87fffx03/2ff74cf4f7qw1XnmKG0F6ObPD28um0UoIBGeqMnPfibk3nC4vTQehFVqNyqdRPgbSAAFhe7EXHODOcrnCWdzQOQThrnXoHHXW0xXe4s/O0qqhyvAh+a/gwQVDLQXMJgarsIcupOSZTP5cca9SiCCirb3S27nUaV4L5YSRUVWeVyuHg2yutblCua6BCEolyLDEDfRX177ZX33RDaFgWumN/3KdFaoHcYzfORIWAH32+HDtlf7NF9wB0OGlaaVYU9C7xubfCqalrHmV6o6nhBHoCV6eR4zGs0mlIGl/2JRfmMqYcJPmCowxC0jFVvh36280rv7RY8FjqpXP/OCHmBKJARRqqVJeOsnNgdV1w4UUnUrzqlZldl/wcHiR4KK/3th6/nLr8ioxKsxUSSHwIQaraJ+HsUHCglIFUyPfJdkY7zTIEwyRNr8nwWYPmDvoL8PYhrATel1oIyiDprHxzcb1r25snWsNGkZcoiCG8pI6fVYvzStMdX/nYlWrOcqgUnYn/DsRtkqRmKJp/c0LnumdW6WjbygdfWgCrNe+VE69bfOL/1Z4QZ7dTXv2tM5gwerQzMPJtAoNN8nPRRFmUfgk15JFOaf77cJiNdKIPtJihRxCFtIVw2RmxX8gZERgAbj68a8MG75TDKe/973FuamkESuIKcW5I/rUrNHaFpZrdlGLrLyoahVmDwU3osPX7A6al1Y2nrnY32wRY4V6mRhg99BfRecChhtk90EK1JJnffeV+URjfLoxawSepENWB8N19K7DaLiRVonh7OHK/vZg61zz5lObq9/Y7m4MpFVypeFaoOoRbeqMXpxRmEJmh3dumNwQlQV9aqlEAEgBK4Axbz6ACqaQWlWw07phWAP3s5hamHnznz+IA/zgLaSaXfTZE4e/63+88Yf/0O3NfbHy3PDYW4pi+xuYfhj1e1LnzXABzyzrrSDt/iVAUAxtIm4IQ9bCpcFanmnNvZ2sFeHjF848Sz4nuvSpiCU2ofAhIXkY3BrhzhYXgU3QWWiPRPinCX6szvW19pUVf3/u4bO1U4eSg+y9AVyYXlh4y7d2b1zoXD/vx5oWppXCtGK0efemNWxGw464ZTfO3Wicu6EUtKnTS/XTS7UTC0pBxXBTDDcgBJiGwhzps9CmnTVciXwvDIOwpWWlKQjrl9eadtZtdddMDR8CQRgwmzAaMHbAjfBi8alzErgtuuu91rVO83rb6GYFkep1Vl5Si9OKs4prf8vurVlmhwPowz784BQ5d8U0aXkeL8ieqSjMTR3t9hvu79Z++TMHdIDfUTYstyNw66X/5dH+8rN+zZn3lauLGtQqu/+nhFLwbFhD15IlW7UilixugZuOSUu4xizHvGW7xizCCLs7cpqxcgY3YEyvX96Qq9TtpDBRGhHKECLr+d/+TOfamrOt6NoDf+N71XIhiVOIJ+fi5rBz/Xx/9YrgIXHDGojeujXYsJONO95NVo7M1E4uVA/PlpemSPGw7lxfrUCbglIltSSUCpQymBKzW9kha1TIOGXDHsDqwurA6sDswO56LwMR3QhXclv0Nrqd1W5npdfd7At7xAAsTCmlRUUpEB8KayCMNjdadiS/w31/Zq5QVyAE1Io07UwDU8nZsPvdy988/9muf8qD/7+XiofuO3Cj+06TsAAQU0/9tf/w8v/6DsHd98n1pwf3fpvK0BVXf5vO/qjwu1EwUkQwq5KLYLF7BkC4q94zCO4tds8A7lzBFkGKmhTRBrGj8tru0ePhi4TksqSNxEul3okkOkV2ZUkqLFXFapx1GYkSpCoK7N8EAP2Nhk8rAAuP3quW9aQQJAGQEArcBeudFeE5U/X6XQ9Wj93VvXGpt3pV2O4DVYtUP6HVjmmDLbu34Qoa0Z9biM6N7c6NbQCksPLSVPXITGm+XpqvFqbKsDow284v6MW7MDA9mCrv5vZQAe6+n5xXFzdgD8CHHv5SshjK5LVFf7vf3+73Nvv9rX5/eyDHdowsw6Ydlyil3o4jj9QKdRUQ4UzN/muSgRi0emlGZSr5cbntc1+YAOt2KeWTjy5+6KfXPvm/ObtGhy9/fXDibSXROo+1z9PSB0SUVsLDk9fbuEclH14QRGpwGvmjjiegIZU+ifcb40uWVpjOr+CsRG0xcg9x7Q+h9RAojWjw1EOkYMsnFzaeOed/Saapi2++NzHdsyAdQgVxV8Ah7/lwAXCmFGon768cO9NfvdZbuWobA3+slhYUJwCiv2UPtqxIGETwMTbv3tzp3nTjipmqFOeqxZmKXi/q9VKhVtRrRbWsk7Aktx1CKSgQkZuS55Bzk5tdw+wZw+Zg0BwMW8Nhc2i0jbEIlfvNjKljxcMPVwt1xb1hpkiGOQaSk8erpBYrc932mqt4Dm6+eBCH9p0JLABHvufnG9/4g+G6my9856pRP6ROn9DFzU+jcoKqp4UMLLe7AeQRCjFRiwswEPfEA3/tgEjKc8otZ8Upk0qzuPErYpBCstw0YjdiGks8FGdW6LMkqxYi5BI2b7wcxLXPPXRaKWjxQFzBKi463as6LwDmfnHnlcDBSKscuaty9PRge62/tjzc2QwCIwtUPaJWj6hWjw92+LBhm92slHjcsntrzd5aM1KvFFS1pKslTSvrTGWKrpJCTGWKpshfCxDc4ty0bdPmpm0PLduwzZ5p9kxu2rsZhCUiRoILN2yGi7SMfkwlvaIUp7TKgj51vKCVWChbBqnhlasplDhXLRfrO21P3vWd6RNg3RaF6eXTP/aRV/75u3yP4fLX++U5Va+QuPwRuu8nSKu7lhLGpREriVcRUcuTwogLAc8q7xYzC1J5jegZMlT8UjnwF5AufOWwfpelDCYzC1IUri9qwTNtBeRqXb5pG8H0kbmHz4TvHAAJpe79lEJipgBxd6U1/4sIBsEhUJxZKs4u2cZgsHFzsLlqdoOUKWqZVcuselTllhg2+LBpm21uG3mlG3to2UNr2HhVBl6Z6TWm15heZ35oAgCmKnpJ00q6qmuKyrjFBReAUDRiCpHTLaM5qYOTJXMqBasC+8CaCkJJBivfnADr9iqVU2898n3/040/+Dm3O5ri6uO9s++vktXjF36V3ffjRKpgGU5DSdTydUaXWZCZJQQn8Ch9suSscLNEuSzL65eo3CFdqkIMTAjnVk11C8aYBdfMRGHTlfMBAlIciGheuul/eHF+qrQwFTVcKTWQLunU8K7GIQDiEtYdc7izWCQHcUUrVI6erhw5ZQ96g+214c6m0Wr4F2EqleaV0rwCwB4Ko8PNNje73Orz8dbz3seRViS1wjTnX5lcJ4BzqKDpJV0r6VpJVzRFRpKiBT7phHyNIfFKCSxWbtp7efFqRkwr1AJgma01YRmk6hNg3Ubl0Hf8/dZLn2q//Flnt7dl3fhG/9ibyxis84u/xu7+MQrlqZOtEmFRy6cVCcDXDaWwBjEcZbHKZ0RPZVNamzTSRU6MNZYNWJmhDHAwFLkBIWfpiZqxnIPtq6v+l586c1REvIGsCFZxry9Plgo2PMEqOCppi45hnkEplipHTlWOnOSmabS2jea20dqx+sEcIKVApYJSmlOca1pDYfW41eP2UFhDYQ+jIal7L0wjRSe1SEqJqUVSiqQWmbyal6pralHXSrpW0LSiRsx3ZYjMRUOQFXHK1HAGG3+dIU8xZLpaCPVIq7ulTR2eAOt2KsRO//Vf++Y/faPVdeepbV0clmeU2buKaF8Ul3+b7vphcoGUIWppAa2Y8EcNcSF8IQsKOdHMY4dWpWNu5FlpQlZayFXclJ4r/Eq+DkL6YAK2XHKZ7b7RCqhRO7kUic+CNhtT+rzbCwmAHIIFR2VtUQA2B3PPZapanF0szi4A4MbQ6LTMTtPstK1um3vBXCCoRVKLCqTszIKDG4JbgpvCNp3pWELYEML5CznygBg5cjfz17d0/mqkaMR0UrSosq9oqqJrakFXC7paULWiRsSi4Q65l+FNjgIRcD2bwSLVvm7or0qrRhJhWe2NCbBuu6JNHz31o//lwi9/t782yfLXe8UppTyniZ1ncb1Mx7+PQsseS8pghqgFgAQBwg1x0CEGUbgkB3Bm2uITWowvZIWuE5OMsixWWW7BJMLK2IJc31vbkgY5Kx+aCY06tQ6me/PvpOEnJPerE6iZaIaXtUUnQookvVIIpunFmbnizJxzb7YxsPpdq9e1B31rOLCHA9sY+s+cGJQiKdhrxhVizGGTommKriqapmiqWnAFqHAMROKy2xnJrDFiynQkfTOIKJKgWQEpnoLpAau3feCG850PLABTD33n0e/7n2784T9yHzjHla907/m2ulpUxPpXAUbHvpt8ZYZJhIrGZ0UVQzkOXpBGwshkUz4dcGRo1XhCFlIUQ/l0WQTLcAvK6iEyI7BosBXYwotzdabKyx944lWiJpiAsHQzPHmjmhPIDnZDaemFohcUXS/UZ6Q3EOeWaZsGNw1uGNy2hG07f4VtO9Y44WQpcrwJzMn6AFIYMYUpjBSFMUYKUzSVqQpTVGKUOrc5V9L9xCIyj3hHQ/pg4hqxTpj+gR/LrwtgATj04Z/rXfv6ztd/z9k1+/zSlzpnP1BjKhMbX4FSoMPfJnu8XEL5tvYIyBAohk64AzjAdNiWp9Hc4tCqcYMYohYrqdeHDNuUwCwgQT1E2nQcl1zDRicA1mwtJCxoU654lagJxsmVKFhFtUUOoUBwkC19NSQv/yMEiJimMU0DyrGQqxhuxmqQCKMRK5DElx3JXo0pbsDSEhbIcExXzmuWDvx6OfAG3OujEJ36kV8tHQmyj/Z3rCtf6bhL7Kx+Tqx82jGWgmlgenTt6GDVezW06A4p8qr3gukpHSve/zIXsxnRQcMNBJKGaKKsgeRD0ZWckb7yc3i4RgeqvyvMTmDA0url0Kdrs0nryMeWUwZLakbho95aNX6lUF2eJv8sib9k0i8mMn9/5Fg6O/eC2yIpmDZ5caNExrn9MIhrJz98NDC9M7hhsfKYOHgUe90AC2CF6pm//YdqZc6vaa+ay0913E60+jlx81NgusQsf0HD8HJhGaveswKIIan7pe2nN0gD2ahl5UPDQyRRUoxiVmzXaS8wClsBvOxBEIGllQvBUaUItRJb6Y8lIwxMWmWLRRfLSlh0yxEoVAg1lLIx4TeJoVkk/m7hPMVilGY3kmKjNxJLZjOme2IUCxRDWRkkAinCHlrhkDS1tjAB1m1dCotnz/z4R5kWrP21fXm49oK7eIlY+4JY/iOJU3qIVj685PUNZWa5QlYxtePm6u45e2r2ABPJRMvLrDQ4ivBXCE/uDXglACFPV2a6GgBLn08QqRLlqQzhKy5YRZf8Yx62kFfqzLlKYxxMI5ez3b0+mJ73PbAY+kvMOm5BaTqOHNxABGtgDUJBaFp9aQKs271Uz7z79I/9uiwHrb7Y2zzfd7vA5uPi2u8TKR6t9CitQsyK6IYKMRWsAFJGv0tzKRSjhKwsYSFliEZxlnhU2hUic23nePCakGQxtzjLerj/tBlpweQMJKWphGmCVUTy8gw3QgOUZGlrP8Wr/C+kbH0Qo7pErJAuK4Ph6ThKaNvumwMpPkMtKOWZCbAOQJl+0/cf/wv/Wq658fXu1oWB2yu2vyGu/g6BPEuWxyx37WhfzgrTyl/1nqlCKaV2UzHK2JG6NDxS5CakHI2PQJEyUONHkWLSQnRt5wiqEu4ZALhpuQ2YCqUULLOck1n+LlNi9ZSuLforeimABqGm/M4ix4+cIV5lEioPxZLPGgUvlzrMnY6T7CKkEO7N9qAZSFjyeukTYN3uZfEDP7H07T8j1yw/3dm+5KYBEM2X+OVfJ2ElyFmkBcpgsCHDixErgmn5lpvbhZCVruNkKIYJ7/EMZkVGcoqoBXlJ+gi5hFLQ/E+yBt6S9KTH3O3jaIK7McNLy8dDT5a2xrVqjXh/iF1SLJc+GO4ArOBBOTIdJ/wLg8Eeght9CVjl449MgHWQyrHv/xfz7/2bcs31p9o7V11moXOFX/hVsvsurSjNaai5RgSXWW5SWijVfD04qcHYQlaKZX2EMQupdENKgqeIwhhJ0RMiF9RSMEnN6g4CCSsaIqSMNsCPVhhHmuF9lmmA7tq2Eh5NDqtWmng14vWTjB6xeyM9QKokSIan48RtWGYTEP2dAFilY2+cAOtAFaITf+n/nH3bX5K71LXHW9sXXXsWBuv8wn8iYweU4TRUAg1R/qvoYIXkriaydTqMErIyBYFk/S7OoCQTu4gxK04okYitBHJplWDB7WGj4zW0kpRBZXwzvLIbM3wgcKmgAqAFkajJuMcexKvIEx4VaZXKybRuQ1425LAm6M7Ikb2rBGIYNqyBGLQDYFVOvmUCrIOGLKac+uu/FmHW9SfbGy97MURmk1/8z9RfAdNTnIa+8CVZspxtrTaeFXakFJawm60YxlpmMwtJ8VZ5I7CiYQ36VBB71d9suYdsg+TIoJzM2k8zPJN0KAXQQZ6eOJ5nA+MJxbsP2krBmZ9JRlJ+CRTjuyNwKWKw1t6w5Z5fPfueCbDuCGYBN7/RWX2+402vHfDLH0H7osSsuKgVk7BIBdOhlFP6+qg3dt7Bk3QuMhVDkekWTLw3kTic/DiGRIu7KC3U/X2rNzQ7fUCADyE4uWrgHpiVRa48ZniSVmpQXD2RdGk4ZGuI6d6PXE8ZUk6L3emDzm3L34WyVGkA/fXOWgCsyul3HNB1CV/vwPKZNfeOvyZXrr3YvfF02+uZlrj+B9h5Nuo0TIzPkp2GWt2Nus7o96Nf2vlCrkYohtnMijcYKWpBimPwyCXBq7QwJU+F7NzYdE8xW0Hq3qgBa3wzfPyUMczwcZlLAwqAGoyL8cSrPO6/PLMgMOIspoRStiOCpwjTFQy3hG02VwJg1e7/4AEdrRNgecz6kV9d/MBPyJWb53tXvtzgtpM+houbn8DGV0JOQ0qKz5JFLaZDLYf5glEddxdBDBmKYW5mxWfniIxQBpGiD/qbQtFUvRrM/Ghf23APGFsOZdKZ9Sqb4eMUU0E6yCdX7ueSFToXQ1GCqSunPkiSQd3fIIL0NRH6JUXnSnvNljOvzrz5oC5VPwGWDy06/sO/dPi7/olc11weXPz0tjVws6CIja9i5VOeMCVN1gmRKyxqaVNhy+44cT3R2XBImVySgrCxmJU2HSc1lAGZ5BKAKEwHkQ2ty2uCCwigf9PnFJFCxPbJDM/2ZoaPnOjUO+TSAW85n4QXA8YRr0Y2yHERkpRBj1YeqqTsV37oLDF0ru5cCxY9LC7dWzr68ARYd0I58r3/9NgP/ku5prdtnv/E5qDprN8rxM5zuP4xEEXtWaH4LNVzIDpCVjXGnezemTuIIU6iiPU3QSxLYxZSzPBIjWsPRbSLuMewvBTY3a2+0bm+AQjYPQw35Um5+2OGx76Y4SM15Bm5nAkMupf8IOn3HSFepWNoLIoRRdfvcqfjeBEMCAdhgaG3YnW7zZsBsGbe+hcO7gidACtalj7006f/xm+QlJzR6NkXPrXZXhm6vaZ9UVz7fQg7ltRBDSV18PmlTYNY7qn/eSxWI4PXkTcTQ4JbEAnBVhnTcYQ0kTAMr9J8VdGD4b390nWXf50LIR0Qknq4e2Yp+2eGT6KYm7pTAxVAmjtwcolXCWAaZW7PUBJ9fVae5OzPwqHoRHGmiOZLW5etIJM90fy7fnQCrDuqzL71h+/56c+o1Xm/xjbF5S9ubV/qub2nd0Nc/R3wQcxvmJTUQdGhTiV23BwxWXH6IEWnk5uPkz1GJIWVRkdUGrYifsMQv5RCyVkGwimNC6tW3wCA/iqMZsRutX9meLZ/ZngKLfgOWVXUQAVBWpCseezsGsgRtBW3ZFEgZBHFFkxVQt+LFBgt3lrevBBkzph6+Lv0uZMTYN1ppXrm3ff93OPFpXuDnsNx/fHG6nNeIs3hprj627B7SfFZajSpgz6TNCM6zZKVASakTrgZI3tMUuNUk1YatjImErqVSrFUmg8yRAqbbz1/1TlXNJ8HZPv6bW6GjyCMvHkwiiBdUEFQJJtNfvEKmT0hvBG9GXc3nA1ZkfVrsf3M5kVTzioT8SxNgHXnlML8Xff97Fdr97xPrlx7oX39aztu7hSjLa78NsxWgpAVOA09S5Y2E+u+CEMnX8hVancflYkhmUfIytInMrCVQS73n1apKkUqTAdC1ubz14TjdR2sonctjCeXWXs2wyv7ZoaPUCyECfJg4TBCFawgSA+tnT1S70v48ZEZY8ykhZ1TsiHLybCGW7x5beN8IF6VT7y5/sC3T4B1xxalPHP3T34yEla6fal3+QtbtskdE7K4+rswtlOSOiiBJaswB1J3m3ohQha5H+fOxJBlYhdZc1BS49oRI1c4P1ypAqLKUiBkmd3BlmvJgmg8A2HFmXUbmeHdNJ7pSqLDLElVFFQQrABX4Iq8nyLi1bhzpJ201BFbWywbcjCXEGLja2svmdYweCgRJ/gEWHdgIVU//aO/fug7f06ubK8ML356wxrYEAAfimt/gMEamB5Ek0YnSKsgFfpcrBPH+qXIBhNGhy8gk1kjs/SJXUzHkff8WdCCGGnlij7FtHLQzdaevChsG0LA6ovNx73x5jNL3T8zPLv1ZngXGRKzGMAE6YL5eiLGE68SZxoKhKYKSvdPiKUYdZTBxvPD7Z2NC4Z/jfLJt0y/8fsOvAzx8z//8xMqjYIW1e/7oDZ1qPnCn/g9yRrw5vXB1NGSUmAQHK0LVFqEPp3QHf213ZUCzAaE7XU7eB2avJUmvLdoUC+1iZ4iH0LsCukt4a/jIJ8SaYNg8Qu5MmgcqUdSY9iDvtlpMY0G226YNTcstaBVDk0DgNkkVkBxIeHbOWn/Qncr/TIUu8m0DUo7Kv0yhNAvQLIsIzeg0IkUakzBr+5f1gmdBwlbEq/SwDQqaMuBEfNkT2+DmBdJw1QwxX1B9lew/Y2rjw+MTvCRd/13v3tAc2DJZSJh5S0L3/K3zv74x5gexBYZHevCp9cHOyYACEvc+FP0b0anGYaSOmjQF8NdNmcmBrnvpoRcIQGVsZZ5svRlhzKEEyKnW9ydf/rUDIDijCILWatPXLD6Q1ce23kawy1PNLhdzfDIb4ansBBEIF0oZckakD8FTVgf9JVBScKiyHQc52cZbonNJzcvGp31YC7O7Fv/YvXMu+6AYTgB1hhl6uHvuvdnviiHO5g9++Jn1vs7BgAIO8ys8MQdR1sszoEVRlusRqToG8uYlZNZ40dgyeQSImZ0BwC9NkWMAaidCKLebcNa/uJL3hVssfYZWK2oJYsp+2aGx56j4dOcialm+KhpXLCiYCVpnTSEXxXIYpkAZA5GgIvwLMLhttj4yrBtrjwfKINKaerYD/zvd8YYnABrvFI++ZZ7f+aL2vRRv8Ya8oufWu9tGu7wu/kJ9G8k+w0de3xxKQVMkc4aZ9mYxqzRzEoCZd6EyAjvihivXDOWXpsCoNdZcU6KyTq/unNu1W1pD8XKJ2APoszaLzM8KftnhmdjmuFZIByRCtURtZASpIIsp6E8HSdkxpJuvrcsNh7nln3lq31uBc/o+A/9a236yARYr9NSPHz/vX/vi4WFM36NbfJLn3WYBXBL3Pwk+qtJSR0cd+ECWHH8TAx7yR6TxqyMLH0jEyKL7ImEfuPirKsF109opATmreXPf7O/1XYbW12x+qchZkEJKYC3ixme7coMLxnvlbJj2BpDvAIkTgV3TvLkQWGJnedE40VA3Pj6QM7dPvXQn5l714/cMaNvAqzdlML8Xff8D5+Xl2X1mDUEAGGLlU9gsCFN1glriKWj4etlJDJOlL/GzR4TnnmTPB0HORIiJwpcifCS+D4z62iFTKOpUyHF8OIfPjXY6rgnGjti5Y9h92PMUhJm8Lz20fA0KhqeEYgoNj8ZBKUMpkWfY1r+/uDnTcmGzC3RvS42n8BwE8DG+eH2VWlFyOkjp37kP91JQ2/iJdztD1eqz7zlB9uvfNZsrrjdiovmtV51qaiVFUCgc5kqJ6BWQhRwJAylgOEOhBlz5EV8fHtwBdJIt2DY8ZdYE/IJJjoNETs3doSRPRxYvS4Atcy4CbPrvv+5xRsX1uqnFtwE8PYAnUtUPQmlGPOfut+CIh9HsWYZG4h5+uQfJ3KpkBsxdA/hZpTwUIILUvhH9U5nGoSJYIJfmnjl73IvAtlbNEDYZPXEYA3dazBbjkjbvGFef3og/fLq2Z/44+Kh+yfAmhQAYIXK7KN/of3yZ83GjSizKiqEjc5lqp2GUgqvHeC8LzUYW5lgSiLRaCqNxSxEQxnkGILR2EJKWEOUX4pe6G+sOdv6lGJ2uO1FM3KLNy9vTJ1aUAsqAHAT7QtUWoBWj/0U7mU9DFAyQeIkiiIpRq4ITShOn/AhivE9FPdAkfZByEPogSjgw3ziFdxfhg9hD2B1MNyB2YDVgj30Bdvuln3lKz0hrZR67Af+99lHf+hOG3QT7uylKKWpu3/qk5VTb/NrbJNf/vz6wPEb8oG48SfgRkIO+MI8FEn4GrHCTcaUQITVxgzdMEcCLIgxEyKnKINCnggttHJFr9Z9UMzcXdAqQcczu8MLf/j0sNF1r8MH4uafoPVy1PrOlP0zw+89Gl7Zqxne6QwJTzyGKl9nFxzCArcAHumHvS378mM9HoQxYOFb/tbSh/4/d+CIm0hYe0W+Vpx59IdkOYvbonmtN3WirBYUcBO961S/B0yNdkqmYbCRGT6KBCUROQWrpOtE2yNVPUyrlHeTZS4kNmaaPtjecKsYirPKcMfmXo4mbto759aqh6f0WtHFVvcqrC5VjoGU8J0HvwMl6NG5Q0njglJCswxtMS5PUUINQpGloVhTEMDBjVwLXmQmOO1t25e+1LXN4NDUQ9956kd/negOFEcmwNo3ZrVe/ITZWvWZ1brRnz5RUTSCPUR/labuRaQDKUUYW+BGMAhTdbrdKYPZzEKKepiGLaSasUYEvgOAWiwOmw1uGh6zqDCjDHds4QkFwuY759eK06XiTMUdjsNNdC9T6YiXZpqSmLXHaPhscmF0NHziRXJGwwuA9xNIFCFUZtBWe828/FhPDmKonHrb2b/7R0wr3pFjbQKs/WPWm76/9cKfWO11p8Y2eHulP3OqyhQGqwujSfUzUocUIIBp6K+nWqlkCWIsAzwwAmFRZo3CVrJtK6WGUpnV39oIfjGFimFmQYjGxQ1SqHrYSx9mD9B6mRQneI0l/kSvsRme2B7M8AJWbxzxKkIu0bhuXv1qV0iaYOXU2+7+qU8qxfqdOtAmwNo/ZhUq02/6c41n/sDu7Tg11oB3N4YzpytEBGMHwqRKOHeaWsJwE3wYQwmNbVYfm1lIVg+RKVVRDjKl1Ct6wRr0rEE/+MVU0iqsv2nLzTo3GoOdbu34DFOYOz6719G7RsVDrqhFbN/M8EjRBPGqmOG5BbufiiRnI30C/PrLw+VnevKpLq1KU3fwKJsAa19/zWJt6uHv2nn6t/mw69SYXWvYsqZPVgBgsEFaBcWlkCdIKaB/c5faX3ZLZExpTlMP82ArTi6MsmS5RavU+psb8tdXCsRtmJ2QFXmw02tc2Cgv1PSql6ja6qL1EsCpdMjTrKPu1LBJK4Zpiv0mlEmuBDxRuraYohIiRUl0/uNDD1jjiVfcEtef7G2cH8oHave8/+xP/PGdTasJsPa/qJXZ+gPfvv3ER4Tl9qdB0xS2qB0uAUDvOpUOQ6vLkMNwC/ZgfzIxjMGseLOR2MpDriyEMUVhChu2mnKlXlMG27awQi1tw9p+ZZWbduXwlGf6E+ivoP0KKSUU5mO0fc3N8DSuGR5mC8LMSpGWJF4ZHfvylzrttdDvNf2mP3f27/whK1Tu+PE1Adb+F62+VDn9tu0nf8OPDOxuDPWKWpotAED3KtXOQCkGfVEporecJT2lGrNGMgu53YKUFSBKGBE4GgVf+o9TqRrdtj0MpAMiaOWoYuj+bmutxsWN4kypUC+5A5gb6FxG9wrp09Cm9s8MjyRN8Faa4QX3AvHSUl0jLl41rhuXH+sY3ZBAuvjBnzz5V/8DKdrrYXBNgHVLSmH+rsL86cYzf+DXtG/2K4tFvapCcPRv0NT9gdNQKWG4AbufIj1lC1a7ZdY+YCsDXpk/Tm2qv73pppl2foAC2Yawegkze+yhtXNufbDTqyzVFd3Li2/30D6H3jJpVWhTt5kZnmLNkszwVgt2f9Rk0qCeW+LG17srz/fl0FBStJN/9VcOf+c/vCMjGCbAelVL6dgbAHTOfcHvge0b/elTFUVn4EMYO1S/R3oORfSuh1kzbigDRmTpi4cyIC3YikZMxyGMa3EPtVAUrVzp72zLlXqV9TdskZLga7DT2/rmCrftymKNFG/NNLOD9jl0r5Fahj4rf6PX0gyfALh4jS0Ga1785+is2Z1189L/296ZB0ly1Xf++zKzsq7u6rt7Wn3NjGZGQiOERiOjAyEhZCwEgsUCDMsReC3LC8vKNuaPXRxeL2xgh9FG4Ai8wbHsYtYcFmAvlyxWi7yAjISEBBqNZjT30fddV9edx9s/qirz5VXVM5pRZ838vtEx815WVXdV5qtP/N4vf8cT+cKKYxsY6Rnd9eA/XQJFRAlYYVH3njsqC4cqi0fqU9PgxeVK385uJjFoWTDGEhMAwDnkBKorMMovLxenHbOAczC1sLl0HIbzMLLkaFSS5Wo+L1CMMQXVrBn0Em7y4mJ+/egyk1i8P2mbFEYJhZPYOM44h9oLKfLy3PCb9Hm9HDc8eGkepiZAKbDRt6HxheeL88874kIBpPbeveePHrvE8gQJWFstxnquuzd/6FEroFSvGFpR75lMAAzlBRYfgdrfWKpKEsWzPiTaLLP8nozz2B5i0xFY3hRoCxAyIAtd83wMp0iyyzR0rVgUjkjVrGla30wmDb3h31UWDnPDLj9g6ubGbDZ9bJkxFu9P2PVqjCpKc8gdhpZncgyR7vN1w6NVEuLLd8PD5MX5xmbQQSmfaWa6euZf8sVVzXGOJWXsHX8x9b4vSNGuy/ArRcC6yMiSIz3XviX9y2+atcY3s5KtKTE5MRAFYyjOsNTuhgO+7snSiy2pdIGYBZwzttA6ol0CZCACpgBKo+lGozljFJIKJoNzcIcBFU31GNWqGJmlxETvO09O3bjzD76lZRcqC4fFF5qauTGXXTuybOpGvC8hKZa5ZaK2jo3j2DgGo8zkOOT41rnhPWgzS7w4a0e3B9fFLmf1mV/kV4856vABiI+/ZteDj/btf1eL8hiX+BeKB7kNSBdOhVNPHf/snVy3E1N23T2aGIiBAbFhNnEfuAmzhvIilh4/30oMLe8DBoYy+DrXW0Zgicd4055y1fCFs1yUXSrTgF4Et6v3gvPs9HRF8GdljteqWcPC/d5PvhQd3lU48cT8dz9ROPWUzwqWWO/O/sFrRpIjXT7f/0gvkhMsMcajQwDADXAT4OBmc+A9YrrH9QFMcA7UH20OGs/hnudwx8vNGi8vobruyU53p7VrZWPpYCF9puL5mPLI3f/hinv/nCnRy/mrRBbWKyG1f0JO9OUP/aj5LUVhqdx/ZZckSTCKzKyiaycAKHFUlqAXLwqzzjUdh7WOY2Dgzfp2rrbpLPgIk6EkwCLgtWaBMBbrSRm1ml5u2B2ROCtZ3RO4qZcyffvuUwemBl93f9fOmyuLR6wCZNbJrKTL6WOr2TNpbvBoKiYpklCVpYzKMvInkDuCWgZchxSBFN2EG77dThCbc8PrBV5eQmkWRsl+x/AJZagVjeWXirNP50tp3XWukztv2fXRH/S/9n1MUi7zrxJZWK+cTn/pXZlf/6M17Z1KTr1+uHEnfuwtSG6vl3bA4o8361a/UFX6gqJGERA4yj29YRpUQhNh8DGvmFBEmJvQrMRvgKOwuFhYbnj6cqdr1saQSfLeTx2NDu9qPpNnX/j+0mMPFU//wn9BSyw10dO/eyA10dPwcHmr4EtxxIYQG0KkH5EUJLlpCpnNfas48LO/Ao2veoUcHVqeazlU1mBWGn/UsekT7CyTbyxX10+WcvNVr69PSQ6M3fdXg6+7/7LdAxKwtkxGOXfk0zdU105bRyZuGey/shuMQVLZjvdDjsPUMP9PqCxfOGYhuErfuVQWrf8hjqZhxRyc2ox5BVd9YYbqqmB3oJxO52dnOedGha++WLG+vYOvf2DqA//ddTILp55aefyzmef/NwIWsByV+3b09+3uTw4nA8PHG4G7Sai9iHRDTkJJQI5BjgNwUMx/J9gcmDUYJWgFrhegFaHnmk+Gz+6vydBKVstMlzJnKlrZJ2iWyZGhOz4yeu+fK8kB+u4QsLZGpelfHX3oVsuZJSnSVfeOqV0RMCA+yibfDa6jOI2F/+PBUNut3znGW517QWTOmaPPsJtTTvPK/4ijix8YQ3UFesGiiVYqZc9OG7Va7lStvG57sq799EnfJqDVtdOrP/ti+um/0/LLQedc7VJTkz09kz1dI0kms/aNrxvXRoVc7ymp2rXMGrcOtHoVPW5UYdZglJvkal9Zn3OU1qr5hUputlLN60Hvue+Gd47d9xmx0QmJgLU1WvnJf5t9+EFrmhyOXfmmUcYYGNjgzRi8CWaNz3yXVVdbIumCVOk7h4LI3BRaKlwA88riF1BZbNwbBQCYhpGfnSssZtZetB3PI2/6eIvOetzQcgd/uPbz/5E7/JjrRqQoKSJ1j3WnxlPx/ni8L8okFkCrgNaNzoKunLdoBeKYchOVbK24Wi0sVwvLVaMW+A6ZHOm78T3Db/zD5PbfoG8KASssOvk3b80detSaXrG/f+hVPQCDxKSp9/DYCDZOYeHR83JXtWYW/BxVwdhqvoSbaLSuCjSvrL7Ebc0rV01hBs5RnrXrFgAAypnMzE9Ol9cbNogcS1330HzbyKNaZm79F19df/JvxX23/7pnLNoTjfVFYz3RaEqN9kbVZESJyheCVtArRm1Dq+Rq5YxWztTK6ZorOsGr6OCOgVt+d/D2P4ikttEXhIAVLmnZ+cOf3GuUG0ULJJntuXcs2h0BY1B7pJ0f4mD87LdYdeXludiDfFWbD2VgADivJ7own05TQdjyOeK0y1xPNg0UT6FRia6xIAuLuZOPHLPe08R7/2b4zn+/qfPLeeHUk+lffjPz63/QN1Y3f10kRVKTkUiXokSVSFyWo7ISlSWFSYokRxrnRFYlUzdNkwPcqJmmZhhVU68ZetnQyoZW0msFvYUN5ZKc6Ovb99v9N3+we/cd5FYnYIVX6We+fuYrH7SmyeHYrt8arYOD9V7LRu/mGyf43CPsXKvHtI+3OpdQBg7ejFrYlHnVyuAKMK+sW4faBkpnXeA5/r2XSquN3WJsZM/eTx09p281N7TCiSeyB76XPfC9WmYuPFdf7ZtI7b2774Z3dl9912VSZYGA1fE69fl3ZF/4vjWduHmgf1eqwazJd7HklHn6a6iunTOzsOkqfa0LIlu0CjSvvJGi7cwrR7dkuPlVnkNtrQkbAMicWp/+ib252/Oxx7uvvuv8znZ57mD+pcfyL/24NPNrvbj+yl9upWuwa9dtXbtfn7rmbrEFL4mA1RnS8ksvferVeqHxFZVV6eq3jysxGWCIdEm7H+AbZ/jc94UkXmzCXXUelUV9scW4EL7AHPcBvWxqGzVq4UnyiYC322dx5A43soLrbiGTv/T3B7VyI5mu/zf+9Y7f/+YFOPPZhdLcgfL8i5Wlo9XlE5WloxcDYZHUSHzs1fGJ6xPj1ye23xgbuYrWPAGrs7X25Fem/+5+a9p/ZdfELUMN3vS9mo3fa574Mqrr58gsnEuVPn8fFuc2bhiwOfMqOFI00LySnC4tCVoWGyfEU7T43NzygUZAKVOi1z20oCT7L/iFMErZWnqm8ZOd1wtremFVyy2ZtaJRzpmVDVOvWmWvATBJkaJJJslyvFdO9MqJPqVrUO0bj/SMqn3j0eHd0eHdcqybVjgB69IS50cfurV4+mnrwO57RhMDsQZCtr8HeonPP+IsPIBNpD2jVdQoWmQR1peEIzewnXkltTO4vHhyhmJZPUfrg/wRaHYN5WqueuQ7h6zpxHs/N3zng7RwLltR5+ctFWOT7/u82K9w/tm0Hb8z/yjruRqRVPNWOpxFSOxwRP8prF7NruOuZwpjXr8naL89sexAE4vMWTjFhTyhbB5c1c2Z51HhIWuQ3C68KR5NqcltdjRD+plv0KohYJG2TImJfUN3fNialtaqudlmrzotz5d/yoZutb++/sxyTr0N6F15IU0yebFV75VoEYTBlzXwIIk5uNMGT/B5ifhapRvqoPCeMbDb3gMWzzzTNsaKRMAiXUSN/au/ULqHrenywawFF772LKKDkKM2U3yY5Zz6Z5x4TS0X4DjA7GalgAAR2Jxym1ee4uUuovniyQ01uH9ncnuz7B8HeO8Oq0chAGSe+zatGQIWacskJ3pH7/mENS1narmZogUXPv8j1rfPYQe5meXKKYHf9rBpagXtEDnjkEWCCK0cPHBp/OvBVpDBZR+Ez0u8z1SSiNoZv1KEdU/YDuz0s39Pa4aARdpKDd7+b8WcjKWDWZss1VVUV11GE+eu7BB4tniu7aGLbm5scduP5jGvmNeHFWReufxc8NsYOqHGmP8OMbm9gVfOwdE71WudnPLcwdr6WVozBCzS1l2GSHz0rX9mTStZLT9ftpjF8yd8fercay65a6cEmVqOKlG8Xn/dbV4xHyq1Ma/Qyq3u4Jf3x/lXGm0HG+81NdHdiK8AAGRf+AGtGQIWaSs1eNsDopG1cjjXgIkIIE8tJ+52qHP/7aHb1BJ3iM2AA4tHon+dBd0ibO3PCsCT6yWOHg0eB3xyu/WeZVXqHrN3hbmDP6QFQ8AibaWYoo686U+saXG1WlypbI5Z8HFpeQ0rLm4GrUcZh+La+gWYV8y/0kPjX9dG0osn+GwMW+0Qgfg2SBHrU6TGbWBtHPupWS3QmiFgkbZSQ3d8RI73WNPVo/mAOk3u24LcG8rga2p5IrA4k90o8bGbnDFW7f8NwBML9l6J1LOfLyM+3rxVyFNjdjQWN/WNYz+lBUPAIm3pxYh2iRVUcrPlWkH3Y5ZoQzXn3Ls9hG+wlbBDrPfmElsneCNFvQ74IKdVCzzBx13l3WZ6iZacst682q1GU3bDmPzRf6YFQ8AibbGG3vBRsd7I6rENG0DtYxfQztQSd4iMs4jHFEKAeeWNC/X1W/nhyaelaEDoAzxurEiqGejPAZ4at42sjSOP02ohYJG2WJGe0b4b32NN06cKpmb6MSvwtqAQ8QCPqWW/ljPFHbjQIhGnLuaypFon4qBVQIP/DtHV4pSBMSTGrY/QtS1pnZnywiGr0AWJgEXaMo3c9cfW2NR4ZrrobbjigJSPr8q1PRSeWR8yCUxx3cgTfO2ejV5g2g1rhycEJ+LAx2/lk1o4acW7JocT4ony7atKImCRXlElpvYnd95iTdePF1wlw9HeV9XYHvKALEKOiLtgg7cuYIvABcdL0AZPvmFWrRzwzGFnKd3WrlCJSbEe240V1JqQRMAivaIS06HLGa20XvUwa1PbQ/h6tZgCJjvA4Zvn3CJStLXB5aoo3yLP2R0w4SGaa1cIJEfi1pgsLAIWKRTq2/87cqLPmqZPFX0aSSFge+iJwHKaWuCS6lcJ/oIk4qBNnrOvyRZENGuQGGveKODirrA0/Rw3DVotBCzSVl+VSGzglg9Z0+x0iRs8uPGn791DeLxa4JxzKQJIDt+TK89ZpNI5J+Kwdok4aOOA90VbbBhMrX+IRL+9JTRrperycVotBCzS1mvw1t+1xobGc3NlAUabqNLnG+wOhkYoA2wetTGv2LnnOTP/IImgPOcWIVpWYdL4aP2DRHtVJtsfoDR3gJYKAYu09YqPvyY+/hprmjlb2kSVPtgUs+kmPCfQvGqR54x25pUvntA+zIoFE405C8Yze1fIGOK9tpFVnn2BlgoBixQKDdxsNy7cWKwamtmuSh8PNrXqV1v1T8SBwK42ec6+Bhda5jn7hVmhZeCo1+CKj1gfKy7sCsvzB2mdELBIoVDf/ndbY27y/FzFZlMDRnBvD+EytQRsSdGmeSW4rUQ2Ae7bdiw44bkVntA+zIoFE80eSPZDaj+kWP0TxXpV67RUlo7SOiFgkUIhtX8yueMma1pYqfqHMvhuD907RBZoXrVKxMEmsp0RsDFk7RJxAogW9FM3ssCjKRtY1fVprtdoqRCwSKFQau+brXFprdaEkUgi3qogsnVEUt3mVas8Z9e4xT1BePIE0S4RBwHmVYD3ynpJbLjhd08Jvd25WVk5QeuEgEUKhZI7XmuNK3ndzivcVJU+6wYigxz3eJqw6Tzn4BuFgXnOzB1mBbTJc2atLS+pDizOeSSpiNVHqwQsAhYpLMDabgMLHOWs5td4op2pxSLu/jdb0nAwqBKWN4LUYV41Biw2Uv/EjHG1S7E+Si09Q+uEgEUKhZSuQXVgyppWcpqDRHxzppbHvNqahoNtiRZocEkAg5KAkmzUxuqyd4W1zCytEwIWKSyKbbtaAJYO39IxIsVcBZGlCCQ5MBHH4tQr03CQsXaJOLALzIvmFWMAY/GR+qeLxGUbWGkCFgGLFBrFR6+xxtWc3iTUphsOSrFWiTgXsuEga99wsAXRAikm2b8htq3+yZzAmqZFQsAihUUxEVgFw/amI8jUEo4wJnSNvtgNB7GphoO+RLMHkrfCDLPeRrS/DutIwvZhURk/AhYpRFIHtltjrWRwy63ON2Fq+ZtXW9pwcDOhDPYzJfFGIVP76+chkrDXrZ5foUVCwCKFRVHB6c45tLJuzZr/BBdEVuJhbDiItgnPzVCGpveq8Ttj/XUQy1F7S2hU8tzQaJ0QsEihkNo/KU61otmy4aAwYAqYIrIpLA0HmW/Cs+RveYk3CqUolATA5Yh4x4B2hQQsUmjElGgkNWIDq2z4FnF3dZ8HOORYSBsObirhWUIjXKz5O+tjdQAcsupYt0YpS+uEgEUKi5SuIWusV0wgoLcznL2d5XgTRuFrOOhOeJaaA495JXqyGGPRfq+FZdZKtEgIWKSwKNKzzQZW1Qwo4g7HDlGKNPaD4Ww46IKg+0eq3x200cmaG8NICoCkMCYgy6hu0CIhYJHCIqVr0AZWRWhT6FNZtPlQG/MqBA0H23iv4DWvGq1VwQEuKfbSNSsELAIWKZTAMmpmcMNBsTxDLOwNBwMTnkXzShIcWBIYg5J0eusAgFpRELBIIZLYQcfQuMe/3hxYO0QmQ2pm24W24aCYiOPKc/a/UcgAxiLd9Y8sCW4s8mERsEhhAlas2/5yan7lrlymlhzrjIaDgYk4sG4UOswrZm8JRR8W1fAjYJHCdJEEYBm6b78cJ7bkeGc0HHTlOQMB5pVkDyLdtB4IWKRQS46lrLFtYbUoiCzHICAqvA0HW+Q5Q/Kv9S7HvT4sEgGLFKaLpNrtjk2jXQSWpDY60XdAw8GWiTiNZwrmVf14A8ckAhYplGKSnTrHTbQpiNwoz9AhDQfdbjUhEcf1QsdG0mFhMTlCi4SARQrNRRKd7ma7gsh1B1anNBxsDDzmlRjWIDrgIUFWhVuiACBFk7RICFikMIobaF8QuYMaDgYm4jid9+ITmAIOo9GPg0TAIoVMotPdBpN/QWQVTO6whoNinrMDT6J5JbBMUlyxolIkTouEgEUKjZjzMvHgLEIp2nkNBwPynAWTyvV+FM7BTXtPKG6ZSQQsUgjlLeKOZkkZdFjDwRaJOI0lKrCMMXCrP2NDMgGLgEUKNa0a/3uwpSQ6r+Gg/41CjwPeAhmvJ1QSsAhYpE5ilqcgMsDkaOc1HGy81mNeMWcQlsU+s2rqTmDFe2hBELBIoYVVQBahFO3QhoMBiTjeYsoSwGAapuGIw5JUCmsgYJHCAyit4jkEvwisqAMHHdRw0JHnjADzyjLBuKkLwGISU1RaJAQsUlhk6hUPrnwisJhVxL0DGg5KjoaDvnnO7u0hGsf1ouh0JwcWAYsUXjEGIabB2TJHjndOw0EE5Dl7EnEsTjWOA1rJEYQV7aJVQcAihUjc0O0LprAGrGBhq5lFKKlNAKHDGg6K+TeuRBzXE7QSwEWnu6RS1CgBixQmmdWCE2DNf0VTCwyy2qkNB4GAPGePCablAOhVG9hKop9WCAGLFG55y/bJqhNAcFAg/A0H/RNxnC1zwHgtDXCtZO8JI71X0HIgYJHCK8bB4GmUI6kXseEgYxe74aCno5efecUkVNLg0MqmAKwxWhIELFKYLlLEU7KOe7AlqRex4SBw0RsO+uY5i6Gk9ZdUFgEuAkvtG6cVQsAihUhMAJapc9GwYs1Bo8po5zYcDErEgbMoTakOLNuHRRbWZSWFTkEHAEu2AyO50IMCrMksBkiRzm446GiZIzlNMBttvDhjaE4Lq3+SVsjlI7KwOuEiCTXdAZhWkIMY686Ujm44KODJZV5JDfOKMehllBbLaV08G4mJ62mFELBIIZLSNSBO9Rr3tqYHUzq74WBQIo7wWfjGKYCXMrZ5FR3eRZnPBCxS2IA16ABWhduosi0s2UGQC99wkF3choPeYsou8woMuSMAL2dtCysxuZ+WBwGLFLKLFImLu0IfC4vj4jccxMVtOOif5yy+SYlnXgRQWreDsJJTBCwCFil8Eu+FaSWTiaiy1eENB72JOLDMK0AvI3ukVjRqJfszJ3feQmuDgEUKnWLDu6xxtcTtOCwLW5x3fsNBv1IzlnmVfh5cLyzb5pWkJpLbX0trg4BFCp2iQ1da41rRtFxXArbMjm84CPibV3UIrjwJ8MKaDayu3a+nSlgELFI4gWVbWOUNq0KDjS3US674BEyhYxoOehNxrPdj1vjaL2FiQ7CwUlf/Ji0MAhYpjEpM7rPG1aJpasKNwrpMPaD/Tec0HHTmOYsQ5CtPQa8U1w2xTkP3q+6ihUHAIoVR8Yl9QtgnSnnTVSGZGbWObzjob14xAJj/MTiy87Z5FR3cmZjYRwuDgEUKo+RYd2x4tzUtpJvBkxa29GrHNxz0JOI0ij0U53j6IANyC3YEVu8N99GqIGCRwqvuq+60gbVuuEOxaqXmpGMbDoqRosJL+MwPGOeFVUPMee7b905aEgQsUpiB9UZrXMw0W12JFpZpdHbDQeYimgQA1QzmHwewftY2r9T+yeSOm2hJELBIYQbWnZYbyzSxsWowV7B7Nd/ZDQddiTh182r6+zBqRpVnhf3g4OvuFz16JAIWKXRSuoe6rnydNc0sGahXH7XaPlfyHd5wUCyUWjev0pj5AYD1GZ03vXZMkgdv+31aDwQsUtjVd+PvWOPcim5ojWJ+DWwV053dcLDOKdG8OvEN6DVuYPW0Zn3wnuveRnXcCVikTgDWvvvsXaGBdH2X1HRjMa0ErdSxDQcdec4AkD+J+f8LYH1GF93tQ2/4KK0EAhapAxTpHevZ+2Zrujaru2o2sPxSpzYcdCXicM4PfR4m5yZWTtasj5zccVPqVRTgTsAidYiG7viINS4XzPyaI76B5ZcaRZQ7ruGgA4LA2e8idxzA+llNLM9wxds+SWuAgEXqGKWufYtYxXzRcu7UsWXUWG6hExsOOsyrjWkc+zrjMKp88ZjtvUpMXJ8SDEwSAYsUdjFJ3nbPJ6xpMWvkVg1HInR6GtzsvIaD1lsyanj+MzBrABaP1gzNNq/G7vsMLQACFqnDNHjr76l9E9Z07litccu/ji29wtbPbGnDQel8Gg5aEDz4OWzMgKOwbqzNCLk4+347dc1v0dUnYJE6TExRR9/6n6xptWQuT2uOZoXrZ1Etbl3DQZxPw8H6z+l/xMJPARg6nz5QtZdpJD7x7r+mS08iYHWkBm+7X6xVsHi6VimYzN4YmtL8Ac/GEGFuOAgmYfFJvPTVup04+2KtJoQybHvLn6oDU3TdSQSszhSTJt77OWvGTZw9XDVNMKCBrcoGWzjUMQ0HwbB6AM//V4CDY21GzwiJOImp/dve/B/pmpMIWB2srl23Dd/5oDUtbZgzR6qNaKw6KrJzbOV4k0qwoRO+hoNYP4RnPw1DB0chbcwdFjaD0eSO3/s6k6hFOYmA1eEau++vokKRrPVFfWVWA2BhS1o5xtZOhr3h4NIzeOY/w6iCo5w3T/+qyoVWQFPv/2Js29V0rUkErM6/eGpi5wMPS5GYdWT2RC2z3NxMcYBDWjwsLR0SEBOyhoNnf8Se+wwzdMZRK5onn60Yuo2r4Tf+Yf9NH6ALTSJgXSJKTN4w+YEv2XOOM4erjsgsgK0cl848BUMPV8NBcPbiF9jBL8E067bVsWcqes2mVc+194y/+7N0iUmiGOeczkKna+47H19+3P5uM4Yde6N9w02/T50kkYQ5dTPv3gYmNR3nwsA19RnInpdIYBJrTGUhVF1ubvdk52uF48Vl9uu/Ru5U/Q3m140zB6qibZXc/to9H/+J2O+aRCJgXSri/OxXP7T+9NeEC4uJ3erweMR5tcEHrjTHb4ASbxKnbv4Ig1bkEp8pgzFm/ZI6sOAa+PJLxvSP2ZGvQa/U39TKtDZ/vCYuw8TU/j0f+2c53kMXlkTAukSRZeqnvnBf7uAPxYODo8rkVVHm2vfLqjl6LR9+FZSYn9HENmVeMRlgzAWyNuaVhI1p9uJXkKnfu4Re49P1Dayg5I6bdv/RY0QrEgHr0mfW2b/9UPqX3xQPJrqlHXujsYTHWSmrfGSvOXwNol2b2Bi6gLUZ86puizUHlSw7/g+YewLN9ZZd1meO1HTNsfx6rnvbzgcepp0gKUgErEtLnM9++49X/t/nxGOShPFd6tBYBN4y6EzifVN86GreNwUWaVpJknMgeywvr3nlxJNoXuWm2dnHsPA0eMOSKhfM+RO1/Jrhei8jv/knY+98iEkyXUZSkAhYl6BWn/jS7MMPckMTDyZT0uRV0UR3wH1hWeX9O3nfdt67HWrSaXB5zSuJCZ4sh4fLMq/0MpYPsLmfI33M+iO1Cl86U1tf0F2LTo6lpj74ZbEANInkKwLWpanCyZ+f/vJ7tey882pjYJuybTISS7YKZ+HJIfSM8+4rePcVSA57DS7mvFFom1dgKMyz7BmsHGTrRyyTCkApby7PaJll3bvcunbfvuPf/C91YDtdNVJbEbAuWRmlzPQ3PpJ57lveh/qGlOFJpatnE5svKcITA0gM8uQQ1BTULkS7IUcBCaYGcKYVUc6gnEZpheWmrXt/dWk1nlnW00t6MW96f7ec6B17x18O3f5h6tlF2qQIWJe40s8+PPftj2n5Je9D0bg0sE3p3yZH4xc4frhcMPNpI5828hkDfuuLSfLgbQ9c8fb/onQP0TUibV4ErEtfRiW/8L0/W/3Z57lp+D4hGmfdfXKqX06mZDV2PsaOrvHShln/2cgaYsC6e8HJkf6b3j96z5+KWZAk0iZFwLpcVF05ufjop9PPfD0IW3XJCosnpViSRaIsojJFZYrSQBiTwE0YOgydGzrXarxa5tWyWatwV3SC/29O9A7d/uHhOx+kroKk8xYB6/JSbX169Ykvrj35P/WN1VdohUlK6tp7Bm56f89r3i5F4nQJSC9rORGwLkNxvZo9+EjmV9/JvfiIWS1ejD+hJPu7r74rtffu3uvfoSQH6JyTLogIWJe1TK1cOPEv+cOPbZz4WXn2BW7qL2MpSbHh3Ymp/YmJfV177khO7QejWiCkCywCFqkhrldLcy9UFg5XVk5Wl4/XsvN6YU0vrJmVDRFkkpqQE31KojfSOxbpGVUHpqJDu2Ije+JXXCtFk3QaSRdVBCwSidQxIqOdRCJ1jAhYJBKpY0TAIpFIHaP/D3MR4JPVAkzvAAAAEnRFWHRFWElGOk9yaWVudGF0aW9uADGEWOzvAAAAAElFTkSuQmCC;" vertex="1" parent="RNrIEYivnAnbzNg7K0AD-9">
          <mxGeometry x="690" y="65.68933333333335" width="22" height="22" as="geometry" />
        </mxCell>
        <mxCell id="9fDAD1BXsFrjNk6evdLn-4" value="" style="shape=image;verticalLabelPosition=bottom;labelBackgroundColor=default;verticalAlign=top;aspect=fixed;imageAspect=0;image=data:image/jpeg,/9j/4AAQSkZJRgABAQEASABIAAD/2wBDAAYEBQYFBAYGBQYHBwYIChAKCgkJChQODwwQFxQYGBcUFhYaHSUfGhsjHBYWICwgIyYnKSopGR8tMC0oMCUoKSj/2wBDAQcHBwoIChMKChMoGhYaKCgoKCgoKCgoKCgoKCgoKCgoKCgoKCgoKCgoKCgoKCgoKCgoKCgoKCgoKCgoKCgoKCj/wgARCADwAPADASIAAhEBAxEB/8QAGwABAAIDAQEAAAAAAAAAAAAAAAECAwQFBgf/xAAaAQEAAgMBAAAAAAAAAAAAAAAAAQMCBAUG/9oADAMBAAIQAxAAAAH6oAAAAAAYcZmvIzcrZ688no7tOUbVYAAAAAAAAAADS3dGjPh7els+X6ea+DDbh6dhzeo5oZQAAAAAAAAAA5/Q5Wnby8lZ810mC+tE+k3+b0vVcsNisAAAAAAAAABwerx+Pt4qZsHG3MGvk2rJ9JnPV8gMoAAAAAAAAAGthOjrXr5vo49XZ09W3W9V5v2fX1g7WiAAAAAAAAABHI29Pk7VK5I0L9fS6eLXsxen8/3+3pyrPQ1pRMgAkAAAAAAw5eRqW1K8bblCJmYmYknKEwyiysF1KROXNzcFeXqmlu+h54WQAKQu5TRu6rlQZtWac7ZmIU5ShEzNZmLKsosqJhXGWDJqa9mvgx55s9L0629TyAsxAYc2tTlz2OeBv3UiYtRWvKVWGVlZRM1SsqLKi0QLQHO9LxNS6PYq29HzQkA0t3Q17OXfXyeZ6WRVljKIiZRELKi6otECVRKsYzelcUTTWjFln7Pcpf1vGDKAHN6XL17OPk1svlOrmnFaYyRRMXUQuoldQXURNlBaIEa23ROp6Phew7mmHW0gAHJ63I17ODk1snlutntgtEZmKYZGOTIxyXUF4rBeKwXnEM8YqSwes8X7jsau0O1oAAOT1uZTZ5LJrX8x19i2tbGNmde0M84ZhmYpMrHMRdQWrETMxFScE7V0Z/WnpOUF9YADS3Yxn5rb3Tk7/hp9xMPDX9ry8J4V8NNDZ251rYTsTgRGdhGZiQy1x0lOfQ9Ju1ekHouUAAAAAABXh95Xn4PS+k63P2fAT7DDr3eWj1Mw8q9Zlyjxuf223dXwe8dHUCzEAD//xAAmEAABBAEDAwUBAQAAAAAAAAAAAQIDEQQSMEAFIDMQExQhNBUk/9oACAEBAAEFAt5Xoh7qCKi8uZ2mNHliOojfrTk5ngaoi+kT9MnJzfA0T0cpC7VFyM3xJ6KKpgrcHIzF+/RVHKdP/PyJV1PFHCkDPbi487qZ6OHGFH7k/ImdqcKOHGFH7cPHndTfRw4hbrm46/SPXU4ocg5DBT/Tx53dqtMdNE9oakLQtOHK/Sm9Yyat1VpHO1LuqorhXmG7XBtzuvesco5wrjpyVjdz/plllqWLvKSDnfePC6d7Wo1vdN4+GqHsxtlxnxub35Hj4jjWsUjV1N7svxIvDVRzh6/WH+buzfC3huUcoiK97G6Wd2f4G8JR5HBJMYmI2DY6j4G8NyEUqwSp9p39T/O3hqpIYS6sXv6p+Zq+ll71ljlHqYrPbx+/qf5UUsssvesc4wMVZH7HUvyIWWWWWXuKdPRrsrZzUvEssssssssvacpg/s2V+0+Hjnw8c+HjnxIBcSBSfpqEjHxLZZZZZZZZZYqiqdKgVOC5qOSbpzHEuLNEWWWWWWajURQyzLjdOYziyQRSC9OgU/mRH8yI/mRH82ETp+OgzHhZtf/EACYRAAEDAQgCAwEAAAAAAAAAAAEAAhEDBBASEyAhMDIUMUFRUkL/2gAIAQMBAT8B1ASYWRCfTw78tLuE4LBOyIgxyUBLxcFV7nkszf6QTnYRKJnfjaMRhNEbJqtb/TeSi2N1Ka5Wnd6jipMxHVChZOL2nDCYvCyVkprYEa2hEhokp7sTib2dgoUKNEKL6lLMGil3CIUa4UL0nGTN9HuLoUcFqc8bfGij3HHa+o0Uu44nHCJVSoahk6AYMry2/S8tv0m2phQM6qzsLDwte5npNtf6C8pi8pi8pida/wAhOeX7nR//xAArEQABBAADBwQCAwAAAAAAAAABAAIDEQQFEhAgITAxM1ETFUFxFDJCUoH/2gAIAQIBAT8B3nO0tLihjy7ooMSJeHzzcT2XfSYaQlLCHBNdqAcOZjnaYHILqsL2W/XMzKSyI0VDGZHBoTRpFDlyPEbdRUji86indVlcXWTmY2XWdA+EWpzPCy0j0v8AVqCvk4qf020OpVq9trUi9DFuYbao3+owO87SaFr80eF+aPCmkL3air2WrVolPJTIy40FEzQwN2zmo3LWtSJVq1atWrXBYXFmF9HpuYrsu+kHK1atWrVq1atNbZTBTQNuK7Ltlq1atWrV7cuZE4avncxXZcjysrB1HcxHaciFSrfij1uDVBAIW6RuOGoEL25/le2v8p+XyAcOKcwjgVSpUqVLCRl0grkyRMk/YKTLh/Ao5fIvb5V7dImZb/YqOJsYpu5//8QAKhAAAQIDBgYCAwAAAAAAAAAAAQJAABEgAyEwMUGBIjIzUWFxEkIQkaH/2gAIAQEABj8CYXOyfzc7NA7OjSkud6d3IFO7kmlKewce6fCb3w7m9xLU0pT5czpHpx8RUDpGcZiM2nlhflizMTYjxdiSGTIeTWW0hlqYCRkKy1Kyj5RKzEpaPgtOkAjWvdvZ+q92wSnMwEjSvdrwC7vEzevvgbtZ/XUYO7az9YG7ZCTnLAPtqLRY4B/cFbQBQnhWnppZywr46QjpiOkI6SY6YidiZeDErRJGKbZWzGSgCInZH4mOJMx3GDwIPuJ2vErto140JMZEbxzLjnXHMuPv+45Sd44bNOF//8QAKBAAAwAABQQCAgIDAAAAAAAAAAERECEwMVEgQEFhcYGRobHx0eHw/9oACAEBAAE/IdZ/LX6F7RDmvd8nlhFjVsxFfPld1++sYpWeWT7r9tYHG8D3Su5bIuQghsKB6Zdzfjq4XGU3ct3TMGGHri3ORszuMvW+QY8DExvmdzX4WSxOMZuXndxkwGPA5w083cMmN7Ia5iDDR5vHhn3Ff2dDRYs27I9T8n9oep+T2Iq5KuUVc9hse7YvVCY0pSmXyUx6FmstRTthDntp0pcCZllQ921F3ib6tGMsz8BjD8j63o9Fclcs9zG3OseBmkIy0QV/xBSMRF1vApSlGxsvVSlKXFDWwkBVum2RY822aDx/lCZSlG9ajY4twG72hOwkq63n1YFKXUpSlxa4p349bz6hsil7BvE8xZsQraiJdbz6RshMTKUpdVQ/vCp5GcV/w+NDZ+I2QmJlKUpSlKUpSlKXBEF9Xmy9QyQ1s9DY+I2QmUpSlKUpSlKUpRMTMoce0/TQ2PiZAmIIUpSlKUpSlKXEySo7ZjNofjKZQgsRSlKUpSlKUpR4eXLOSflopfVH+xugorApSlKUuLHhS6SNpPnSnfmLpeiisClKUpSlG8C37j/jSRMSVPokxX+kE2f15DCbbfX+SvD7EVpn95hlU/z7F3fXhovM8TzRbr8itD8xEOLlkiA/9QJRRbdpuiczM2r4QfhV9o/6Ef2iF52w3j5DGyB8ym2j/9oADAMBAAIAAwAAABDzzzzzzitXzzzzzzzzzzzy2HfTzzzzzzzzzzztHNbzzzzzzzzzzy1GH7zzzzzzzzzznoO7zzzzzzzzzzyLx/jvvLzzzzzzyaeDXPFeR3fzznf+g0Al33UO/TzytKVU4uXrJEIf7zzizeaV0JOmNur3zz1pJEME0L70wLzzz9SktsoRRMPhHzzzjKsEZxuNQ4Z7zzyzAb8wwUXN8nzzzzzzzxwvJPl+3zzz/8QAIxEAAwABAwUAAwEAAAAAAAAAAAERIRBBUSAwMWGhcZHh8P/aAAgBAwEBPxDqcpNxrgxuDx3fpRYhW3hjGNt3PwoeRIff3IJsNRD32GM237bUIIVIJggk757kd+WJjlLQ1wVwRk7GUfhCRBmSaFY0SB7X21SuFclcilIJEGiEEhAweBHsF6rUe9ZCEJqQzTecjU1+3VQhCEIII4SsoJvr9Y0PQhCEIQTGmeX+z0fWPSE6YQdQ3vQ0/KtIQnUt/HpySuB7x7gxjqEJU9IQhBbD3x2XleD1j9Am+ae1/oauT+oPq3o//8QAKBEAAgEBBQgDAQAAAAAAAAAAAAERIRAgMUFhMFFxkaGx0eGBwfDx/9oACAECAQE/ELysIJTyG0wSG06d21612HsYpKcisMNTz2i9ZTmNA3InV3NpHGVXxy/aiwYhTYlGEqbNowkOOKyoIbdlRfe0qpTFx9CGPTkLOnRy7I1SDzJWw/lZqOwQkhIrCEiZNRaHInatzZH6v0PK6/Qw5g5EiuNaoKy5bNC0lbMtH2EGZ7RXGbZVFiq1NV8/QnKlW9eKVl3gWW7oPUliNcZJW9KzAV9BIqVITVO/LVXEngMQggi5BAk2JPyj7uJKNH2KoyxBBBBAkR48XBzMvfc11UD3Tr4NB18E6hwDWCGOzkSE7Fvkcv42KWJhqsGj8ieEP5FuFzE3GOfoUnPL8+iDMXP/xAApEAEAAgEBBQkBAQEAAAAAAAABABEhMRBBUWFxIDBAgZGhwdHw8bHh/9oACAEBAAE/EO+eKhuyiXIfKXgBy8W5TQKOrib6yyH2AlRYOOA+KVMfhjTEbNsOXyHxWi4/6Q0zBKZg1lhNo31MPiat/L2uUR0Sk2SifwPz4mhnDLq/zZgbPUjAe/HsfHiFAVwE4TLjpujSVE1YgZE0E4Tjzavv4i6bdum+CGOiasY/fnruPX/PE2If0XEjomvNSXur3fQ9PEZ/3HQ2ioZmZa2ReQy+0AADAeHUOgtZpnOhwI7EgagFsl6DSPSvnxF67Bl/ExsS5dKekcnQreFkR1HyT+EgunopZ905D1n9ich6yx39+FS3Q4c4pVW1ysWLLhAJSBgBB2LcdhrvllhHnEFSYt1IgFWOR7xSKC2bwvQ4GxdpBgy5cvaM0kPelyzFSWi3TTu1DVqUz3kRvYReyMGXLlxYxVKVmNbMatYJdJPS6+O24TTonMes/vT+lEap84osuXLly4MuXLlxYrgUaiKxlwhZuuJyA3Xg/cqMIXI7foI9+wGLNgxcuXLg9kGLuAR8IYrRYjjHCmcHrIL7de4s34uW7HVHYFiy5cuXLly5cuXLhGGA3F3RMPUGNJZG5Jfbs2FxDYMLLiy5cuXLly5ew7HGVEyyxuJO19uzH6zMKEkXFly5cuXLly5cWLFiymYWZNYeSIXXfNB7vkV26H8azC2qdgLly5cuXLly4sZaogOIkElsIDLU5KaYPD7dw6/NhmFtU774eIASKWIo5c3B4upFDEBE3ncKn/VMwtiSd34B7JcLQUY4dpl6KfHcarh88wOyhO5gDDDJBXfK1mMqMwBqCjguX/e4NpxPvKtoCCDnhJJJ2IYYYYays1gU5iBm0mlp5dzfuL2kxwgkjmbEgkkk5uwFixbJxKTlxsQYxAAAADcdyhZaIeWfiVEOaEHPCefOdsSCTteMBUCa/YR6WvuhCCRHRJk+37n9p+4F/wBfuA0idA+YV7Q453lrpqPOcM0Iw9HRh8ZzYc8IOyBEx67J9PC0ym/4evgdXAQkl6SzrPyRlDf1GTzghp1hJs68ZXjHm2ARG3FPmxE0sg1PmAAACgN3hF1Ucn1GYyvX/wCbin3A+If9D6QLVvxwhfdB9RS/xbSOic3rvVgAAADcdz//2Q==;" vertex="1" parent="RNrIEYivnAnbzNg7K0AD-9">
          <mxGeometry x="663" y="65.86666666666666" width="21" height="21" as="geometry" />
        </mxCell>
        <mxCell id="9fDAD1BXsFrjNk6evdLn-11" value="" style="dashed=0;align=center;fontSize=12;shape=rect;fillColor=#ffffff;strokeColor=#cccccc;" vertex="1" parent="RNrIEYivnAnbzNg7K0AD-9">
          <mxGeometry x="161" y="114" width="50" height="25.333333333333332" as="geometry" />
        </mxCell>
        <mxCell id="9fDAD1BXsFrjNk6evdLn-12" value="0" style="text;fontColor=#000000;verticalAlign=middle;spacingLeft=13;fontSize=14;strokeColor=#E6E6E6;fillColor=#F2F2F2;" vertex="1" parent="9fDAD1BXsFrjNk6evdLn-11">
          <mxGeometry width="50" height="25.333333333333332" as="geometry" />
        </mxCell>
        <mxCell id="9fDAD1BXsFrjNk6evdLn-13" value="" style="shape=rect;fillColor=none;strokeColor=#cccccc;resizeHeight=1;" vertex="1" parent="9fDAD1BXsFrjNk6evdLn-11">
          <mxGeometry x="1" width="21" height="25.333333333333332" relative="1" as="geometry">
            <mxPoint x="-21" as="offset" />
          </mxGeometry>
        </mxCell>
        <mxCell id="9fDAD1BXsFrjNk6evdLn-14" value="" style="dashed=0;html=1;shape=mxgraph.gmdl.triangle;fillColor=#cccccc;strokeColor=none;" vertex="1" parent="9fDAD1BXsFrjNk6evdLn-13">
          <mxGeometry x="0.5" y="0.5" width="10" height="5" relative="1" as="geometry">
            <mxPoint x="-5" y="-2.5" as="offset" />
          </mxGeometry>
        </mxCell>
        <mxCell id="9fDAD1BXsFrjNk6evdLn-15" value="" style="dashed=0;align=center;fontSize=12;shape=rect;fillColor=#ffffff;strokeColor=#cccccc;" vertex="1" parent="RNrIEYivnAnbzNg7K0AD-9">
          <mxGeometry x="229" y="112.1" width="120" height="29.133333333333333" as="geometry" />
        </mxCell>
        <mxCell id="9fDAD1BXsFrjNk6evdLn-16" value="" style="dashed=0;html=1;shape=mxgraph.gmdl.triangle;fillColor=#cccccc;strokeColor=none;" vertex="1" parent="9fDAD1BXsFrjNk6evdLn-15">
          <mxGeometry x="1" y="0.5" width="10" height="5" relative="1" as="geometry">
            <mxPoint x="-25" y="-2.5" as="offset" />
          </mxGeometry>
        </mxCell>
        <mxCell id="9fDAD1BXsFrjNk6evdLn-17" value="Upload" style="html=1;strokeColor=none;fillColor=#0079D6;labelPosition=center;verticalLabelPosition=middle;verticalAlign=top;align=center;fontSize=12;outlineConnect=0;spacingTop=-6;fontColor=#FFFFFF;sketch=0;shape=mxgraph.sitemap.upload;" vertex="1" parent="RNrIEYivnAnbzNg7K0AD-9">
          <mxGeometry x="370" y="107.66666666666666" width="50" height="38" as="geometry" />
        </mxCell>
        <mxCell id="9fDAD1BXsFrjNk6evdLn-18" value="&lt;i&gt;&lt;font color=&quot;#c2c2c2&quot;&gt;comment box&lt;/font&gt;&lt;/i&gt;" style="whiteSpace=wrap;html=1;strokeColor=#E6E6E6;fillColor=#FFFFFF;" vertex="1" parent="RNrIEYivnAnbzNg7K0AD-9">
          <mxGeometry x="450" y="112.1" width="200" height="25.333333333333332" as="geometry" />
        </mxCell>
        <mxCell id="9fDAD1BXsFrjNk6evdLn-19" value="" style="shape=image;verticalLabelPosition=bottom;labelBackgroundColor=default;verticalAlign=top;aspect=fixed;imageAspect=0;image=data:image/jpeg,/9j/4AAQSkZJRgABAQEASABIAAD/2wBDAAYEBQYFBAYGBQYHBwYIChAKCgkJChQODwwQFxQYGBcUFhYaHSUfGhsjHBYWICwgIyYnKSopGR8tMC0oMCUoKSj/2wBDAQcHBwoIChMKChMoGhYaKCgoKCgoKCgoKCgoKCgoKCgoKCgoKCgoKCgoKCgoKCgoKCgoKCgoKCgoKCgoKCgoKCj/wgARCADwAPADASIAAhEBAxEB/8QAGwABAAIDAQEAAAAAAAAAAAAAAAECAwQFBgf/xAAaAQEAAgMBAAAAAAAAAAAAAAAAAQMCBAUG/9oADAMBAAIQAxAAAAH6oAAAAAAYcZmvIzcrZ688no7tOUbVYAAAAAAAAAADS3dGjPh7els+X6ea+DDbh6dhzeo5oZQAAAAAAAAAA5/Q5Wnby8lZ810mC+tE+k3+b0vVcsNisAAAAAAAAABwerx+Pt4qZsHG3MGvk2rJ9JnPV8gMoAAAAAAAAAGthOjrXr5vo49XZ09W3W9V5v2fX1g7WiAAAAAAAAABHI29Pk7VK5I0L9fS6eLXsxen8/3+3pyrPQ1pRMgAkAAAAAAw5eRqW1K8bblCJmYmYknKEwyiysF1KROXNzcFeXqmlu+h54WQAKQu5TRu6rlQZtWac7ZmIU5ShEzNZmLKsosqJhXGWDJqa9mvgx55s9L0629TyAsxAYc2tTlz2OeBv3UiYtRWvKVWGVlZRM1SsqLKi0QLQHO9LxNS6PYq29HzQkA0t3Q17OXfXyeZ6WRVljKIiZRELKi6otECVRKsYzelcUTTWjFln7Pcpf1vGDKAHN6XL17OPk1svlOrmnFaYyRRMXUQuoldQXURNlBaIEa23ROp6Phew7mmHW0gAHJ63I17ODk1snlutntgtEZmKYZGOTIxyXUF4rBeKwXnEM8YqSwes8X7jsau0O1oAAOT1uZTZ5LJrX8x19i2tbGNmde0M84ZhmYpMrHMRdQWrETMxFScE7V0Z/WnpOUF9YADS3Yxn5rb3Tk7/hp9xMPDX9ry8J4V8NNDZ251rYTsTgRGdhGZiQy1x0lOfQ9Ju1ekHouUAAAAAABXh95Xn4PS+k63P2fAT7DDr3eWj1Mw8q9Zlyjxuf223dXwe8dHUCzEAD//xAAmEAABBAEDAwUBAQAAAAAAAAAAAQIDEQQSMEAFIDMQExQhNBUk/9oACAEBAAEFAt5Xoh7qCKi8uZ2mNHliOojfrTk5ngaoi+kT9MnJzfA0T0cpC7VFyM3xJ6KKpgrcHIzF+/RVHKdP/PyJV1PFHCkDPbi487qZ6OHGFH7k/ImdqcKOHGFH7cPHndTfRw4hbrm46/SPXU4ocg5DBT/Tx53dqtMdNE9oakLQtOHK/Sm9Yyat1VpHO1LuqorhXmG7XBtzuvesco5wrjpyVjdz/plllqWLvKSDnfePC6d7Wo1vdN4+GqHsxtlxnxub35Hj4jjWsUjV1N7svxIvDVRzh6/WH+buzfC3huUcoiK97G6Wd2f4G8JR5HBJMYmI2DY6j4G8NyEUqwSp9p39T/O3hqpIYS6sXv6p+Zq+ll71ljlHqYrPbx+/qf5UUsssvesc4wMVZH7HUvyIWWWWWXuKdPRrsrZzUvEssssssssvacpg/s2V+0+Hjnw8c+HjnxIBcSBSfpqEjHxLZZZZZZZZZYqiqdKgVOC5qOSbpzHEuLNEWWWWWWajURQyzLjdOYziyQRSC9OgU/mRH8yI/mRH82ETp+OgzHhZtf/EACYRAAEDAQgCAwEAAAAAAAAAAAEAAhEDBBASEyAhMDIUMUFRUkL/2gAIAQMBAT8B1ASYWRCfTw78tLuE4LBOyIgxyUBLxcFV7nkszf6QTnYRKJnfjaMRhNEbJqtb/TeSi2N1Ka5Wnd6jipMxHVChZOL2nDCYvCyVkprYEa2hEhokp7sTib2dgoUKNEKL6lLMGil3CIUa4UL0nGTN9HuLoUcFqc8bfGij3HHa+o0Uu44nHCJVSoahk6AYMry2/S8tv0m2phQM6qzsLDwte5npNtf6C8pi8pi8pida/wAhOeX7nR//xAArEQABBAADBwQCAwAAAAAAAAABAAIDEQQFEhAgITAxM1ETFUFxFDJCUoH/2gAIAQIBAT8B3nO0tLihjy7ooMSJeHzzcT2XfSYaQlLCHBNdqAcOZjnaYHILqsL2W/XMzKSyI0VDGZHBoTRpFDlyPEbdRUji86indVlcXWTmY2XWdA+EWpzPCy0j0v8AVqCvk4qf020OpVq9trUi9DFuYbao3+owO87SaFr80eF+aPCmkL3air2WrVolPJTIy40FEzQwN2zmo3LWtSJVq1atWrXBYXFmF9HpuYrsu+kHK1atWrVq1atNbZTBTQNuK7Ltlq1atWrV7cuZE4avncxXZcjysrB1HcxHaciFSrfij1uDVBAIW6RuOGoEL25/le2v8p+XyAcOKcwjgVSpUqVLCRl0grkyRMk/YKTLh/Ao5fIvb5V7dImZb/YqOJsYpu5//8QAKhAAAQIDBgYCAwAAAAAAAAAAAQJAABEgAyEwMUGBIjIzUWFxEkIQkaH/2gAIAQEABj8CYXOyfzc7NA7OjSkud6d3IFO7kmlKewce6fCb3w7m9xLU0pT5czpHpx8RUDpGcZiM2nlhflizMTYjxdiSGTIeTWW0hlqYCRkKy1Kyj5RKzEpaPgtOkAjWvdvZ+q92wSnMwEjSvdrwC7vEzevvgbtZ/XUYO7az9YG7ZCTnLAPtqLRY4B/cFbQBQnhWnppZywr46QjpiOkI6SY6YidiZeDErRJGKbZWzGSgCInZH4mOJMx3GDwIPuJ2vErto140JMZEbxzLjnXHMuPv+45Sd44bNOF//8QAKBAAAwAABQQCAgIDAAAAAAAAAAERECEwMVEgQEFhcYGRobHx0eHw/9oACAEBAAE/IdZ/LX6F7RDmvd8nlhFjVsxFfPld1++sYpWeWT7r9tYHG8D3Su5bIuQghsKB6Zdzfjq4XGU3ct3TMGGHri3ORszuMvW+QY8DExvmdzX4WSxOMZuXndxkwGPA5w083cMmN7Ia5iDDR5vHhn3Ff2dDRYs27I9T8n9oep+T2Iq5KuUVc9hse7YvVCY0pSmXyUx6FmstRTthDntp0pcCZllQ921F3ib6tGMsz8BjD8j63o9Fclcs9zG3OseBmkIy0QV/xBSMRF1vApSlGxsvVSlKXFDWwkBVum2RY822aDx/lCZSlG9ajY4twG72hOwkq63n1YFKXUpSlxa4p349bz6hsil7BvE8xZsQraiJdbz6RshMTKUpdVQ/vCp5GcV/w+NDZ+I2QmJlKUpSlKUpSlKXBEF9Xmy9QyQ1s9DY+I2QmUpSlKUpSlKUpRMTMoce0/TQ2PiZAmIIUpSlKUpSlKXEySo7ZjNofjKZQgsRSlKUpSlKUpR4eXLOSflopfVH+xugorApSlKUuLHhS6SNpPnSnfmLpeiisClKUpSlG8C37j/jSRMSVPokxX+kE2f15DCbbfX+SvD7EVpn95hlU/z7F3fXhovM8TzRbr8itD8xEOLlkiA/9QJRRbdpuiczM2r4QfhV9o/6Ef2iF52w3j5DGyB8ym2j/9oADAMBAAIAAwAAABDzzzzzzitXzzzzzzzzzzzy2HfTzzzzzzzzzzztHNbzzzzzzzzzzy1GH7zzzzzzzzzznoO7zzzzzzzzzzyLx/jvvLzzzzzzyaeDXPFeR3fzznf+g0Al33UO/TzytKVU4uXrJEIf7zzizeaV0JOmNur3zz1pJEME0L70wLzzz9SktsoRRMPhHzzzjKsEZxuNQ4Z7zzyzAb8wwUXN8nzzzzzzzxwvJPl+3zzz/8QAIxEAAwABAwUAAwEAAAAAAAAAAAERIRBBUSAwMWGhcZHh8P/aAAgBAwEBPxDqcpNxrgxuDx3fpRYhW3hjGNt3PwoeRIff3IJsNRD32GM237bUIIVIJggk757kd+WJjlLQ1wVwRk7GUfhCRBmSaFY0SB7X21SuFclcilIJEGiEEhAweBHsF6rUe9ZCEJqQzTecjU1+3VQhCEIII4SsoJvr9Y0PQhCEIQTGmeX+z0fWPSE6YQdQ3vQ0/KtIQnUt/HpySuB7x7gxjqEJU9IQhBbD3x2XleD1j9Am+ae1/oauT+oPq3o//8QAKBEAAgEBBQgDAQAAAAAAAAAAAAERIRAgMUFhMFFxkaGx0eGBwfDx/9oACAECAQE/ELysIJTyG0wSG06d21612HsYpKcisMNTz2i9ZTmNA3InV3NpHGVXxy/aiwYhTYlGEqbNowkOOKyoIbdlRfe0qpTFx9CGPTkLOnRy7I1SDzJWw/lZqOwQkhIrCEiZNRaHInatzZH6v0PK6/Qw5g5EiuNaoKy5bNC0lbMtH2EGZ7RXGbZVFiq1NV8/QnKlW9eKVl3gWW7oPUliNcZJW9KzAV9BIqVITVO/LVXEngMQggi5BAk2JPyj7uJKNH2KoyxBBBBAkR48XBzMvfc11UD3Tr4NB18E6hwDWCGOzkSE7Fvkcv42KWJhqsGj8ieEP5FuFzE3GOfoUnPL8+iDMXP/xAApEAEAAgEBBQkBAQEAAAAAAAABABEhMRBBUWFxIDBAgZGhwdHw8bHh/9oACAEBAAE/EO+eKhuyiXIfKXgBy8W5TQKOrib6yyH2AlRYOOA+KVMfhjTEbNsOXyHxWi4/6Q0zBKZg1lhNo31MPiat/L2uUR0Sk2SifwPz4mhnDLq/zZgbPUjAe/HsfHiFAVwE4TLjpujSVE1YgZE0E4Tjzavv4i6bdum+CGOiasY/fnruPX/PE2If0XEjomvNSXur3fQ9PEZ/3HQ2ioZmZa2ReQy+0AADAeHUOgtZpnOhwI7EgagFsl6DSPSvnxF67Bl/ExsS5dKekcnQreFkR1HyT+EgunopZ905D1n9ich6yx39+FS3Q4c4pVW1ysWLLhAJSBgBB2LcdhrvllhHnEFSYt1IgFWOR7xSKC2bwvQ4GxdpBgy5cvaM0kPelyzFSWi3TTu1DVqUz3kRvYReyMGXLlxYxVKVmNbMatYJdJPS6+O24TTonMes/vT+lEap84osuXLly4MuXLlxYrgUaiKxlwhZuuJyA3Xg/cqMIXI7foI9+wGLNgxcuXLg9kGLuAR8IYrRYjjHCmcHrIL7de4s34uW7HVHYFiy5cuXLly5cuXLhGGA3F3RMPUGNJZG5Jfbs2FxDYMLLiy5cuXLly5ew7HGVEyyxuJO19uzH6zMKEkXFly5cuXLly5cWLFiymYWZNYeSIXXfNB7vkV26H8azC2qdgLly5cuXLly4sZaogOIkElsIDLU5KaYPD7dw6/NhmFtU774eIASKWIo5c3B4upFDEBE3ncKn/VMwtiSd34B7JcLQUY4dpl6KfHcarh88wOyhO5gDDDJBXfK1mMqMwBqCjguX/e4NpxPvKtoCCDnhJJJ2IYYYYays1gU5iBm0mlp5dzfuL2kxwgkjmbEgkkk5uwFixbJxKTlxsQYxAAAADcdyhZaIeWfiVEOaEHPCefOdsSCTteMBUCa/YR6WvuhCCRHRJk+37n9p+4F/wBfuA0idA+YV7Q453lrpqPOcM0Iw9HRh8ZzYc8IOyBEx67J9PC0ym/4evgdXAQkl6SzrPyRlDf1GTzghp1hJs68ZXjHm2ARG3FPmxE0sg1PmAAACgN3hF1Ucn1GYyvX/wCbin3A+If9D6QLVvxwhfdB9RS/xbSOic3rvVgAAADcdz//2Q==;" vertex="1" parent="RNrIEYivnAnbzNg7K0AD-9">
          <mxGeometry x="663" y="107.66666666666666" width="21" height="21" as="geometry" />
        </mxCell>
        <mxCell id="9fDAD1BXsFrjNk6evdLn-21" value="" style="shape=image;verticalLabelPosition=bottom;labelBackgroundColor=default;verticalAlign=top;aspect=fixed;imageAspect=0;image=data:image/png,iVBORw0KGgoAAAANSUhEUgAAAZAAAAGQCAIAAAAP3aGbAAAABGdBTUEAALGPC/xhBQAAAAFzUkdCAdnJLH8AAAAgY0hSTQAAeiYAAICEAAD6AAAAgOgAAHUwAADqYAAAOpgAABdwnLpRPAAAAAlwSFlzAAALEwAACxMBAJqcGAAAgABJREFUeNrs/XecJMl53wn/nkhTvtp3jzc7s34XWAALDxAAAZKg6CSKpCh7FKnTSaJ45MujJFLmXr66u1cn3YkSKd6dROkkiuKB3gAiQcK7hVmHxTrs7njTM+27y5s0EfdHukhbWd09u9OzFZ/59GRGRmZlVUZ883HxBAkhMCmTMimTchAKm/wEkzIpk3JQygRYkzIpk3JgygRYkzIpk3JgygRYkzIpk3JgygRYkzIpk3JgygRYkzIpk3JgygRYkzIpk3Jgijr5CSbltSrCGprNFbO5YrbWrO6W3d2xejt2b8fuORsNbg640RO2wQcdwS2730y8Dqk600pKsUZqgRWqTC8rxZpamVOr82p9Ua3Oq5U5rX5InzupTR8hNunzB7jQJHB0Um5pEZZhbF8bbl0xtq4MNy8b21et1rrRWDabq3Zv59Xu7kzRZo4V5k7psyf1+dPlY28oHn6gsHh2QrGDUibAmpR9K8I2h+vnB6uvDFZfHqy9Mty8ZGxeMRo3IPhtPQYUrXj4gdKRB8vH31Q5867yiTczrTh5mrfpw5oAa1J2WQQfrJ3rXX2qd/0bg7Vzg9WXjc1LgtsHfkgoWvn4I5XT76iefXftvg+q1fnJo76Nns4EWJOSvxjb17pXnuhdeap79cnelafsQWtfLqtopBZI1aHopGqkaMRUKBopGhHB+esobURgCsnn2qYAIDi4DW4LbsM2BTeFbcIyhWUIayBMQ1iGwC56OlH5xFumHvyO+gPfXrnrnaRokz7w2pYJsCYlqwhu9a481T73+c75L3WvPmW113fZzxj0EtPKpJdJL5FaYFqJtAJpJVILRJR9E+McEpH+7VULmANh9LjRF0ZPDLt80OHDrrCtvP1fKdan3vi9s4/+UP2Bbye1MOkbr0mZAGtSYkPeMrpXnmif+3zn3Bc6l77Kh92xTmcqFapUqLJChfQKK1RJrzCtQMikUvSgkI4wBWAg7x8UEANTQArgiF4MIAjLbc8tgMM2YZuwDXADErki1zcHot/izr9uwzb6o4eDS663/nD9wQ8TUyYd5tUsE2BNijOARe/6M80X/qT9yue6F7/CzX5ePCkoTSulKVaoUrHOCjWmlWhUp1M8+ijOPyIVTIH7VwEpYCpIdWtcWhGIASw4XaaYUykfDSoVcIOsIawerD6sPswOhk0MGxi2AnQJALAM0d3h3R27s233mjx7cOgzx+be/WPz7/kxfeb4pAdNgDUpt7zYvUbr5U83n/9464WPm621XD2GoTTFyjNKaYaVZ1ihxlIVOpcdCpizoXqEIsChD7kkAiMiwN32Kz0wkUSocbGl+H+JfPYpbr0QMFoYNjHYRHcNvZsYNH1+cVu0t3hrw25tWFmSF7Gph//Mwvv+ztSDHwbRAesBE2BNyu1f+jdfaD7/x60X/qRz4cuCWyPbayWqzCmVeVaeUUpTjOLzI8iDGZgnE3lgAnmEkjkVZpZbkx9bLLo9FrakXZB/twqIwR6iv47OClqX0boCy3C+36DNG2t2Y9Xqt1NDNMrHH1n6jn8w++gPgSYTSCbAmpS9c+rG8ztP/fbO078zWHslD6Sq80p1QanMs0KVhcAUYVUAFI9QQJRWebHFAKJITX5sBaiSD+XDVvDP2wXQXUHzMpqX0LgIbkLA6PHtm9bWjVSZq7Bw5tCHf3bunf/NxKU4Adak3FpOqTrVDinVBaW6oOhlSiFUGFXuBhJQFcdWdDcftuIb42FLAla4Mhe2HHJxE40L2H4J2y/TsA2gs21vXrd21qzEqNjC4t3Hvv+fT7/pz0263wRYk5KrDNbObT/+6ztP/fZITpWmWf2wUl9SyzPMR00yoaJ7JNXvAlssRfLKh62QSkhjYisibbFc2AIAgfYy1p+hjWdh9qyh2Fy2Nq6Z5jBhHFXPvufYD/5C5dRbJ71xAqxJSS52b2f7yd/c+tqvdS99LaOZolFtSakfUmpLilpIE6YoocLtMHRrsBXYs6S/+bGVKHCNha0Ip1gKtgBhY/sVWnsa268Iy966aa1fMQfdBHFr9u1/+dj3/3Nt+uikc06ANSn++BHt81/Y/OKv7Dzz+8IapnJKpfoRZfqoWltSfH0uC1IU3hIiHJo5JraIpAbjYosRUZJWmBtbFI7nGgNbsW25mF2sPkE3H8egub1irVw0h70otlihevi7/vHSh356YtiaAOv1Xqzu1uZj//fml35luHExlVMaTR1Vpo+q1YUcnCIktgCQMo15t9iK0AoYH1tyoAONia2YJgjaPbYEx8ZzdP0LorO6tWzdvGBYRnRklY4+fPKv/YfKqbdNOu0EWK/H0rv61Prnfnn7yd9ME6lIwfQRdebEHjkl1YiMuc0+tihcMya2Qg2YJIjlxJZMKMoKfUjDlhdMn27bSscWgK1v0tXP2I0bqxfN9WtmlPDEDn37zxz53n86mdwzAdbrpQhuNZ75g7VP/0KGlao8w2ZPadPHFEWjLE7lgZRcKWyMmEOcgS1f+JIQloot5+O860R1SacwIiaJY6HoeTAVpKWHyNOY2IrbtjKwJbD+LF355HBra/kVo7kRpXzpyEOn/9vfLB15cNKZJ8C6kwsfdja+9O/XP/uLxtbVxAZqgWZOqLMn1WI9MXIqIk9RLkhReCgKkSO/VQRb0t8oyOJFSH8TD4r0s+T7dD7Ej7ZXwTQwHaSRokMpgpWglqCWwdQUl+JIbMmh/Er0G3ELy1+iq59rrg2uvzQ0BqE7ZFrx+F/4pfn3/reTXj0B1h1YrM7m+uf+zfpn/01als7aojJ3l1Y/pAQv+0RUJYhUNApSac1ECBREo9iXUcRu2iTDS6TeoXwo5DnQoJZJLUOtQqtCq6EwA6UYkrx2ja3BDp3/Q77xys3z5vo1M3Kvc+/8b0785X87yRc4AdadU8zmyuon/sXmY/8+MWuCotLsKXXutFqosRRcxC3iKUyhnIphSv0eZ9GJsUAWh9coco3ElvC+hFOpFF1yFedQnENhBqSGYk3BxsDWyhN08Y/bG/2rL0RFrfLJR8/++Me0qcOTrj4B1h2Aqn+++cV/x81B/KhepoWz2uxJlWmUhaqRIhXlUwyzmuzjjF+RyaUcyqAQWdgKKvJhy98gBYU5lBdRPoTyIVLLqSHyjqsxjq3BDr34X+zGzWsvGjtrofmb+szxsz/xx6WjD0/6/ARYB7JY3a3VP/1fNz73y4moKs+wxXu0qcNqaJE2im3RHjmVycHcHWw0YvIjTGRfJNIyk1wZ2BLSrYvEo4TiLCpHqHoM1eNgWr4QeUDYdO4PsfrUxjVz+RVDHnlKsX72v/949cy7J51/AqyDVPiws/aZX1z75P+WuKRVbVFZulerzCshFCRLVWmookz6JEKKxuTR3kuOHKNZ8Mog13jYSmeWt6HXcOTtpM+iMANWyIWtlcfp3Ee7O9alZ4emFKvFtNLZv/tHtfu+dTIKJsA6CEXwzS//x5sf/SdmazV+cOqwcug+vTjNoqhSiiguQJ8hrQa14spN9hD2QAy3MdyG4Rnps4zilA9SeXKG7gJhYgSjUg/H4ZVBrluDrem7UJoDKSANWo0KM9BnPLdjOrYaF+m5/2T0rAvPDAYdPmHWBFgHrLRe+tTy7/wP/RvP50MVoXyEaqdROQZ9BoJD2N4/eVtA2DDbonsF3eu+MSadU7khRbhlshWSUDISXtnk2hW28jCLVCw8GCQmdDmlQZ8ifQZaNcysMLa6q/T0L9umdfGZYWfHlpl19099snr2PZNBMQHW7ViGm5ev/9ZPNp/7r/FD1XnlyIN6eZYJHxPFeZp9I2pnoRRjeIpse7vgEBxmU+y8CLsfwlD+qNHRhNoXfonx+SUyyZVxNEVkGgtbxRnUjkvylOqZ21WQCrVA2gy0mmfkirkUu2v09C9xi19+dtDcDJillKfv/XtfKh15aDI6JsC6jQo3+6t/8s9WP/Ev4hNrytPs8AN6bUlxnw1TMHUfzT2C8hFwG+DgaZzyNsDD8OLghmi8ALOTjirKDam92N13a3EfAa8kNmULXGnYytQQZWaJ6jEUZ0jW/lx4qcGGokGtUxq2Oiv09V8WHJeeHcgB8frsift+7gmtvjQZJhNg3Ral9eKfXvvI3xluXo7UayU6/IA+e1x15qWA6Vh8G82/DYoe8MhhlrMhkrYFD8tZ3JWz7KHY+UYsTp1yQCofuXYtZuUKX0ipz4pjQGooA0TS6enYShK1xNQZqEUKOBUTspgC0ty/WoXUipTY3sPWznl64b8IjgtPD9qSblg98657fvpzpOqTwTIB1mtZzNbq9d/6qZ2nfitSzxQs3aMvnNWYAhCEUqSld2LurVAKEFamPJVkupKBBe7LWaJzEcPtfJzKJFd2JtI9sCrpiMh14i4isHaHLY9ZYuYeB0AUlbDCQpazAhBTwXRSylAKUXv88mN05dO2Jc49OZBzxi9+8CeP/9C/ngyZCbBes7L1lV+9/ts/FQ9ZmD6qHn1I10oEgmAalt5NS+8G08BtCCsfpxJlKxsQQQ246C5jIC2Gmj8aK9dknX0sIje/ssm1O2zlELWgYOpMkI5mtJCluvOxmUasEPYkMnrpN7F93hyIl7/Wl2Mdzvyt35/kWZ4A6zUoxva1q7/+N1svfiJSX6yxY2/Uq25oFWHuTTj67dAqAX24tRvZKqQbCl/OEt1rGG6PnqaDeI6HkXi6JXNzko+KPOQSKbFamdjKY9hytpmK6il/IcXcQpbmkys0MxFET/8yjHa3yc890fcHpVqdf+D/+7xWPzQZQRNgvXpl6yv/6fpv/aQ9aMuVjGHpXn3xbs2drlw/Tce/R5QPh0QqZxHjkSZ2/2+cU269uy3a52APUyiTH1K0b9QSuzucP6g9Xd1LwFaGPT4mapGG6olARMorZGkyv8jJluNkuRm26Rv/DkKsXzWXXzH8O55+5M+e+dt/MBlETlEnP8EtLVZ74+r/8981nol2uNqCcuyNurt8llrBye+mubd4bAoDiMtGKMnrFzerQ64UUr23zYcercblVPZs5z3IVmlL1IvEwyJ2mgikxYAyFGpPJGGLvHrnWzvYClf61wxOEd4MAQFB3mUFICC4k5BLQJDgXkovDhAEARzEIQiw3V1hgxiEUy8EUwgc3AQxFKdw/L249sXFk1p7y/YDHRrf+MPGsx+dfuP3TUbTBFi3trRe/MSVX/1vIisqM5WOPqTPnVTdUbH4VjrxvVAKELbgsrHc8g1PLrMgGdEj2wGqRHAWhEQ6AQgYO7ucprMbPI1sJrLOonAzgQQSJZIrJAdRFFuuoJQTW+RBUDpEwm3p/KokvDz3HGABxcAAAeLuNjmNefB0BAdsCCaYCnDiBgTnx9/Htl5Cd+PEg4WXvtK3TPfLXP+tn6w/8O1MK03G1GSJ2ltShG0u/97fP/9LH47Qqr6o3PetJZdWxTl68O/SXX8RSgGCi0QVL+jfMTEq2BaS2CWNhwi/hC2MhjeMHU0EwW5ovg8FYhcBJK+QGoda2r88RMtzrn+3ifccu23/nqOHfEZHLgIpCSqiUzQpPXWqEJ706r4eBMKPAJHHEfPb+g2YKpQSuElWR5z9syBoBTp6TxDQYGxdXf/ML06GFSY2rFtRhpuXL//7H+5eeUKuZAqOPKjPn9YAgAhL76LTfw6kOn5A4Vum9tstGDQwm6K3ki4ojZncPZVB+Rq6XE/Yym4XrRw5BTrNSuVsizyVEWO8VF86AqbLKf3ItVjltmTJJi1hk9kW5cPsld/DxvMQOPfEoNNwFUOlNPXw//+KUp5+nQ+uiYS1z6X5/B+/9L+8OUKr8gy79/2l+dMaCChM0wM/Tmf+okcrW0Qj1NNsVfFtEX2lu7QSUTkLQrjOQWTKU+Hl5kMNYoCj+L/c0lX02uHrRK9CqSIVjRIVowJXTNpKqIwEpkVELelSwhxPyJJtkZEHDQ6lINQKjKY4/R0gBsKxewMhy+431z7zryfjawKsfSuC2zc/+o8v/PJ3272GXL94Vrv7PaVClYGA+Ufpzf8jpu/zxSgh7MBc5bsFczFLxGxYQqoPs8xsgQ+TSBThFBJAlkyoVPbs4V/kYhGEjbw3pBM5HVtECSTyVsEQgvode2fduvZM/+rjvdaKFaKYbUJ4Niwhgt8fniXLPSq7QWTDYphi3IJageCiOItDbwFQnmYzS4GVef0z/5oPOxNgTco+FLu3c+GXv2vl4/+LXKkW6Mw7i0ce1IkBik5n/wrd+2NgBc9nZ8XcfxG3YGwm80i3IERIzvLs7mK4NWoMJ7IgjVBjWax23TKCsDi80mSu3WFLIhEAUL9rb90ctrasnUvGzgWjcc28/OVed8sOS1jeD+5t7EnIAodWhz0Ux98HRgAOnQ0WXrX7zc0v/8cJsCZlr2Ww8tJL/+ztkaDQ6pxy7/tLtUUFACpH6JF/hEPvkdx/NsD33y0o88sXu4wWuBk2S48a+VFIjTKKR/4l6onJchONc/EwvEbcP6T1ECkHtgJRyzLF9sqwtWnalhA2uoFghe6mHaiHthGIUZGNXQtZAIiJ4izmHgShVGVTC0Hyv43P/x94fRudJ2ENey3NFz5++d//cCQodPGsdvh+3Y0IPfQeOvuX3Ogb2D6bbr1bkEMIcEsY2zkykWJUlENS5R7n67htRbQ21ZQeCbBCZgSW/5WTQhmcMIikUIZBx2ptDn0sdFZMbgX3UJ5V3cgsIvfxEQO4F67FARLgJCg1JsuNzOJeNJbzHvKCs7w3kzj6btp8AYTFk5qfyGGwdq5z4bHq3e993Q63iYS1p7Lx+f/jwi9/j0wrpuD0WwtHHtCJAUylu/8q3fvXQWpIhhJcyMmqpPq8pquATTFzlR9+BQEIYe5A2Dk8/Wmma4RFp7CstJtohkRuxQW0tE+Jn5Ihc8lfMFJPifb1XstsbgS0MrtcFq/Ks2p1UQ3ISAR7mFvIEjEhy0565biVon5SlOYB1OaUYiUYp1tf/c+v5xE3AdYui+D29d/+qWu/8XflbC16me75ltLUYRUE6NP0xp/FkfdD1vteRbcgBIdtwGyljuScnBrBjhTo7MXoHqWk7H9Mu08E5MqFLYSxRQANOlZ7K5gTwy3RuGDIEt7hN5bCyAP4UDZgSRtxS5adZMlKj9ISNg6/zRENZ48EmtDOM78vbHMCrEkZo3BzcOlXfigSy1edV+79llKxxkDA1N306D9F/bRkL09xC8aNr/viFnTe0sZ2ysCmcDxkbPwTJUEqA09JJWq6GimHZVyW0m8sBlzK+II+tiLnotcymhsD6YWExnnDHga4mjtTqC5oYaGMwE1JsArkKbEvQtbCG51vMXs0AJbd22mf+/wEWJOSt9j95vlf/PbGM78vV86dUM+8o6joBAKW3kOP/By0qmtG9btgolswSMiX6RbM4FSSWxBCCLsPuxcesRTz4lMyp0ZASq6m1H/RU9Ks8pGzMOpDQ6KfgKRnC5GPyyFscS6a64P21lCm1c65oSGlpirUlMNvqEg/FIKr2YNAqtpfIUsrY+qUIOhFKteDodp64U9et6NvYnQfr5iNm+d/8Tv6N1+QK4/cry/e7Yaw010/gBPfI0Wr75NbUMhuQTvdLei94WEjEsqQHOMemfk8Kj1WruUn8luykhxeFJvwLAABy7CtoWUZlm3ats25xbnNBU+4AjEiRowRUxlTiClMUZmiMkVjisqIkW+h55wP2ka3MeR2cB1uicZ5Q6aVotHp99YVTZqZGEwqFLCHUEoeqoRvgBfglDC70Nt2DO3kPFYWtsEHZngx/zA1LwvC1KLaa7nqavPFPz32g78wAdakjCjG1tVz/+qDw42L0tjAyTcVph2JXdHo/r+Fxbd5GRes18It6G0bTQg7N6peneTu+U8XAGyDt1d73c3BsGkYXZubgttCWBDCy8hCYCopGjGN1CKpJaaUSNFJcCG44AAMO35ppjCtqBCRbdrmMNrAHoidc0NLWk2eKXTqPfVCTQGc+YOxidDCBjegFACKuAsBxyEouwttdzvZXSi9nEiB4Ji527lebZ6tXHBvabDyktXZVKvzE2BNSmoZrl945V++32zc8GsUlU6/tVB1wmT0Kr3h76N+Gtz2IPXauAUBLrgBsw3EJ+5moyp7aeg8hMrMk5UVP+Qe47Zo3+y3b/Taa32jbWW1tgDAhojYn5lKWo3pVabXmFZh8TviNh92eeJlBzt265IpS1vE6PR7p6qLmvuxRFKQhM8swB6A6ZKQ5f4bJWTxmJDlJZ/xhSy9jtI8epvlaYUp4B5gOxe//PpMODMBVq7Sv/H8uV/4VquzGfxwOp15Z7E0xQCgOEeP/CzKRyAswH4t3YKCCyFg7IQMwzI2dsOpXSd3z806Qe2bva2L7faNnhz0tIvCLTHcsYc7tgOvwhQrzCiFKUVeejnh8zna183eWgiRikYn3z1VPaRLSWa8xFhChJllgptQSBKyKCZksZiQ5eBplJA1dRf6mwSUp5TOtkus3tWnJ8CalLy00op09l3FghMdUzlKb/qH0KchrMRECyLKoFvpFhQcdg/cGBtVCXpfnrzJ40Irzhe+da61+UrL6Oy/q55bor9l97dsYihMK6V5pTClxG/W7PDmJUNWAwHoZeX0+6aLU6oUYioCQZEoxCwAdg9MyxSyHHKNLWSJqdO0+gQI5SkWAOv6N16fg3ECrLFpVSizM+8q6iVywxce+ftQygGheCzBsasDprgFEyaX7dYt6FSajTBERsW4j1iHIhFSOdNdZRTBLbH5cnPjmw1raKdeglFxSivOFPSKqpUVtagwhUghANzk3BbWwDZ7ltG1hk1z0DQTbfAABMdg2x5s20yl0oJSXlSVAgEQNtrLUcEKQHVJP/nOabXIQkn+BMXS+0kIS7Bk7V3I4iCOyhHnQ0q1wFE4uPniBFiTEi3D9Qvnf+k7I7Q6++6iViQQMH0fPfJzUDRwa/duQX89wch2lltQJLkFnRWeG5JhOBNVI6fpYM/53dPLzuXOytNbZj/ZSlVZLNYOl6uHS+W5ArF4ltHkRSiE4MOW1dsYdNaG3fWB0U24OLdEd8XqrliFGaVQY50Vi5si8m2WHqwuPVSjkN4HV/WL5E2OMGu0JStbyJLcL66QZUMwaFVoFZjdYjUAlrF9VdgmKdoEWJPi9Ymd5XP/6oOylb1QZne/u6g6tJp9mB75ByAW5dGr4Ra0kwN57AHswd5QlR3lkFxJ4yyuM2yZy4+vt1d68UPFKX3mTG3mdE0ry91SJFyZPGpI5CJixSm9OKXNnq0BGDTN1nK3db3f3Rwm3IZn55JLoaYef/t0ZUGXsiqL8HzDSN5kEWrj2AQopyWLx4QsG4KlCFmH0bigl6W80dw2tq8VFs5MgDUpAGC1N879y/cb29dCtHqXRKs3/SzAIKzbwi3oJr1qusM4MdsvkvLS5eUUJRFqbNlq63zzxpMbcbN67XB54YHp+tFKhFNCRD4lBq8QuULzn4tTWnFqevHBaaNrNi51d650B80sM9n8vdXDb6wzhZKSuEMyV8VNWlIbPgSpSUKWIEeqCoQs7s2HzyFklRbQuKAWSHYUms2VCbAmBQDsQfv8L31YjrdyaVUiAJh9A73pH7j9zBGpXnO3IATMlvfS3jWqaA+QGgEv2+DXv7rWuNqO1JfnikfeMl89VA7zyLtjSoNXhFyhFSiMrtm82uWWYBrZJrf69rBtmr1US1l5Tj/66HR5Tg+QF18vJ2JiD5m05PgGE0okglSStnYrZInClCPJqToZffe7y7L/BFiv3yIs49K//f7eta/7NVqRzry94NJq5n5608+CmJd83X7t3YIQsA1Y/XTBKgVVowLcaffJ3UPNhi3j0mdvDFuGfEwpKEffsjB7tp50WeatneXjSXjqHxeBkQ7RrDIkrIF97o9u2CbP1fsL7NAj03NnKt6lEtfLibsFEYp0DzFLQPipx/YoZEnJZwp15zMVNYhns8KJbSfAen3iSlz5z3+99dKngx9Ip7vfUSxUmQAwdZbe9A89WtmBKzDZLRieEniL3IIOxcxWimA1FqqyOZUpW6UTrLPau/z5m3bYFTh9snbsHUtqUQqOEgSmCVLhZBELZg4731cId0Et5q2sxSXEBOTqrg/z0EorK/P31ufvqTLVX/4rYquCJ2pJFJPXJUxjlm1C1cYXsuQVDGNTdrS68wne9CAA4IPWBFiv93LzY//j9hMf8XeZgrve5tGqfpLe/I+gFDzBaqRbMJKsPY9bkI/tFhQcdgewomGilGhWz4OqXUdjJbRvXu9c+fwNOdqAKXT0bUtz90wHoCEVSgmkeXhyVieV6eEMYOf+eFDpSV4i+FxRnNGJUrNyKjqrHytPn6zUjhQpTDppdcJ47ALCYlR8mUJZYfRk4fGELJ4lZKlF59JMGq/2sDsB1uu6bH31P698/H8ORh7h9FuKlWkmnDUE3/xPoFYkNfBWuAXtXG7BUCYAE1YvnVbZqMrPqd2EjMZppVe1uz54rDhd8M5WoNbANMBdl5SICwEQc+FFEp7cCS4yvAScqwvhuOaEoEJNP/2Bw1sX2/bAlenUItPKanFaL83qpWndzUHqwkokLKoqy1CpzArvQlIYHTsmo/0UskhxWEqv++wqE2C5pXP+i1f/y38r1xx/Q6G+qAgC1DK9+R9BnwK3PFnpNXULOkZ9Z9uZM7hvqMpOmpxNqNCh7nr/yhdCtKoslk5/4HigBqo1qJ7xSHA30bBgRE4ELJdkK/KiliR4uXKVk1kYAgB3sVU7Wqkd9c1SCDainkQhLYkaV/SQGsqQ7DqUmWUByn4KWWBgDDyk6grbmADrdVqMrasX/90PyIkcl85qc8dVEEAqPfL3UD3u2apuG7eg4LC6EFY+Wo2FqjycoowKo2te/tx1Ic0irh+vnn7/MSdIHaRAnwfTJAWQecwSgCDBhUciD08em1xhRCYMc69DjllPEJHn6IsvSR8JgIgY1CEJTeHYhZBJK9F1KDFLWBC6KxLuTsgKtj0hi2kQQ1nVJUWfAOv1WLjRu/h//VmrveHXzBxRj9ynu533gb+J2Yc9iem2cQsKAW7B7gXJxfcfVZmQSg8WFQJXv3jTGtgSrWqnP3DMjVlnOgpLHqHCtAp0QEaCg5gQXkS4iwUW1golHEkIEkJIRixHFOLuhpsmkEkSE5LTMCDHdJzojEKvQSAL5xOygnQOPJQtKyRkAXBX1Xk9lwmwcPXXfkyeSlqeZiceKcB5vx7/Dhz9Vjc6VNjJS8a/Jm5BcFidcWlFGdFYWdHq8cQMWaar9Rc2u2tBIHt5vnTqfceIMQBgBZQOS/Pv4rTyYcRCJi3BoxZ3VzYRMYFLmrgT3+CeXknMi/BEitCEsE0dydNx4sxyqWl7klpcyGLRwHencbaQFfvJlWJtAqzXXVn/7C9tP/mb/q5WoLveUmQMIGD6HrrvRyUMWYG/T8rKkMst6LNJ3t61WxAcVh/Ckmi1L6jK5lSukFGjY659Q0rCU1BOf/AEUx1a6SgfdWfSuQogvBHu/CAOhhTJbMeIuPAFHNni7ohIETsXJHEssDRFcOZg3wZsMMXDVqZ6mGDSSmeWn9WPFCkyQ/7HXavYWEKWPQTBMgKdUK0tToD1+iqdi19Z/t2fCUYew+lHi1qJAIjCDD3y9z17xJ7dgiGxy87lFpRdgZFtbsHu5xCsEnXAvCEO2EXUKNHNp9a4HdiGj7/nqFZ2kkcrKJ8EU7z5cXHBCgB3bdWBSYsDSpJJS3gmLYTsXJDFMRGVvALmeAe4BVhgurTWTkqWPkRMWiOZxYMgMqK9CllWz7m2JS2KoVbnJsB6HRW717j0Kz8kG9qPPViozDAAgoge/onX2C3oAi7mFnRs7VHWjCVY7TlpsgRCuQybw8aVpr87fWpq6oQXyF46CkWH8KUlx1UvCVaCgSjGMjhs8piVaNISKWb4kD0qrPxRSE+0h2CKG12RfzoOxcJKQ+25e7e7ELIoJmRZXec3C0lYlQmwXk/l2kf+jjwba/aYOn9CdXvsye/C7MO3o1tQCNh9wE4BUESw2juqaCSk5JYbLwWrijGFjr7tsHsFfQbatIQnT9CQBSvwbJMWCYGQScvDUGpkqcSf0AaFcObWcNhDSdTKNx0nEqIaZ5brWMwWspxsM5KQ5XQDWcgy2wBMIxQOOwHW66jsPPVb20/+hr9bqrPjDxXcZc9rJ+nuvyyFsN82bkFnnhofJDEoh2CVyC/kEKmSF6GI1nCTb1/Y8XdnzsxoFR1wlMGjAPMkFeEOV4GoYAVIwQ2y5OVnaGG7iCyNoUokWejhiVoamJLqFkxlVhLj3KCqkUKWv5Z9upBlNECI5ETVZo5OgPW6KGbj5rWP/J1g5DGceqTgTHoQikYP/6Q7hG43tyCEtM6gzKAIrfI4DbFPSZODytZym0uT+BYenHePlJZAuidG+RKQI2JQVLAKlCl4zBKu0LG3yFLPpZhh0nI+3HSDnnyepZrh05jlmfyduI1clqwRQpYwdgAMOtIa4zPHmVaaAOt1UIS48ms/ZnUD5eXIvXrRSz5LZ38YlWMQViiJaJZb0A7JULfOLegog26HRqIamCRYpYe57z5pMhJXoGhcDebilhfKxZkSAJCC4qFgiPrueQHPdu7sJgpWCMx2Y0SWhmMMEIosTTFphWu4DSHghmVS5ozCRGb53klPqtq7kDXYBDCQF3Zduvt1SKvXI7A2vvhvWy/+qb9bnVUWT2uuMjh1hk5815huwaS1mhPcgpJ9PWElwVFuQSHAHWUwD61GxY7mRdUYyd0FF63rAbCmT097A2vBm9XMJaEJ4VAGJAtWLtR2EVkqsiNLYxsU1RPd5VELIWYlLPCVzSxpmcK9CFm2BaMJwqAVAKu4OAHW66AYW1eXf+/v+btMpZOPuKYrMIUe/FuuvLP/bsFIgvY0t6CQ3IJCipYW4L0wrUapgUna4viZSJEzuXt3vcOtYDhNn5x2mxWX3FAGHxwuFbyYA3ir9QUmLXgCyC2OLA1QFQnX8mLT7SFYwftxUqY9ZzNrX4Ss/rrzucNOYMMqLN07AdadX6595O9wKSnH8Qd1d/EbQJz6Hqoce63dglxyC0q+QrsfqCRhuGSqgaOn6ewhaXKocueStAZaRdPrOgAoRWj1wKPnniLZsITnoaOIGf61jiz1L8jjzEKSJJXCLJlNIXJlC1lcFrJEfwUA55DXfy0dvn8CrDu87Dz1280XPu7vTi0ps8fcry8qR+iuP387ugXBwa1gncGw3pegBlIMXmlU2k3SZCStYg9u8d5mMBenulR1D2iznu8PbrhAKBzBJxE8hCkJZvjXMrLUY5asGyIltD2DWQGq/ECHbCHLs9YJDljorwDU37HkDNLlk49OgHUnF7vXuP5b/72/y1Q6/lAhGJ73/xhIccNEbyu3oBDg/TFplUew2u00nSSW9bYb1kAyr8yWvPCraUC2WElEiNqwELPK54ks9Yl2qyNLjZANHhHlMTGNn0Qr2oOQNdiAMAF0tySL+8IZtTo/AdadXG78wc+arTV/98g9mru2ICAOvYNm7o+6BREwS4Sm3byKbkHBwfueOJBNq6TY0f1Lmhy7Wohlg2bLlkKEClNFr3PVpEgF/9Y8ISJkw6KwVT5nZCnCZvhbFlkKgJvemoM57FmhKdPYi5AlutecC8rAqpx66+uTVq8XYHUufnnji//O3y1PsYVT3gqUSoHu/ksJbkEvlEG4izmnuQXD0wb30S3oZBPlZhKtso1WKbRKcCNiV9FYoRp7aFiDobxyl14ruPes1WKyFYVMWgk2LNymkaVO1K7j8YwyC4jiDWEz2W6FLKsLo+FcrrcdpOupnH77BFh3bBHcvvb//O2gIxFOvKEAf67r6e9FYWYPbkE7ZXvPbkFw2IPRtEpWA/OFuWegKnfUqNHrczsUga1oDACIgWkQkmwVsljFa277yFLOodiAkqz6AdH1CkMTd3YjZImusywmDdu2PO1Znz3xugXWnZ8jevOx/9C/8by/u3haK9W9b11exInvuh3dgoKDD8OkkGlFY9CK5GbSRoJ5S24fqY8IZf4/GL2eCK/4x1QFIDjr37j/FJACYkB2DQW7YKGjIK8ZeYuAseD6ztGgDaOgxm/v1biV3l+3noXqg0PhGtuScBt/BFE7YzAzUYTdhSFa8dBfzz4Aq4XhlnOd5s1Q4r7L//df3vj8/5m60sYEWAe32P3mzY/9E39XL9Khu/Wgg939l0F027kFhXBD7SmNVkgYKtHRIg+YGNQoxq9UVCH4OA9ScgN7aEQC4wUXLrDgkSgEl+waCs6K70baIEYriU0EolAbCogWNIvDK3FDukLsuYxglqwAB6iSFX9/oigXfh8AF52r/tnbV0JrVnNzcO03fvzCL3+31dmcAOuOKisf/5/l3MdH7tODhZJm7sX8m25HtyBsJ1vbOLRKMlHFBSuisVHlcyp0KGhgG2akE3HL0dec9HhKSGIiBWxkTVjIoghlIm3itJLlKUaybEUSp+BdWYZXMrNYqEYIcD4Gs0iiVX4ha7DhL4bU2bSH7YSVFpsvfPyb/9MjnQuPTYB1h5Th+oX1z/yiv1uZYTNH1KBfnfmhcHbQ28MtCA7b8GKU8tGKkDB+coY4UEQKi9AtTTEMsGWbJlNCIpZt2K4kEoFLVAfMrqGw8EVRZgXiEoXFMQooSeQyK6pORtTAMApDqGIJFHMyq49mlj/ImBTfn0PIsgdisOJfavNcsDpORJg1GzfO/cv3r336X02AdSeU5d/7e6H8fPcXgm609CjqZyCsVLcgMuzot8wt6ISJhldFHU0rUNLIwQjBKgFVCLdP55T3v29EYdKKxMO2Z33jRthEFdYBZcUwuYaFBTSSLF+y0CQbvwikREUqUmImLRYzabGwSSsijsX0R9tKsVghYeKBv1TPaCFLQNiid9OPVus37ObNoA8v3Ksff7TgrVYNAILby7/z05f/41/l5uD1AKw71kvYOf+lxjf+0N+dPaqWp5nXfxSc/oERbkFuJ6iEI9yCERvWuG5Bp70xPq2QNWaScvvtbl3ouFdRcG+x0gIZposvo+19BXsApSilaog5BxGJI43X3K6Rpf5+OJhB2o1EZiUGvkvJZ+DNix5uehMbAGDtpQBDxLBwVleLVJlTrj4+6DcCPXH78V8frr1y5sf/q1ZfurOBdcdKWLKtnSk4cq8eDLQj70V54Ra4BeXFnHk+t6C0ODsEhCF3f4oAIsu4m+00DJu6KG6riktV0jbJmmMIZP45SlEKfN/ouAftDkhNkq0yFUOmRE3sFLfKKwmCVYJJK2KGj5i0KGrSShOsEPcqEjhPVgYTn5Gf4iYkZPGokGXswO77P29n02ouB+LV7CldLTIAhRq7+/3l2VMhaaN75cmX/9d3DFZfngDr4JX2uc+3z33B3108rWlFb7gyHae/77ZxC3rWKwhwU053FV09cIQrKt4gTf6iHKgKq37xsAb/gOJQA1o16Ei99a57M8ZOCFKyfV1WA3M5ECmMuYhJSwmbtOIBEBQyaSW6C5Fk5wqZtMKWLyGSOZVozAomciNBH3R6gtl2crc7JwiBG88EMzSJYfH+QtAbFBx/S/HYmwvy4vXG1pWX//m7upcfnwDrgJUbv/+z/raikp/xCgCOvQ9a9TZzC3I3rj2BVnmCfdIsvnGLFaKMS0ZVokhFid5DpqoAtErQkayBOWgMAMJwW+KCGhWsEpyD2TWUYJVPNmmxhCAJyMxisSgtFjNpsbBJi2LwoqQUGunGLKZkCVl2F1ZPfvdsnhsMGkGEW3lJJTXiFMbcafXMe4uqLk086O2c+1cfbL/82QmwDkxpvfin8ktm8bSmaJJ4dfzDt51bUAg5THRsWmGkGR7JglUcVTQqcDQa5QDFAVaZkRI8gvb1BgBYHVgdSbBSku3rY0SWstsrslSIzOeC0CEvXSqAqJBl92AP5NfMoGmvPB+IV4pO1SOabYq4R6Uyr9z9gWJBknD5sHv+3/yZ9sufmQDrIBQhbnz0H/t7qkaLd6lB7zn6PmgVyS3IX3u3oDNJDfn1izy0QvgKMeUxKxPpeNFYiu4G4ur1gFit6w0v2cBqmE0KmBqLtNqXyFL2WkSWIvbjI1oZHGIgWciCNwGrD27K7bktrn6tI6TQq9pJjRTYFmLPCwD0Kjv7vmJ5JhjLwhpe+OXvuSPlrDsNWM3n/6h39Wl/d/EuzY0SIoCpOPZtYdXPyucWTLRh7YtbUAC2kz8kyS2YZ9rHSFpFBlWaYJWJqiingpGjltylEApTQV/q3GzahgUCulfCSFIkkxbb18hS5TWJLI2ljE5/2QBgiscpuG8vZ82LMPKWn+wMmgGcirNKcUYBYNsi+ZkCaoHOvLdYXQjeGdzsX/jl7+5e+toEWLd1Wf3Ev/C3tQItnJLEq0Pvhl7blVswHsqQ6BbkY7sFHVu7L/BEbE+EXBpHQgNKmEJIGbat+IzCRJEqjC0iELRy2QXWdDBaBBc7FzYBgtmm4SaIgalhNsW1wgMZWSoSU/0kvDDgClnuejxC+huSf9df6u9c9e0DUHSq+5lFBFJyXgMEptLpdxZri2Fm/R/fM1h7ZQKs27R0rzwhz1RYPK0FQdik4MR33GK3IB/PLega2r3MJhH5aAStxlIVE+c/x1PQRKLkkRw4KjkJAdIqVX9o6bWgO22f23AaiPZ5IoUisaNpJqqDF1mKqNkxNdGF93pwlj6khNfPztXhynMd+bypM7ofJqqoibk3vHnmAFNx6h3F6nzALKuzef4XP2x1tybAuh3LmiReKSrNnVCDx7r4KPSp28kt6C9Sj6Q3c/qXHE2ruKqYNE06HuKQLVJRJMrBPcpU1dcKS/NBZFBvvd1bb4OA/jKsjuebU8KRWUo+eGXUUHq+h5hgJQdAxP5SKHor3aSFsHk+VXlHimKYOC+aADRvGNe+1pQfdf2kJr8DCmUlehYp0KrQaijMoTgPpjMFd70rZM8ytq5c+rd/Xp7yMQHWbVGGGxd3nvl9f3fuuKqokh302LfeXm5BN6gdCaarXLP/M2gVHi27yUQam6YT45Rsdy/Up5yq4qwi+wrXvrHsZuRrPu8IR+QTKqDM+JGl8diF1zayNJqnLP6DpyREJJlWw6tf3gllbV9Uy4vBC6BYVVSdos+LadJQ1lA+hEKdFNz1jpDfsH3uC/JiURNg3RZl7dO/4GcIIsLiaS3oFjP3onL4NnILgnuGdrk/5+dRblqFADRSsMqeURjhlL9JxekZ95iC8kIwxpqXtwbbPYDQvQZj0/EPUkglVHYTWZoca/oaRpYiIW91Qn7XVPlr60LvymM7sluwOKvUT2qCo79p97dsRWX1WS15lmKkFOdRnFWLdNc7C4o0wXP9M78oz1SbAOs1LlZ3a+vL/9HfnTmi+inbAeDoB5LdghhrYcH9cgv6qiXGNF3tjlbxK2NUJlJKF6m8QC0prFSrVNzgBqB8SJUH0Y2vXHI2xNYTvo5GxIjFuXMgI0vDclXcmBV5KSU4+Fafay8/2ZRlq8KUMnVGt02x/c1h85LRvGg0zhvEYtIxpRgOSguiOFuosFNvK8j3cPXXfsxsrU6AdVuUra/8qjxbffEuSbwqH8LMfcluQW7lmNUclq2wZ7egk58v3GtTow3HoxWl2k0SJx6OTpiF8DQdCrsUg6OlWXcRF0UnWchqL+80L28BBKMpGs/BN2MFJi12wCNLM+YSpr9RCADZBr/8+a21F9tyTy5MK9P36Gabb704NHuu0NXdMG0j0uUpw9JJlSPQa7UF5fB9uvRS37726//dBFi3QRFi80u/4u/V5pSSZKr0xKu9uAUlVIl8bkF5jhgkZgW0cvpwxnwOjE8rJI+fXE7DXSRNDm61NLfgb1ePqrIla/mxC25MVvMFGDuQzFjk27AObmRp7Den5LcOIgjrbxvn/nS9dTOUE6Y0p0zdpbWvm9svD7kZCF1aiXn6nTyhOpVXAKF+GkxbukerScFZjWc/tv3kb0yA9RqX9vkvDNbO+bvzJ6QsfWoJC4+8Bm7BkJ7IJVHLCiuDGGW6AjKCsxDTCxJy+1Gu3H67SJqMILm7UiwUplzTO9OoejgwBpvd4fXPn3Ot7+ufBzdkESkwaR3AyFJKCqRKUQyDhyUE1l9snf/kutEJZWqvHFa1Ktt8fthbDdWrRXbqPfV09qWNbA31u0A4/qZQ/qzl3/0Ze9CeAOu1LBtf+LfB0y3Q1KFwNAOx28Ut6JyV0MWRZbpKs3Ah226VL/AdeZImU5I9Pprkr7x4ODT2pOnQjUsbmy/cAACrJ9Y/DxCY4sPIZdZtFVkqG+9TI0vJW14s6b2SQBYCMGyZFz+9vvKNhuDhpYZ06m/YraumLFgBKM+q93z7THlWjWuUKaNBqi/OorSgl+jog4FiaDZurv7pP5sA6zUrVnu9IUczHFNDMsHSO24XtyBE2DOYZd1IZlDq+3UsWlFKbmWkoyqLU/5NFOpTWrnit526S5OFv+XHLrSubAGEwYbY+FLE8LSryFJ2CyNLQ2av5MhSElZG9sS4x5BbYuWZnVf+eKW7npAa1DaEvLajc97iA5WzH5rRSizBW5KzTJ0FU+ZOqRUpMmv90//abK5MgPXalM2v/KocFDd3TIpMqZ1CaV74mt1r6RYUgB0OakeKGJXOoGQejTRy5cztt7ukyXINVY4c9WvVEqudkJ6FEFc+9c3uWgtE6F0Tm1+WgKJKJq38kaXKaxRZSh6tuE+npOcY7Aohti+2X/7Y9fUXmxHBKq1U5rW7PzR7+A1VYpTs0iXkWuZLKaB+GsDRN/i5tMDN/uon/vkEWK9N2frqr/rb9QWlUJFE9KW3C9dulcctyG+hWxBctrXnUAZHma7yOxAxbm4/jBONJc3UISpOzwVCFlBeUkvydFzLvvixZ9rLOwDQuSQ2HguZqw5MZClzlwJInfKJIJRUYOdy5+WPLl//6obZs/P05/Ksduo9M2e/ba48p8evmbIRwVm4pnYKaqE8zaaPBN7bzS/9+wM6X+dgA6u//Oxg5SV/d+5YyNwu5h4cxy1o53ILynKWpANmuQUh5P5NCfM2sCvT1e5oFeZgQm6/HEmTA2RFPYbVY6FFieundL0upWqy+KU/+sbOuTWA0L0i1j4DYbmkYMrBiCzlBgkjSfgNYUJwbJ1vvvyxq9ceWzPao6fFqAU2d7Zy97ct3P0dC1PHi6n6P42vG5KC+hkAh+4NBF5u9GTL7wEqB3sRiu0nAh+totLUkmRun38jSNl/t6DPLwhfFst0C3qhD6CsIJ1I16T0xAz5aUWZMdZpEQ9IXIoiUe6LN0OhPqPXp41Wwx9fM/cUtl8emh03pEhwcfXTL/bWWkfefTf1V8TNj9PSB6DWATt0OSIhpE9xsyLY0koWcJecABKWt0iu4W4CBndFDHlXWrTCrXFWV+TuuvYgcBN2z3v3+CvRO9vBIvVW39y+2Nr45o7Zt7IwwkivqsVprTynVxYKlTknKa5IumbC2W6DpEeQUFM7hcb5Yt2sLymtNfd33nzsPxz+zp8DHTCR5SADSwg5qGT6kCL/+GL+DbeHW5ADtpRAJgUWCRHMSe/wsSfxYBynYUrgu0SR1CER1FH9xOnNF78RTJNimL1X33nFMDrB3JON569315rHv/WB0hyJG39Mc4+ierd0PQZhE4UX5BA8DC9yF78JboZia/NQwmo9whvqAiAh7XIvKai8DA/cGqsHPghWvgmY4l5ZQHRu9rYvNBrX2sJOoIxSoOoRTa1QsVasLVQKdd2zfkJK6efBKLJBwsstI38oYk8tpTAVU6exc27hjOYDy9i60n7lc7X7PjgB1qtUOpe+Ymxf83dnDkv6YGEalaO3gVuQQ9hRWGXHNKRSJubMzpoUjRG0IoyY45aFqhRbid+lSuXK0pHu6o3guEIz9xWal4zBdiBG9dZbr/zm12bvP3L47Wc0PI7edZp9K9QqYPsyEZEzQOWfEU6cigQvROElPMAl1/gkothKYiIsWHEIgPdh9cLsCDGltzFoXG3uXGqavWSRStGpelQrzStaSasu1PWSnBIrhidCmE2U2jKrxJ5R/Sx2ztXmFb1MRs89fefp35kA69Ur2098JPgaOgVpgAiYewgQr7VbUAC2tIZzPkhRPiRR+lkYN7FyumCVgSrK0kGqR04MtjdtI0hERwzTZ/T19iASZ7T90s3GudX5N5xYfLOpDtZQv5/qD0h6ChG4yGATEFMDKaYqxmt8ucZNSuzqhoIHghUfuKnWwUMQcW7BFt31XvNqs3G1ZXZTTVRqiVUOq6U5RS2olflasVYKCVOhZSwkGSqXkJWBraRHo1VRWkR/feaYunbOveHGNz564i/9nwdLKzywwBJ85+nf8fdmDqvyCBKzD0oLKedk1v66BYU0wxn5bO1pwYfZpqv8AVkjp+nsAlXJyggpav3U3TvnXpAr+5t2hFZO4TZff+bK5nPXZu8/MvdQq7RwHrV7qHYWTIegYNQSBT+pkEPzeRReIvKbpNVwgEnCF4cQsAew++B9T4gTssXKaBvtG+3Wcqu90uEmz+iehSlWXlIL04qqa9X5WqFW8q6WSaX9FLJiZeou9NenDgXAMlurveXnyscfmQDrlpfu5cet9kYArCOSPliaR3kJoWTtOdZtTuTU7t2C3BME0qxCibv5QbYfGR0S1cBUxTCbUxHBEIXpmdLCUn9jzXu/oC2tCUqK93NK2Np8YXnzheXSQm32vgsz9x5VZ05S5RQKC24MFHg0sNL5pOwFpX1xLG75cmxY3AAfwB7A7oEbrtgVrNJMg2a/u9bprLQ7Kx2zN8LfpxSoNKeUFlSlQGpBq87Vi/Wy8z1FVJjyftVkIUv+mmkNErGVrrBXTwCPl2eYqpNluCd2zn1+AqxXozSe+6PgOxSoMs2C5+WIV+O6BUPJ2nm6W1DkcAv6yqDXZULiFWJ0QJQ1qSEO2Lf8M9hFbj+k+DSTB0z9xFmj1bSHAwC9NUsWr+qndK3M2svmcCcandTfaN/YeOXmY+fKh6ZqJ+bqpw6Vj56EPkvaFKlloZRBamDnCsEryeIuE40PYQ/Ah7CHHqeGXhvv3gQN24PBVq+70eltdHsbPW6Ojp9iKhVnleKs4sRwFKrlymxNrxS8KxMgiCCislKGkEXhuNCRDdJeJDJNiygtoL9enVMaK665rSut2DIB1i0szecDYE0tKPKTEtP33Eq3IB/lFnQWwhHji1fIrQzumVaUFsoQ52Ni4E9SvEV89CjK9Jn7tl56VnDRlSb0FqaLlSWdW+bM3brZ5Z1la9iMQkEI0V1pdFcaq49fVIpPlBfr5YV6ebFWWqjrU3WwIpguhWs5opP/UrHdBWm4CWG5f4UlLa4FR5ISnBud4bDRHzb7g51+f6s32Olxi+fshEqBCtNKcUbRawwEYqw0XS3P1lVNDS8zEYNOmpCVyK9d6X/Jj6Z6FP31Yo3gzcyxWmsTYN3yYmxf6y8/5+/WFyV9UK+jNP9augWdv9JgHiVe5bZq0chcS7vIP4NxcvshJUortUarTlWPnNz4xgVZvDr6ngdrJ+b6GyvdtRtAf+Ze3erz7qo12LJFEivsgdm+ttW+tuVxkBXqJb1W1OslvVZUCqpS0NSiqhRVxSOForsb3LQEF9y0BIdtWGZ3aHSGRntgtAdGe2i0BjnnygTfkEGvMX1KKUwratH9vnq5WJqpF2sVz34teRKlcK0kISuMM9lilQiyiOl9LFoBKB0C4N82ALM9AdatL01JHySG+oKkD07f85q6BUXgcc8Wr1KphITG0V1K6qz7ni0rDVWjorHCzarHTl77zAX/YHGuVj+9CKB86Gj50FGjudNbXxnsbE6dZvUT6G9bgy3baGXJOMLmg53uYKf7qvU3UqBXFb3OtCrTqsz/eRRdK9arpZm6qmvh5VEzqZSAnjxCVuKhMUtpEYC8tP1EwnpVgCXpg9VZJVjLCxD1U6+dW9C33EdSIyErrDxjl8ZKRpoIk8xwh7y0SkQVxSCVPH76mx2jFdiqF998Wj5Hn5rR6zPctgbbG4OtdVIa5QWVW2LY5EbTHjZ4NIfBq0MoBrXEtArTqkyrMLUU+mqKrhWnasV6VSsVJSN92K6UICuNFLLidaPiG0S6nJUYd6IUoWhqIVDATclzNQHWLSnCMtqvfN7fnXJWjiSvo9WOxtyCKbLVvrsF3b/ItF7FhndW7DvGVgaBJCkspSWNCnwfiapkToVqtl++IQ11dfrsYc+7x2Fb4BwQDKI8M1eeW+S2PWhsDRvbSmGnNGcDsHrc6HKrK8wut3pc3Ap8EdQiKUWmlUgtM7XE1CLF0a+Xy4V6pVCtqMVCSJhKdt6NKWQl4ikKtKQGaV8pdcSXFW0oDSeOA1UOHrC6V5/iZt/frUnLRqJyBKQGM3KQOO05j1uQj+8W9AWuccUrjDHHEJlr3u3GgYj03H7p0VjjZL9sXQqUjul7jjBVAQAhYNtBqIFbY7nkml8UxMx2c9jYNloNtdJxACEE7KGwB9weCvefKYQluA1uiTyWaaaRopNSIKVAik5KkdQiU3RKvn0irVzSyxW9UtKrFWIUcCrNi5c8wTBcn4yejPiGDNN7fq3Qf3bKgRvyBxtYnfNfDO6+QMWqZMCqHd8ntyDP5RaMLIyKXYtX8foUlBByTL7ZNa3yRGNhxDSdsAI72O4Mm70AWGcPu59lc8CfqSdCTlUhYFkEoZcrem0KRMKyzW7b7LbNbsvsde1BP7FjCBsCIsjiI1weOkkZGKPRo5tILRa1UkkrFdVSSSuXiEhS+lInPKfM9UsWsiTW5RGysk3vOSYSRtowdRe2rwmwdl/a5z7vb9dmFXl4iMqRV3dtQVk95CmESosA2EOgw24m8eTMP4N0pyHS816msqBzPUi6pOhq9di8F3/gpEDwBl4iubgAN0Agpur1Kb0+7T5lbluDnj3o24O+NRxwY2AbBjdNDpNAyCNAECmqxnSNqZqiaUqhoBYLaqGgaBrI44JIi0vIGUuVx+uH0WwabXofv7wGVsHXK7AEtzoXHvN3q7NS9ySG8tJr4Rb06sOjOvbmywzI3JNVKzOz+xi0SokdTUVVnFPR/d5aw9+uHJ1zF9fz78TFk0wuKXuB/7m2DdsCkZMMi5iilataueq1DEYht0xhW9yyIITg/gRpAYAURoyRwhhTiLFg4IZSJiAyF8e7WzlMAcnCVF4hK256j/+Ge4y9ynwowvLD3AGwQnUCrFtYelee4sPAn12dk/TB4ryb0uhVdQt66+UkDNeUzLYJ8BqZQzKnMjiOVQsjc/vF7iEZVZQxSELAOjQjfZYvv4gYuUQyuRyzFxxyMWkBG4c7BAimalBVpRCTj2Iho8GhqGZH40tVmXP9RkwGzEgdk0crzH5fJLw2BTfNgbSAWH1pAqxbWNrnvxDcumzAAlBeeC3cgiIYdXI3GZnWNo94lQbBtHj3hLYZqbVGGrZS7j8VVdFAB8H5sBm8XUqLU94kPuYNRUm6Ccglp4iKoM1rY3M3R76bO9Rf4VUkZNdDmhJG0fxWyeFRuS1WI92FUoOU+IZRPsS9a4X20BoGZ6mVuQmwbmHpXXnK367OhA1YxbkcbsEYp/bkFhShwKsR5vb84lV27HumDzHh9MTm4zoNM1CVmozUaPblOPLibM2b4ucZsODJDuQbsCQTUgK5YnQTCGZRO6eT9AVDjjxJyIoIXO4f/04ioJF5lCb1ZM71G0vIQs6NeKEcNTa4IUtYam1hAqxbCaxrX/e3y1PhPD6l2RxuQR6dEZ3kFkRet6AcuTcymgFJCWHSnYaj0ZYOsjFm6mTkn0HuTKSJYwNGK/APksL0WtmjFQtIRClaYZRcMbpFyAXvFAHJBxKxUvnbHkuSc37GbWoIVjySP4hyClnhRzq2WzARUxGtMJ/nz2iC0JcmEhSX7pkA61YVu98cbl5KAJY7i3Bqv9yCIpdb0B9vY4lX6Q3kDUo5kTLSNmA/8s8gJdENdpE02ewZ/rZWLgQf7WQiFhFDVZrTMD+5ECJXsIsgYMLbJu+QAMWsZvI9IGTwAhcRrsnPhvKHVoWPp5VEukXltdyFCIMtAINmAKzS0TdMgHWrSi+cCiMkYalFME1K4n7r3YLBazyzw6VWxWcUjileJe/uJf8McuX2Q55oLABk9QNgqZWidzUFYGF5Kq7uZYY7pJFLxFGVj1wk3KoscolAxpKPSrft6b/CF7tIvoe8oVX7oQymLPklButmX8hewuKRByfAumXAuhYASy+RogXShyjUX1W3YDAAonBJNrcngymncxBjWLUo3ba199x+I1EV/nRuBill3AB3t40igSkc2bA7cmXLZRFUJZLLWaJnl+SSLP2+UCYQXErIgnJGfENOrTCMubFKf7UnpdUHsdLh+yfAulVFTjZWngoHCKqVV90tyIOklyP1QeSk2CiWjYjYTA9TuEW5/ZI45TcQdiCBKrrmncUkozvC5PLzfI5Jrqw2+cglmcNi5IpJVXnJJYOPhJdzxvu18rFmtFYYPyXF+m4PMdzyV80BUD7xpkkc1i0s/eVnJWCFDVhaOZRZ9Ja6BYUY1dvGsl6n9bZ84hUyokxzTOJBjtx+o79L8jciJdDZhbyMlR+CIGRtDlnkSggxHZdcSBWyRpMLKeSS7jOZXN5XjpALADjBc+MA+bTCPIBL9xX2bgCiLQGreva9B4tWBwlYglvDjYv+brEWdhEqhcAtGLVh2TFD+97cgs5fliANUVYQZdp+7rXIc8W+Y0SIQ4LdKo1We0iaHNvmpuWe5SwKHwETkKQhjmyA1OD4fSaXKzQlkUukkEsysSWTiwkAQgHZnucHo7TCxLk7uUdQ91q/wc1+wL6ph79rAqxbVYzNK8IO0ioVKxQaR0zN5xbkY7sFEeZUaCDtKg4gCg6MDtqikRpixFieyaBUeOXIlpUdjRW+vFIq+NvWwAxAQCwJTGFSjNvgFpErrFSOQ664bhgnlyPBKSAFwoZIWeEiNRJi9LsxqOEWejcay4FVUSnWa3dPJKxbVgarLwcPgaCXJXUDAKm3yi0osyxAWMabLU90exqYsFvxCuELjj9TZx8ykUbvWStLwOr0g8dFaUb3NDBFoh8yG6RN68mjUSaY5OUwsQi5XN6kk8upyEkuAjEIC9zKxaZsM1a89K6DWzvXAmBNvfF7SS1MgHXLgLV+zt/WyyxqaWH0argFg0nOOfXBPL62UUFbtE8JHvJndEAepyFGzSgkrVYOgDUw7KGlFDQI21sRPtHojv0mV8akRaTKZREhC9gtuZBMLiHdeUAuAilgCvjQvU72+vXjzMsRrQvNFVvWB+fe+dcOHK0OFLBWX/G3i5XY8BDi1XALuv2YITROR1qjIyM6Q0lMOyfTqzjaqpWp/e1bJtLobnG2Lu/2NxvVYwveIh2q9AJIk7OkbUG7b4AxJy2KdFRFyRUALoVckRM9ckUCJmRykQYw8L7Eo+yQ95GdBxhuw9jZvBCExelzJ+sHbZH6Awas4VogYRUqLPpcxK13CwaxiKl9JF9MQ7z5WFpkdlfNmGOIBNiNkLby5PZDWnpCpahrtbLZdifo9FZ2qscWAQAWSA9xikR4qpMIT9yBFMtOu2qQGRyfZ7p1lFyREPwouURIUksiV1S+k8jFFFAZdh+ww1OsaXfrUIjWud4276wH/sGF9/3tg7VCvV8OzE0Pt66EgOWHjDr/2cOoDWvf3YKB+/kW6IOjU9Ag3Xo1ymmYMYmH9kgryfMQpEwISuVIkAygfW3dbc+H0pKCzE0J6tQwuUZx/7lHmdfe+aA8DVi4gZd+1G/vzBMK3YNXL+8mnuvuUugspxkpBEYgIoq1JOniFN6Vj6pQyiOmE+SM5zK2MVhffTHI484KlYX3/s2DSCscIAnLbN70t/VSTJmyh5Jb0M7lFkzQB9Pdgs4hNpatPbGzjRNfSuNMRcyjMEZuLyumITtbFnJGY1UOzzVeue5sd5bX7aGpFDTPHcbSg7AQlrliUw6BsEiV0SBl0uI+TrcGMmSu0KRFRAQ6xCYtyvKdArUMq+v9qhnBDUh/BEI0X+5s2O21wNy++P6/q5RnJsC6hcVqbwhLmklbiDnR7cHYbsGAX7KEFXMLJkQnImWeCmKVOSmGGJjSFUDKvoH0OYbIMF1hxIJgI3L7Ic2hPthuB0PH5s0LN2YfPA0AvAelHsJKmj5IyCJXwpzEcRvgtpxu7UisBTDTtcEHv2oYUiJrRVXRuSrMzo1nBn4NK1SWvv1nDiitDgywZPEKgFaMPSKze6vcgsJfvIty263kvV2EjMeuksurmCaX5czogBSW5c/t5x2QKjrL6/KX2Xz2wtxDpwHA7gp1yht+iR7DfORKPoVSpv7g4E23VsrgRlLSZArl80p8c5hNdK9vnDMGrcB6deg7/oFanZ8A69YWoxEAi5i0dK0/O83q3EK3oNtBWRQHiANn7yb53QVtZX86pQNu7wuCebcbU1rN7mAoSVgAeqvb3RtblaPzgCC7I9SpEEdyxTrEyZUBJuyqQQ5yvWrTrYnACuCDMKRkahGE5Q1k6RlYPdG5OOzwtRcD8UqfOb70bf/DwaUVDorR3dy57m+7+qD0chEKYPZgD2+JW9DtcEouACVammjX+mAe8Qo5xCukLiKNvdOKiOQcFYEc2rm+Hv+SNx97zhtRLQBhu7tkhifJpi5b5UMmdpZkdJcvSDGDev4Gvv3bv4fApp7UJmp39wztibshQz6BETHXQu/8gLINXinGXw+hDTetrjxgWqJzkVvW1a92uB0w7vgP/xLTywcaWAdFJVwNgFVkoWfnIJcEjAYKM/vsFoyGMiBp2KejJOGUnEFbGVdLhA6yxKvUjA5j5SlFXFKjzGisRGB1ltebF29OnTkKgMxtoS9mSUDZUVpxuSxV5hIHZLp10tQfpQAzLFvFre32ANwE0wCAG8I2ALH8VK/fCEBGTNVnjh1oWuGgSFhWN1jeTgtPJxDM+9vfTAi/8pS7XboFIQMrmUQ0tu18zFitZO4gh1cxT0YHJJArWU8M/QhhqcrfkKMc0LqykvhNlj/7NLcsEGB3YfeSpKqRsQ4pQlNc5oqeQuEAiPwNIhEJeWQuZXyZi3kyFxEx8m/AIRFl9hZhwerB6oKbADYvDHauGqHj3Dr/S985XL8wAdYtL3a/GdyxGhYxmPfs+uvhtSd8+1SaWzDR0B4zuhNLQARypWVIPeXVCNpKapBmj49wbVS2LAroFt6QorH6G02jFSyZU5gJdGqj1V3+3DPOWCVrE7Dz6oMsxrI0fTAZfxEw0ShyUQq5WCq5Eug2JrnCoWEOuUBqatdJSqnYXjVvPtNLePF3Ns//m++UX/8TYN0aYPUa/raipox8YWKwNY5bkIf+xt2CQTBxPlP6iFAp7EEfzJGCZoR4hawph5QO0wRaRU6XUCWd3Lx4Q37HTJ/V1VLQ2baeu7Dz8lUAEJyGq946g0mWrASpyiGXMopcowQ395REMOVpkEQuOcR0XHIFUakxciVEpad2xX7DuvrVtpwtXi0Gpw/XL1z6lR8S3JoA61YCS5KwFE16OtLtCwK61/fNLehsp3UUyiQRpZ2CLN6NmGYxFsWSGlC8XkbS6HAHTw2kqI5JFFcMmxeX/ZOLcwUiTN2lyZ977U+/1l9vOIHvNFhJlaGy9cFsco1nyI/pd4kNktXSzOD4PBplciw+BVeOPN8UYX/YsS99vmWb0iTnuwr3fltVzm7Sfvmzy797UEOxDiCwJAlLhKEhzC6G2/vjFvRpRXlokh9Auw7ayoc1YGzxKkqoZMWQEqfpUEQrdI+avUFvJdA7KkenAWgVVj3qv23ALfvi731u2GgDBLtLxvoIGSpbH2SZtq2cgtsIMCkpc4Pi83XSyMVGa5SJ5BJWjk5AZo9f+nzTGgaZqatL6tE3l9UiO/3eiqIFZ61/5hd3vv57E2C9KsDSpDlUMZFCdK6CW3t1CzqGdho535go26o1woCVG227mSM9UrwaldEhlVaUqnV6izA3zl0LrspY/dQRd/wcUQvTgTHL7PYv/u7nXFOX2aDhOpg6WobKlqqYMirWIachPxtM2Q0ohVzjaJTypfhwlG8aZs++8Lkdoxu4BYtTyql31ZxHV6yzE28PBTRc/S9/w9i6OgHWqwCs9DcNAdwU3Wt7dQuKJM8g5Ta05zVgJZ1CuR2LYwdtZddnZHbPzu1HAaq8K2y/eNm/9dqpw8W5RX93+oyuSurJsNE+95FPDhsdEMHcpsFNiS+jZCi2uygtZQ/TrdlrMN3aHnhG1dQuN+zYFz69Y3QCWulV5a731SSpiuqH1UMPBi52u9e4/B//SvjKE2DtU5FthJQ84KViNERvNWZKz+0WjJqu8nGKMCoCC+PxLr8+SKPiJFLFq0h98rRnGhXiEL4BGu60eiub/qVnHzyjTc2T4vq5SMHMPboiRf+and753/yU0XSYtUP9awCB1FHkyq0Pjo51yOmC9IM5d9EgMcQ0Qq5kuUwYO5mTt9BvmBc/s230AlopOp16V1UrKpE+s3RfoboYSLidC49tfOH/mgDrFt+xmjyxNzRUhxvorwW+wpFuwVDkIY3gC2VSZLwILOSY8JwJo7wkzBSv0oKzkmmF0G4sxGHrhUvSyNGm7j5OjBVml+ThVAiv0mZ2ehd++zNmuwci2G3qXYSwvDGfTq5x9cG4A3GXhvxMcqU1yAqOZ6mmd7MVm/wc2m6vDC98etvsyyuq0ex9BdknK59x4q1lVXpbLP/+PzhYiuHBABY3B9IYyjNgCcY2esvgVi63oK8SUjabRpZR4tgIm1d2uuS96IPIEq/iCAumMY/MRBqxu4udbwbAmr73FFNVgIoLx/3Kzk2rtx51qw8b7XMf+cRwpwMAfEDdc7C7YdCoYfpkylC7j9JSRpArIbiBMu1laQ1GTeshBj4Uw83UXkjYeKVz6Qvb3Ap8gkqBZu8rKEUKzyULrqCV6OgjxWBkDbvLv3uQZhceEJXQGiZUjqSJ3UdvGWYnt1twPAxRXvokXYpGXj/7lDyMy2fVSlEGoyH82cmzXKchmhdvyPGisw/e5YCsOHfU0Qq7K1ZnOXl5GKPVPfeRP+2tbjtDiboXqX8jrG355FLTyTWOPjg6SiunC5Lt/6RFYYr+jYSMVwQA3MLVL2/f/HpLPq6W2Oz9BaVIxEjVUme/Th9Xp44Ec/J2vv577Vc+NwHWLS45ZR/BYWxjuA6rn+4W5OGF4fb4wbQPldlxXqMvuGvxCglEG73Ejt+ANp5+yb9EcW6qeuKwezlFLS2eGGzZ7eshWpUXVUUPPtrqDc7/xicar1xzP8XYoM5LsHspcQmJ5FJGkGuXsQ57nG6tjEcueyi616JTmr1nNGiZ5z+x3rjal4/pdTb3gO78mLofKUoM+iwqx6l2hqp3oTDrVB99U4FJQFv+nZ+GGHPV+wmwxkKVGIGO8Epc3ILZxHAbVgf2EMIEt9wllYTpdovsNP6jxaX8Fvdd2LyQeQrluwCNICOlKIMj8894DQabjfbVYP7gwlse8AMdQARltnEpNLutdrxUP6XN3leQmcUt+/LHvnjj818XXIAI9oA6r9Bg2R1+yTbyMLmyZagMfTAr1kHZ5aTFsRswmDuie9WjVVi+Fth4uX3+T9cHzRD3SwvqzL0FUtzGpZoW0Eotg6lgGrQ61e+m2TeC6VqJFu/V/dN717/RePajE2DdkiIFjo5rYeLgBuw+rD74ANyAsJKSzO5ByKJxz9qFzWvXQVtx+I4MgIhVJs+RdnfXJfFKKeizD531d63e4Ponn5Z/7MVHHzz9579HrUwpRZp7sKCVQ11x/clvnv8NL9wBwHCdWs/B2AJz2JRJLqbmkqH2d7r12LOpkyYtChvdq+ivJHbLYcu88Mm1m083ZKMVEaZOa1OnNf+pqhorlFQAUMoJUzX0aZp/B5TSwj26KiXCvPnRf3IghKyDByzbkpY8yiKE2CV6sq1LNC6GdmFxT7rUrQ7aokg+woyFLZKzZZmd/s6LF/2LzL3hHqZpLs4ErvzXL5qdYDru9L2njn7rW5VCZf7NHyrMHWYazd5fkGNKAXRvbrz8n/9o67kL7ucKk3qXqfUczAZIGUUuJZlcbEx98FWabq0ABGMT7XOw2vFHyW2x+lzjlT9e6W6GjLmKTrMPFEoLoSRR1VkdBBADS0kepZZp/u1MZYfuD2Ia+zdfaH3zkxNg7U8h+acXkRGeQiWRnjqWcsNr1w2yP2K0xX2PQap5GJe8QamTqJFCK1fCWv3qs9yyvefFFh59wD9n4+mX2leCudDlpbmT3/0+x7pMqjb78LdUT97vxGdVj4TGGDesa5/42vnf+tRwp+1+nN2nzivUep7MHY8pEXJFbORxcqXIUNn64C4nLeabTW000HoZ/ZsQdtxisHO58/JHl9eeawge6tLFGWXuoYJWCQ3hQkUtlB19MDPVnT5D0w/NntI0aT2XtU//wu2PgoORwI8VKn6wuy2lJPOy5aYVMZ5tKNIg07pEY6Sa2YXFPb0l5akcU2umHCtZZKSmIRit3tazwcKRc2+4R6/XnINGq3Pzi0/5h5SCdurPfStTVXnZtNpdb9SnFhvf/Gr1GLQaa140Za2nc23tpV/9o8VH7z/0joeYpoAAq4v2y6SUUToCfUG4njVI4SnxZMrk1fARy/NkL5KYP7X8yIzPsDHcxGAV9jBx/ZvWcm/12a3+thEdDirVT2nF2agfUNFYfcELWUjOkSuVqfupc3n+jLnygnv91jc/Ody8VJi/67ZGwYEAVoKERd5s29S1IZBv2gHt753uqnkKvGgczEU3xwrayjhLJlpS6lECQKuPPSM49x4WW3rXG/0PXf7017gZRF0d/473FKbr8RwPhbnD82/9sD41X5hS5h+OqofC5muPv/jN//CxzWfPe0+VYPfQOS+2n0TvKnGDQqKNmh5Qqnhy2SgZ6tZNt7aH6N9A43n0riXGhbZv9s7/yY3Ln1uJ06o0p8y/oeDQyjaE2eU+rWYOlRnzH82ooU2M5t40d1qV3YVbX/nV2xwFB0TCKlbhZR0LclQTQcCdqCyQskabGMdGvnebV+xA1kfsTRncxdzGUUFblJanNGE3OGmw1dh+Ichj6YpXAIDujfXmuSCQeursiZkHzgSPxl2OwZV6lGJ57k0f7C6fa196buYe6m/Y7eshUcvs9q9/6sn1J19aevsDs/efJsXBnin610X/OrQpKiyhMA+mCCGkRMKSzBWZ0pAgcyXJUNmLJI5eFMO7iD2EsYXBOqwOgPjygkKIxuXW2os7g52EwEOtwmrHNb3OAJhd3r1pDXZsAFqVHXm0OrVY8izsInsqT1Cqdynlp6aOGDvX3TfK9uP/z5Hv/acTYO21kOTskMQmclcNyWBWPHg992eOQtJI9IyDwl1GmWYbsHY91ydRvEJa/pnlTz8hPMWcqcrSu97kt7/5hSf9yzBVOf4d75ESmRMAWENh9MAtgEMAilJZOl6YO9R8+UlgszDNWtfMwVYoHGnY6Fz7xBMrjz238JZ75x8+oxQ1d8ybDWE20DkHfZb0+Ri5eIgjcXL5DTJIlL1IYlpqeasDYwvDLVgdTxmMZmW3+tbW+cbmKw2zl5BaT9GpekwrTDOzKzrL5mDbtgYSxztcIZWYd81ky2PiO49h6v6Zk4/7wBpuXjK2rupzJyfA2lNhxbq/LUlYDIK7f93OFM/OL6deuGW4CbWiUdfYx9DTxM/NnqiYKvdRrnXDotN3Gq9clQ3qS+98RK9X3NSXa1uda0FY1vyjD2n1igsNx9Jj9mAOIDiIIBhIgNvC7ijA7P2PDhpbrQvfmD5D5hJvXTV93ccdpd3BzS8+u/qVF6bvPb7wyN2lpRnvgXMMN8RwA21ArZM+C30GWl0IFszHSiQXYg0ySJQtVUHA6sJswNiB2QQ30iytwhbtm53ti83mtXbEph7q/xp1ls3mpdQGWpGN7i1EcXJR/Z7q/FNOQIVTOhe+NDsB1h6LUqj625YpDVFHsHKZ5YjuMWY5UNsPIu0P6fYSNkGZ90DjfoVR07yRmD8+qLeH5vKnv+bX6VO1xbe/0Wfi+tMvSENOPfTON0m4FLBMWKbrNRMc5Mz0JHfXNorVavHNH2jfuNS9eXHuQTbYttvXTXsYerjcsrdfvLL94pXiXH3m/pMz953Qa6VgfVZH5uoKgEGbJn0aak2oVTA9hVzOxTPQlkIudwGIDqwWzBbMjhvi50v94V4puGivdBqXGs2rLdscbWmNwDr0nBRaerBanNbGiKKSqVWYpeJ0ZWbQ2bQ9YD02+/a/MgHW3u6yOudve+lfCcQgAOIQvj0rkVkCgo92muTh0dhxoa9VA8pET/YpI430QYMbn3lcjq469qF3MlVxWnLLarwUzIKee8N9SrHgjX8AEJYBYh4UFIA7+czcN5A7Nd2qHTlROXyyefEFYK04o/S37e5Ny+pHB/Bgq7Xy2PMrjz1fOTI3debI1JnDhZlqwAnBYWwJY9OFCNOg1aBUoRTBilB0UAFMyySXM4XeBDfBB7AG4APYA9g9WF3YfQBB2o8UdlhDq32j3V5uN6+1bMPe46BQNDZzurRwf1UvK1ENI48Ny3d6VE9V5td9YLXPf/G2RsEBAVawuLZlON1BuJPgXWYxl1yJzBIcri9kLPkIu2xMY7UY6SLMb3EfeQOp/kEauTxPaIMANC9c23r+vH+F+pkTU3ef9E9pXVyWnYPzb34gdAXbDlbSdsUr5i0OyANFXnBAMPCZux+2jPtbl54HbZXmlGHD7q5aRitB7uje3Ore3Lr5pecL09XaicXq8fnq8Xm1qHvdgQABbmC4CbEZsMlNK+SHdHlWdse4xjmE4S3FhISURAkrBbqfJmzR3+q1llvt5VZ3o4s9B5PrFbV6qFA/XKwfLZKCdHdT3s5KlWOVuacBd67PYPVle9BWirUJsHZflMqsDCy3h4GBOEAerTKYlVvI2p8gh3xYpD1eOX8l7eE7JydKNdu9ax//UvCACvqJD79HBlzzQuAcLC7MFhdm/UcBCGHbIAoJVq5I5YVTkf/IXOlGVWn2wbeZvW776kvARmFasQeit271N23Zk+iXYaMzbHQ2n7sEoDhbKy9Nlw/NlBenirNVpinuuvAhQdyh0jBEsWCR1LBHL9lgCgBm1xjs9PvbvcF2r7/dH+z0M4xT7iAsUmFaEYCwBAQxVVE0VXDBFGIqMZW0kqqWWaGmlaY1d96lkCXBvZXSUmlGXs1F9G88Vz3z7gmw9nCX5QBY0oog/iIRPq1I9hGH3nvchqLsE6hGRo3u+lMSVbnMxtlhE5QJoFxBW/E9Epxf/tjnrX7gej/2be9yDepe6+5ysFj39H13hS7lGt1ZTLBy/rKwtYh5Vm0Oa6jp2txD7zS77e6NC/2NG7UTVD2uDRv2YNMeNuw0M85guz3Ybm+/dN3Z1Wul4lytMF3Ra0W9VtKqRa2sKyWNKSzld45el5u21TfNnmF2h2Z3aHaMYXtgNAfD1oBbeZMOK0UqzSrFWUUtMyIq1EqlqUqhUnSxERXiEJbs9tjTpFKYVQuqViKz7165f/0bE2Dt7S4lG5Zlek8kUAnhvZwdv6EPK5lZAsIGqfscKLr7bnPrSJe/wS6DtpY//Xh3ec0/Yeb+u2YfvlvWFq3+cLgdpOGvHjsc+izXDZIoWPnilYgZ412xQgzaakGfvvfR2ukHe6tX+qtXaaZfnFG4LYYNPtyxh01bZBqIjHbfaPfj9UxT1KJGCmOqouiq220cQlm2sIVtWNzi9tAcKTRlFK3CCtOsMK04s2r0crE0XS3Wym5cwrgzkFOU0RxxLVJTrVqa6pp991frXf/G7YuCAwEsWSW0Den5OO4/Pzg0iHLwn6XELG5DyfN9R87LyQOFsWxe+wGvvOv3YJQBK7FlsLHx9Zc2n3nZb1GYqR//8Hsjk3j6axvy1StHD0nhV3AjDByNLBCvmPcgueShk43xkqhlm8JuKlqxdvL+2ol7hzvrvdWrw+3V0hyV5hQhYLS40bKNFs/wr8ULN23D3KstPLEwjQpTrDCl6FPMWbpcLxcL9UqxVlE0JVHrJIIQNI7SRympR2h0b1QrpSnWWnW/+2Dt3ARYeypa/ZC/bRnCNW4IEcxHD561/zaOM0tAWCMmhe6CFPt84lg2r/EFq7GzTYT2GueuLn/6cWkcqqe//9uUoi7TCkB/fUci2hQrSIvfuv43xX1SfmbqqGA12hgvjD5sg7RSYWaxMLMobHOwtdrfvGnsbBSmUJhiALglzC43O9zsCLPLE61dt6IoRdJKTC2TWmZamTmLbhCjQrVSqFUKtbKrfop9skPtsRMqBV2aRG3uXJ8Aa293WVuUdy1DaCVKWJk5JGolMYtb4Zwbe9YPb62CuSvS0a6vNsLm1b62cuVjX5B1lpPf84HSwmw8BaDRaPltinIDOCIV8+blRKxXvmAVk7YCndGJe/CM8ZyLQQeqTlqBFLW4cLS4cFRwy2hsDnfWhzsbGPQKU4q/5gU3hdUXVp9bA2EPnX98LytdkUKKDkVnTCe1SEqR1AIpReZ3TCLSyiW9WtErJa1UIKKQTSr4kceUpAJT4Li8o0S+ymkbjJ3lCbD2VPSZY/KuORBaiUgI4Tr+5AgGj2IJzHL6rAWmvbooSdPXbllcxe6s+6Hj0cr21ZVLv/dpIeXKOPL+t07fcyoxaMtoBUmdtEpo/U4I5oVf+TxCkmA1SmeMaogmaQXnbURMKcwsFmYWANhG32hsma0do92w+h2mQdfImY4X3JENbgpuCW4JbgMc3HaWtZQyGSkgAilEDEwhUsFUYholhiQrBV0rlbRSUSuXtFIxBVKvYYkriaRKSV+FbU6AtafC9DIrVPjQXd3AcsKdOQcpbj8IVoNmQWh7lFmQhKx9FI3o1b7SPtu8RtZS88L1Kx/7gp/uCsDCow8uveONoVOku7IHHWkoKDE+sjCeJHJFzVhKus4YM8YbAzAGVZdi7oSiF0sLR0oLR5xYCqvbMnttq9e1B12r37WHAwCkQFFI2e1zVPSCWiwoBV0tFNRCQSsVSWGeTUrsUxpPugWk85OdAILbkrLM9PIEWHst2tSR4bobpmg6Mz+55absgOQW9FVChJ2G8gRpboIV8qZqeJW8irfAQDbC5pU3Kdjms+euf/Jr8sCbfejssQ+9M+lSrkrIjWEyYYXwUrLI4oakGLokgiReJRrjpUpZ1BICRt/FVizsjhjTatNabUoKSee2MeDG0DaG3Bhy2xK2JWyb25YsSxKBmEKKQowRI6ZqiqYxVVE0jam+MzEcurVr5tCrL4QRILgkVLFCZQKsvRZ9OgDWsMcBwDbBFPgGCCGCgAZ42AqYJSV14DYo/2SdsbgxUtW67aiX7iKE4OLmF55af+oluXLmgTMnvutb3I9LOU+IIIuTPTTkDxOCeRaoiA4IkG9Qlwxbrt2KMnVGWfJi4ALGAERQNChKFgOIFL2o6AUN8TBRWYlLqgzFSWVQ59Un0PjdQNhhCWsCrD2XwuLd7XNfcIHV4c6vDAGPWbIZK8IseYK0N+WKm2DK7fpdR83LuWXwkovZ6V/5oy91rq/JlfNvuu/4t787KfFfIGTZgzZTAju23RvIz8NNd5eFJ8SM8ZRqjA90xrAx3gGKNYQFKCqYEtKjsxgiHSN61ddl2C/Sjfn0bUOOFlLLMxNg7bUUl+71t4ddyYKuFsAAHpntHB4jxGNJHbgbR/q6KGPbvJoXb1z7k6/IsewADr/3zYfe9cjIK5udhr/eFCISFghMgWA58LQfxngoEBy2BcsEIy9NKN3Wz+o1eej2wOhJwKovTYC111JYulsCFve6qAkqu5aRSBFeGhOkJHWwTahqjof9OunfbrH6wxufe3r7m5flSqYqJ77z3VKy0PQfjWD3mrLwavX6UmScABQvYV4insKQChnjIeVOiBjjZZ0xbIwn5jKOc8CG4/9iDCAwtq/wotvDA7grclmdoRRhq8+emABrr6W4GABLcBh9oZeJrKEoKmACPMIq/38B4slJHcBjYVmv6yKE2Hruws0vPWsPQnnE9anq6e/7QPnwfM7r2MM+04JBYrY77jQRVzJSUmWoCL+ixviwtSskWNEIY7wfZ+8E2XMOwWHDNWsScxF2B5espQ9sWH2jG9C2uHTPBFh7LYWFs/K0m0Gb62UFVo9IEU5HTQv/c1CVmNSBG68WsG73wdC8eOPml54bbDUj9dP3njzx4XcphUL+S/Fhzwns9vhlWL2+WvY85aS6TEkNaLhlxng/CYSfJhCOMcGCLdyco+6aEXcovBJXxhtsCi5cu/AEWPv2U6t68dB9g5VvOru9Bq8vKbCG8HNZJzBLErWSkzo4IQ76rb99cXsySwjRvHBj9WvflCfTOEUpaMc+9PbZB+8a986FbSnF0CmDja3qyZL3IBWXLAmQ8kGDqPTkW7tC1quIYIUknVHOCCgk+UtKEwgKWnLLxRzzF22+I+FFwfcarPZ2bDncv3TsjRNg7UOpnHyLBCwb0AABawCtTBwC8noTIpZ0NCWpAzdB2r53Sm6L619ebl1vaWWtNFcqzZXKc+XSXFkparfJj2l2+jsvXdt89qLR6saPztx38ui3vjUcpD4Gc5lCTCfuOZ56N9erJ44FwCLmrRjKAwbFZahEPDnNotauSEBpUgBXkGML3pxq+Sy42mIgiDlmLwtCuAZ7ojsNXkQAie713naAK62+NLFh7U8pn3x062v/xQOW9xNbPeg1kCAnCwD3RxfCgy08QVpO6sANsGKsPe1ioPpl5+LOzsUdALZhDxoDZxuAXtVLc+XiTKk4XSrOlgvTRaa8CtEVwVfgptW4sLLz0rX2tfVEn31pYeboB95cO3l4/G/tKHrglgFAq7ChlwW4u3wTeFMwSBw9DnYCg5AHT4nWLkmwStYZpYyAsjFeThPoIkySuXxxjFvuVB0iIgZGSV//9inj3EznSldal6hy+h23MwQOFrDe4m9bQ+HMKITRRuWoow+6r0kuACX14YlYUgdhj5P0PVexh8lZSoyOYXSM5tWGN3pRqBWLMyV9qlioFQvTpcJUSasWKQjF2h9dsr/RbF/baF1Z697cEnayta8wXT30rodn7z8lTSmXPj35Rrxa6SgxBYBeZcMdL034lWUhhCedcM+MhZDdPcNjmIAnhAxhofh4NkJnTDPGR4IhojIXgxAEIYQQ3IItQESuzniLQPOqELC/Ioxuez3oErV7PzAB1j4B69gjsmTU3banj6owWiAGKIENi0Y96XhSB9uAWtrHW505M73xzS2zZ468k2FrMGwN5DpipFUKWkXXa0WtWtCrRbWkqUVdLetKUVeLuhzllPLFYLR7/Y1Wf73ZW2/21htWb5hxF5XDcwtvuXf67hOk5FkJPBFdwW/KtAIAeYKxPRh2l29Wjx8BAG5AKYSM67ATGJToMZSnHyYawhKyOyTqjJLdPWqMDwdDyDIXuBOqD+ICBMGFs14OEQh0G1m7xpjAKJovdTZCOabrD33nBFj7U1ihUj72Bj8dYmeLTx91nLI9qBXASfIeUQxlu3tGUof0EIecIk4Q9kUAtLJ2/w/c21nt9rf6/a1Bb6tntI28fYgLoz0w2oPuaiuxASmMKUwpqKQoTJWWmLW5bdrcsGzDyvNBpLDps8fm33xP9chcapq38PeKDQwKHxUAMa0IQKswppI/Ehovnq8eOwyAxFDQdLLdKtUYn4GndGtXJNVygs6YaIwPy18urRQJbYBgBAFiwu1FAlwIWHAE46i2KCL/v0rMQmYog1O4ieYr/iqqAIpL997OLsIDBiwAtfs+GADLW5gIRhP6lC9eeYphZHTK4e9JSR32O8SBKVQ/Vqsfqzvvbdvg/e1Bf6s/2OkPGoPBTn/XCz0Jm9s2z0mlJFBR7fjCzP0nps4eUwp6uE+PNN6J6NLNsSNMdw2CxVmlt+7e5M5LF45+23uIEawO9CWQ6i5CE/CODoYxXlqDnlxRK5DFBAQsDgLt2kIvxqjNe5W0O2m+ZA+HzRtBR5p59IducwIcNGDd8/61T/1LZ3vQ5uZQaEXCYBu1u1yV0DdmUWR2oSI9x6SkDs7qT0rOgKOxrfKKrlQPVauHal6ybTJ7xqAxGOwMhq3hsDkYtgZmeyhu2eQ1tVyonVisnVysnTykVUpSP066/9By2alsSkKYUMv1OLCsbq/5ysXp+88CnOwO1CmRFumeyKAIpKJ4yrB2xVMtCym0RaQY45NmJpIv8cH7FIUEhz/j0A3gJ4ALLgBOadLWrS4iLc27dD/cENvP7ly1uPTiu52XUD2QwKre8z5iiuDeKrUb9sxxFcMmBAepErOEZOwS4RAtEQOO5zTkFph+SywRIeHO3dIqulYp1I5O++F8gsPoGkZrYHYNo2uYnaHRGZpdwx6Y1mDshQ9IYaX5emlhqrQ4XTkyV5qf8iBFu7TlBxSTICVrhUKASK1OO831OlMK5K/VvPHkc9P3nwEAYxvqDJGfyYxB2BJuKNkYH5ehEqcfplm7xlqeJxC14sZ45uZpkI3xJIS8HLR7FrxHJojRvnamPG1SE1Q4D1FsPSOswcaFwMxau+d9t7k+ePCApRRr5ZOPdi+7acXb6/bMcRUQGGyicsSnldNdPGYJwA8rHZXUgRtQiiOpk12HXTWCk/O7XijUi1JcH/mWCNu0rb5lDy1u2tyyuS14sMq5Qw1imqLoGtNVRdcKM1VSFOkibthB+r3EbVJI0gEzNgBALdf8n768qLavu0Oic32lc/Vm9cQRiD7sFtQpAgHcS87Co3arA2uMD9RYb06F4CKWxWdvDkEx6kTn7ZtW+jfQvrBzzZRn5Cx84O/e/gQ4eDPp6vd/yAdWc9V2+1t/naonXCpRIFK5rz53UMfCHeJJHbgNZu9zqqz9grWmKroWoZi3Qb6mGd7OtkONhGk642RpKypkMa0yZXZ2AJQWlM4N0494W/nC43f/1T8LAMMVaNPOXBgCB5G7QkxipHuIQUgIaIgcilu7ErI7ZOiM4SD4ZGO8Z/OKGeOFL3lJopabMouLIHfhrS7cTP2k4ZbYfErYWPtm4AgqLJ6dedP33/7Dn93+txgpU2/8Pn/bNkXXMb0PNkAMpIIUMBWkgjnbCjmVoX/OfDEn9aU3d8zdJthG0P/H61y7fWeOtluJcT5cjPsRIrTcuci6uhCZ9a4qp027i4YwlcpLwUuxc32lef6yay4crMpPgZwNpgaV7hNRwpWK98hYqFI+BOkQU6LPGtKVg78UOitoQNIhuZI5tJU+zv1HYG58lnM0+EQCMSEo54MUY69BH3s0VjfhCr1lsfkkhL1+zpBTyhz+M/8YdABocPCAVTn5qLwmRWPFBgBhY7AOpkq08v96zGJxbHn9GBKznAmG+1LEfhBN7LrRyEqRj3EpG9EGwd/CTLAsW+WwKgusy5/6MjctCIHhKng/eM0QI2IU7Eq4QRhMMoNy4UmJoc2bZxOvRAQxSgAjl2tJlW5jfwaPQiByF4v1xGHv+gKKcMfdXniUXe3kEDcx3ISxA6MJY1v0rovtZ0TrPAQfdvjay0FoXunow3Pv+KsHYvgfPGCBaPqRP+vvNVdcJ4foXAOpYJrPqTCzFK8yLmpJr1mnyzozYNO7jhDjc2fsTpkPNyKz/4rMS4mMShH7lCQhSyCcJtjd1mcP+74LplL1SDCD0mi0V770pLvTvQBwDzQKSAUcZsnQ8ZmihIViFoNa7FDoEWcKVgH1KHyKJF4FgCOJaJQkc5EnNrKQFO8jD0xAeTV0Q8FhdTDcFL1VDDZgD5wHeO2Jgbw49rEf/IUDIV4dTGABMrDMvug6Uzf7q56vUAvTytUTXWZF1UMlzCyvS0WFrFugG+bVOnfXIL0ylXGxjQRFMlWqkpnFVE2fDrJWlg+pcv6G9cef6yyvAAJ8iO6FEFaYCmLkLKflSV7hB6RGSZQqQ8XxFOGXEiVRss7IvJV+wjqgL2pFFENIaR6IESikIQailiJIGaefjN/BUq61+uKwtx3gavatf7F+/4cOytg/kMCq3v0tqrR4/fY1EwAER/c6mAZSQVqIViQxi6UYs4hCL0NuYbwFNsU4XSgHg7KbiGxL09g4G2VGE0lClohuO82EAFBaOumfTISpU7r8YVc/+lm7P4AQMBroXQEUj0SBMEXESJK8JNB4b51EBo3AU5q1i5IoJuuMEVErpTIqc3miVpRWTns1ZQDeOtMBmsvmuqQMavWl4z/8Swdo7B9IYJGizbz1L/q7jWXbCcwSnSuuSsh8ZkmiljsMfGaxsDFLsok4vdA2Rg7z3RBNZDYQ43bJ3JUiyWKVaKhK1AqjF48DOkSx4tJJkjIl63VWXgys70arc+VjnxNOQNPgBgbLHolYxLx4ZxvjhTO5Yt90wxGk623Z157oyzWnfuRX1eo8Dk45kMACMP+uH/G3bUu0bloAMNiA2QbTPEuWFhW1mAqKy1lK7O3qW9+tfIAYo9OMiZv9skllf3oerTAiZIUhFWWWYIpeXDguf1jthKZKimHr0vWbn3vcbd+7jMGKO4ndfTpxY7ySaox30JBojI8fGmHtomRpC6Ps7qCYsUySuTzJK2aMV8IhJvvYtaInDpr2pce63A55BusPfvhgDfyDCqzyyUdLRx70d7evWe6rvfUKSPOYpUiilhoKekhwFyZZQIQ1Rk8SOTvb2GEHI9AmcrcMnZKhFaYJWYleQpF2Svno3fL1iWH6bl227a4/8fzG0y+6l+qcw+CGRyLvKYSM8UqqMd4RtRKN8Yl2+tHWLjZKZ0w0xrNUYzyxdGO8kruTjNU3QqW7aV34fEdey2vqDd9z+Ht+/sAN/IMKLABz7/wRf7u9brvLfrQuAABJlixX1FJiiqGawCyEPUROStLs+ai7DzvIfdb4NikkhlYln5qt+qW7BROYJS04CujTi1ptTr6iWmJTd4XCr5c/9dWdFy+4O51z6F3xFEP1dWKMF6Pdc2MKU7HmzRvmpS+GaFU59ba7/sZv0O27NOedCKzZd/wVUgJ/+eZFCwC4gfZFT8LyVEKmuMZ4KT5LYpYa7pfh7hsKcRhfaB87FGsXNqnEljmPhjZEqtKHxPCFGLO8Bh62Kifui9xBcVapHgvlib7yR1/c+eYF9wqdi2i/JJEoZowHSzfGK+nGeJaOJ5Zq7QoQk6Ezxo3xLNUYH497iGb1GUuWz9V488Lgylc6siZYOvLQ2Z/449t5Pfo7E1ha/dDMW37Q392+atmmACAaL4CpIWa52EpiFimIhjswQAlM7y6zckIqf4ORPU+M8mcnYWh3oVWpG0luwSxmyWu7CwiUFk6olXrkhqpH1NKCKpP3yh99afv58+51+tfReArClhghSU+e9keS5BXGjZLEICUdT0qqtSt4jdEonTFmdw/kLyVd1HKM8SLlZbRXU7xliGtPdG58vSdfqXLXO+756c8eLEO7XJSf//mfP7jM0mdPbD72791nzKEWqDKnwO5T5QT0qfDYk9Z/D9Y6EhRZwTxU3JVB3flijugeJEUjyprQl1QZbPh3EJnknF4pfW6OyvgF4zeG5NPh/CTxesQuGPopw1ku/HzJUPTSYP1a5JctTivWQFj9YCQ1z19jqlI9tggAdh+DVeizXhpY32jtXNYVWLx7lX4xv4F/MyT/IOFbjR8K/Q23dE/1Leh+SyZtw8uYLDfzP0iqdPsSAID3cgTQjAxzjzZo3TQuf7HV3Qy9a6fe8D1nf/y/KuXpgzvkDziwpo+2X/qUsXPd2R12+PxZjQiw+zT9IOCnWPJHkZBp5XVpac3eaBIYiVlMiTCCKA0Bo4A1mmLZlfmOjiBphG5BAwo1iFOJwi+A8FJ30eQ8pFamjJ01e9iLvAsKM4o9DDGrfXXF6g3qdx0hEISJ/jJIgT6XdJ/wNCyXrzH0eG67+FmJkJIPpV4QEnckioUqEdqWX3Jyg+CX5LB76WwSu4gatQb2ja93Vp7tyomPAcy/52+c/tFfZ+oYS0zehuUAq4ROWfzgT/nbRk/sXLUAoHMVw23JjOU7DbVQNKlnhidSE+YYhiKz4L4GBcYMO0gMKN2FTQp5T8mvFQYboQYiecINMk4J9EERSSguAFE/+0j8nohQnI0afTefeeXS737GHgzcc9svYftxcMNT2/357SG9L2yMjxjX1eRJPJQ0PxGJ1q64zYsydcYUu3tiMAQf7GqaffJDFwIbr/Re/vj29uVBvEnx0H0H0cp+pwFr+k1/Tl5Gbe1l0xkvYuspb5qOFnYaam6IQ3JSB5aa1OHWWbJSK0US4xLN6mKMjZFuwagBKzwmQswSKe5I4ZFLANDqc+UjZyJfsnPTapxPyHPfunzz5V/7eG9t273acAObX0DvWtj25PGLKenGeCXdGK+kG+NzWrsoRr3xjfEQzuS+8d9nCQ3aq8Nzf7J185mOY8mNl9U/+Wf2oHXQx/vBVgkBEDGml5rP/7Gza5tCr7DStILhFk0/lLAWTtTSIiQVh6IN4uf4RorA1rMrQ9V+mrGQSysEMs+K1I9UDOWfJaIexrehT833V68I24V+64rZXUl9AdhDY/uFi0xVK0fmAUDYGK5huIHCLJRiSCUMNCxX+3MfSqIy6P8aCZWjDo1h7aLwWUnqpLNhbHuBfnt6EfZ3zOtfa6690LGGIVsYMUwf1wdNd9ogN/ukFmr3vn8CrNe4lI+9cfuJj9g9d7HSQVPMn9GIAGHT1L2xpy6kIRe2wPjESl1Gi7srmEeBld9ilWmo2oUZC6MMVcmW9bQG0hWi1vdRzAr2kpDPFLVUHaxfd2jl53p3cVZn1SOa0bYlWU20r6x0rq/Xji8oRR0QsPvoXgE3oc+AaVGyB0EDYWN8CDdhY3x+fo2wdiFGJcSM8TG7u7kDu5/IpnQXYTRQZti2bjzVvPF0y+hEFzSpHdJPv6c2d6bQXjXNvguy/rWvL3zgxw+0GetOABYxRSnWG89+1Nm1TaEVqTyrYLhBM2+AmpLy2Le1UwhkSVKWiApZ+2B3H9+3uEs2ZVwKOYSskcxKw1b0Z1TLdbvf2Xlls7caolXlkDp9l65VWGlWNVpcNhUbre7Wcxe4aZWXZt0Fzcxt0blCAPQ5BEsBsnRjfFjUes2M8WG7u9mE1Y5wKr0kNBi2zJVnmstPNAbNqIymldnJt9cOPVxSdQagUGU7V1zVW1iGVl+q3HVbr+185wMLQOnoQ7KQ1dvhc6c1pkjuwoRnL6QXYAhkBJGqGDpC1mhgISmRcUplAuNyXgfjiGBIFbJSWTaKWYiLWvKh6C/YXeluPhMKcTjyLW8sz9vO6vZMpdKCyg1hSZkwBRfdGxubz10kotLSNDEGYWO4gd4VAqBNgdTgLRL+KVxxCywW90CS/y6DQTkOZQlWKWcZWzBbueKKk/wn/R3j5tON5Scb/Z1omklSUD2qnX5XvTyn+efqFdZZs8yeK2QN184vfutP3DZrvr5egUXElPJM4xt/4OxyG0KgtqRisEn1u92YLCGSRhEFIQ6RkCyK9yH4a8N4WuFI81M2aMa0be02tGpMIUumkqwYZjMrCVFSTX9j5/IffkFe++f4t7198dEHSkvHrU7DHnSdKxVnFLXMjDaXg5OEZbevrm6/eBlAaWGKFIKwMFhD9zKERfq0t6YkhcPlJOZ6kleqRWl3kEJKrFZiJTcxXInFMSDFuxJt0rrZv/HUzsozzbhURQyVJXX6br22pFdnC5FLKSo1ll262b2d8om3FA/dOwHWa1zKR9/QeuHjZuOmOzx2+PQxTS0Aww2af2uweJTTgUREhqJQfFYwRtPWSsL4dneMZ2Lf19CqcYSsWJssZiElAitKLsH5xd/7jNkOxuqhd75h6W0PACCmlBZF0r1yAABGeklEQVRPgNtGa8s5pJZYaSEapQWAG1b76urWcxe5ZRfn60xVIWwYm+hehNUlVoRajpmlGHzLFihJ42OjGJTvUIJghZAaaDQwXAmvDZErlME2+NYrrWtf2dw61zE6VrwrlhaU6bsLxVmFKTS9VGIKAQSmQSmCFHCrUGPbVwxuBj7cmbf8wAEd5nTrVu589Uvn4lde+Rfv9nfrh9XT7y4BRCe/H9MPg5vghvTXhDC9XQvc8nYtCAvCBreEcOptCBvCguDuNpylN0fZ3bG/NqkxtUKM5xYMtQF2wyykLjK88uXnVr/ynL87fffx03/2ff74cf4f7qw1XnmKG0F6ObPD28um0UoIBGeqMnPfibk3nC4vTQehFVqNyqdRPgbSAAFhe7EXHODOcrnCWdzQOQThrnXoHHXW0xXe4s/O0qqhyvAh+a/gwQVDLQXMJgarsIcupOSZTP5cca9SiCCirb3S27nUaV4L5YSRUVWeVyuHg2yutblCua6BCEolyLDEDfRX177ZX33RDaFgWumN/3KdFaoHcYzfORIWAH32+HDtlf7NF9wB0OGlaaVYU9C7xubfCqalrHmV6o6nhBHoCV6eR4zGs0mlIGl/2JRfmMqYcJPmCowxC0jFVvh36280rv7RY8FjqpXP/OCHmBKJARRqqVJeOsnNgdV1w4UUnUrzqlZldl/wcHiR4KK/3th6/nLr8ioxKsxUSSHwIQaraJ+HsUHCglIFUyPfJdkY7zTIEwyRNr8nwWYPmDvoL8PYhrATel1oIyiDprHxzcb1r25snWsNGkZcoiCG8pI6fVYvzStMdX/nYlWrOcqgUnYn/DsRtkqRmKJp/c0LnumdW6WjbygdfWgCrNe+VE69bfOL/1Z4QZ7dTXv2tM5gwerQzMPJtAoNN8nPRRFmUfgk15JFOaf77cJiNdKIPtJihRxCFtIVw2RmxX8gZERgAbj68a8MG75TDKe/973FuamkESuIKcW5I/rUrNHaFpZrdlGLrLyoahVmDwU3osPX7A6al1Y2nrnY32wRY4V6mRhg99BfRecChhtk90EK1JJnffeV+URjfLoxawSepENWB8N19K7DaLiRVonh7OHK/vZg61zz5lObq9/Y7m4MpFVypeFaoOoRbeqMXpxRmEJmh3dumNwQlQV9aqlEAEgBK4Axbz6ACqaQWlWw07phWAP3s5hamHnznz+IA/zgLaSaXfTZE4e/63+88Yf/0O3NfbHy3PDYW4pi+xuYfhj1e1LnzXABzyzrrSDt/iVAUAxtIm4IQ9bCpcFanmnNvZ2sFeHjF848Sz4nuvSpiCU2ofAhIXkY3BrhzhYXgU3QWWiPRPinCX6szvW19pUVf3/u4bO1U4eSg+y9AVyYXlh4y7d2b1zoXD/vx5oWppXCtGK0efemNWxGw464ZTfO3Wicu6EUtKnTS/XTS7UTC0pBxXBTDDcgBJiGwhzps9CmnTVciXwvDIOwpWWlKQjrl9eadtZtdddMDR8CQRgwmzAaMHbAjfBi8alzErgtuuu91rVO83rb6GYFkep1Vl5Si9OKs4prf8vurVlmhwPowz784BQ5d8U0aXkeL8ieqSjMTR3t9hvu79Z++TMHdIDfUTYstyNw66X/5dH+8rN+zZn3lauLGtQqu/+nhFLwbFhD15IlW7UilixugZuOSUu4xizHvGW7xizCCLs7cpqxcgY3YEyvX96Qq9TtpDBRGhHKECLr+d/+TOfamrOt6NoDf+N71XIhiVOIJ+fi5rBz/Xx/9YrgIXHDGojeujXYsJONO95NVo7M1E4uVA/PlpemSPGw7lxfrUCbglIltSSUCpQymBKzW9kha1TIOGXDHsDqwurA6sDswO56LwMR3QhXclv0Nrqd1W5npdfd7At7xAAsTCmlRUUpEB8KayCMNjdadiS/w31/Zq5QVyAE1Io07UwDU8nZsPvdy988/9muf8qD/7+XiofuO3Cj+06TsAAQU0/9tf/w8v/6DsHd98n1pwf3fpvK0BVXf5vO/qjwu1EwUkQwq5KLYLF7BkC4q94zCO4tds8A7lzBFkGKmhTRBrGj8tru0ePhi4TksqSNxEul3okkOkV2ZUkqLFXFapx1GYkSpCoK7N8EAP2Nhk8rAAuP3quW9aQQJAGQEArcBeudFeE5U/X6XQ9Wj93VvXGpt3pV2O4DVYtUP6HVjmmDLbu34Qoa0Z9biM6N7c6NbQCksPLSVPXITGm+XpqvFqbKsDow284v6MW7MDA9mCrv5vZQAe6+n5xXFzdgD8CHHv5SshjK5LVFf7vf3+73Nvv9rX5/eyDHdowsw6Ydlyil3o4jj9QKdRUQ4UzN/muSgRi0emlGZSr5cbntc1+YAOt2KeWTjy5+6KfXPvm/ObtGhy9/fXDibSXROo+1z9PSB0SUVsLDk9fbuEclH14QRGpwGvmjjiegIZU+ifcb40uWVpjOr+CsRG0xcg9x7Q+h9RAojWjw1EOkYMsnFzaeOed/Saapi2++NzHdsyAdQgVxV8Ah7/lwAXCmFGon768cO9NfvdZbuWobA3+slhYUJwCiv2UPtqxIGETwMTbv3tzp3nTjipmqFOeqxZmKXi/q9VKhVtRrRbWsk7Aktx1CKSgQkZuS55Bzk5tdw+wZw+Zg0BwMW8Nhc2i0jbEIlfvNjKljxcMPVwt1xb1hpkiGOQaSk8erpBYrc932mqt4Dm6+eBCH9p0JLABHvufnG9/4g+G6my9856pRP6ROn9DFzU+jcoKqp4UMLLe7AeQRCjFRiwswEPfEA3/tgEjKc8otZ8Upk0qzuPErYpBCstw0YjdiGks8FGdW6LMkqxYi5BI2b7wcxLXPPXRaKWjxQFzBKi463as6LwDmfnHnlcDBSKscuaty9PRge62/tjzc2QwCIwtUPaJWj6hWjw92+LBhm92slHjcsntrzd5aM1KvFFS1pKslTSvrTGWKrpJCTGWKpshfCxDc4ty0bdPmpm0PLduwzZ5p9kxu2rsZhCUiRoILN2yGi7SMfkwlvaIUp7TKgj51vKCVWChbBqnhlasplDhXLRfrO21P3vWd6RNg3RaF6eXTP/aRV/75u3yP4fLX++U5Va+QuPwRuu8nSKu7lhLGpREriVcRUcuTwogLAc8q7xYzC1J5jegZMlT8UjnwF5AufOWwfpelDCYzC1IUri9qwTNtBeRqXb5pG8H0kbmHz4TvHAAJpe79lEJipgBxd6U1/4sIBsEhUJxZKs4u2cZgsHFzsLlqdoOUKWqZVcuselTllhg2+LBpm21uG3mlG3to2UNr2HhVBl6Z6TWm15heZ35oAgCmKnpJ00q6qmuKyrjFBReAUDRiCpHTLaM5qYOTJXMqBasC+8CaCkJJBivfnADr9iqVU2898n3/040/+Dm3O5ri6uO9s++vktXjF36V3ffjRKpgGU5DSdTydUaXWZCZJQQn8Ch9suSscLNEuSzL65eo3CFdqkIMTAjnVk11C8aYBdfMRGHTlfMBAlIciGheuul/eHF+qrQwFTVcKTWQLunU8K7GIQDiEtYdc7izWCQHcUUrVI6erhw5ZQ96g+214c6m0Wr4F2EqleaV0rwCwB4Ko8PNNje73Orz8dbz3seRViS1wjTnX5lcJ4BzqKDpJV0r6VpJVzRFRpKiBT7phHyNIfFKCSxWbtp7efFqRkwr1AJgma01YRmk6hNg3Ubl0Hf8/dZLn2q//Flnt7dl3fhG/9ibyxis84u/xu7+MQrlqZOtEmFRy6cVCcDXDaWwBjEcZbHKZ0RPZVNamzTSRU6MNZYNWJmhDHAwFLkBIWfpiZqxnIPtq6v+l586c1REvIGsCFZxry9Plgo2PMEqOCppi45hnkEplipHTlWOnOSmabS2jea20dqx+sEcIKVApYJSmlOca1pDYfW41eP2UFhDYQ+jIal7L0wjRSe1SEqJqUVSiqQWmbyal6pralHXSrpW0LSiRsx3ZYjMRUOQFXHK1HAGG3+dIU8xZLpaCPVIq7ulTR2eAOt2KsRO//Vf++Y/faPVdeepbV0clmeU2buKaF8Ul3+b7vphcoGUIWppAa2Y8EcNcSF8IQsKOdHMY4dWpWNu5FlpQlZayFXclJ4r/Eq+DkL6YAK2XHKZ7b7RCqhRO7kUic+CNhtT+rzbCwmAHIIFR2VtUQA2B3PPZapanF0szi4A4MbQ6LTMTtPstK1um3vBXCCoRVKLCqTszIKDG4JbgpvCNp3pWELYEML5CznygBg5cjfz17d0/mqkaMR0UrSosq9oqqJrakFXC7paULWiRsSi4Q65l+FNjgIRcD2bwSLVvm7or0qrRhJhWe2NCbBuu6JNHz31o//lwi9/t782yfLXe8UppTyniZ1ncb1Mx7+PQsseS8pghqgFgAQBwg1x0CEGUbgkB3Bm2uITWowvZIWuE5OMsixWWW7BJMLK2IJc31vbkgY5Kx+aCY06tQ6me/PvpOEnJPerE6iZaIaXtUUnQookvVIIpunFmbnizJxzb7YxsPpdq9e1B31rOLCHA9sY+s+cGJQiKdhrxhVizGGTommKriqapmiqWnAFqHAMROKy2xnJrDFiynQkfTOIKJKgWQEpnoLpAau3feCG850PLABTD33n0e/7n2784T9yHzjHla907/m2ulpUxPpXAUbHvpt8ZYZJhIrGZ0UVQzkOXpBGwshkUz4dcGRo1XhCFlIUQ/l0WQTLcAvK6iEyI7BosBXYwotzdabKyx944lWiJpiAsHQzPHmjmhPIDnZDaemFohcUXS/UZ6Q3EOeWaZsGNw1uGNy2hG07f4VtO9Y44WQpcrwJzMn6AFIYMYUpjBSFMUYKUzSVqQpTVGKUOrc5V9L9xCIyj3hHQ/pg4hqxTpj+gR/LrwtgATj04Z/rXfv6ztd/z9k1+/zSlzpnP1BjKhMbX4FSoMPfJnu8XEL5tvYIyBAohk64AzjAdNiWp9Hc4tCqcYMYohYrqdeHDNuUwCwgQT1E2nQcl1zDRicA1mwtJCxoU654lagJxsmVKFhFtUUOoUBwkC19NSQv/yMEiJimMU0DyrGQqxhuxmqQCKMRK5DElx3JXo0pbsDSEhbIcExXzmuWDvx6OfAG3OujEJ36kV8tHQmyj/Z3rCtf6bhL7Kx+Tqx82jGWgmlgenTt6GDVezW06A4p8qr3gukpHSve/zIXsxnRQcMNBJKGaKKsgeRD0ZWckb7yc3i4RgeqvyvMTmDA0url0Kdrs0nryMeWUwZLakbho95aNX6lUF2eJv8sib9k0i8mMn9/5Fg6O/eC2yIpmDZ5caNExrn9MIhrJz98NDC9M7hhsfKYOHgUe90AC2CF6pm//YdqZc6vaa+ay0913E60+jlx81NgusQsf0HD8HJhGaveswKIIan7pe2nN0gD2ahl5UPDQyRRUoxiVmzXaS8wClsBvOxBEIGllQvBUaUItRJb6Y8lIwxMWmWLRRfLSlh0yxEoVAg1lLIx4TeJoVkk/m7hPMVilGY3kmKjNxJLZjOme2IUCxRDWRkkAinCHlrhkDS1tjAB1m1dCotnz/z4R5kWrP21fXm49oK7eIlY+4JY/iOJU3qIVj685PUNZWa5QlYxtePm6u45e2r2ABPJRMvLrDQ4ivBXCE/uDXglACFPV2a6GgBLn08QqRLlqQzhKy5YRZf8Yx62kFfqzLlKYxxMI5ez3b0+mJ73PbAY+kvMOm5BaTqOHNxABGtgDUJBaFp9aQKs271Uz7z79I/9uiwHrb7Y2zzfd7vA5uPi2u8TKR6t9CitQsyK6IYKMRWsAFJGv0tzKRSjhKwsYSFliEZxlnhU2hUic23nePCakGQxtzjLerj/tBlpweQMJKWphGmCVUTy8gw3QgOUZGlrP8Wr/C+kbH0Qo7pErJAuK4Ph6ThKaNvumwMpPkMtKOWZCbAOQJl+0/cf/wv/Wq658fXu1oWB2yu2vyGu/g6BPEuWxyx37WhfzgrTyl/1nqlCKaV2UzHK2JG6NDxS5CakHI2PQJEyUONHkWLSQnRt5wiqEu4ZALhpuQ2YCqUULLOck1n+LlNi9ZSuLforeimABqGm/M4ix4+cIV5lEioPxZLPGgUvlzrMnY6T7CKkEO7N9qAZSFjyeukTYN3uZfEDP7H07T8j1yw/3dm+5KYBEM2X+OVfJ2ElyFmkBcpgsCHDixErgmn5lpvbhZCVruNkKIYJ7/EMZkVGcoqoBXlJ+gi5hFLQ/E+yBt6S9KTH3O3jaIK7McNLy8dDT5a2xrVqjXh/iF1SLJc+GO4ArOBBOTIdJ/wLg8Eeght9CVjl449MgHWQyrHv/xfz7/2bcs31p9o7V11moXOFX/hVsvsurSjNaai5RgSXWW5SWijVfD04qcHYQlaKZX2EMQupdENKgqeIwhhJ0RMiF9RSMEnN6g4CCSsaIqSMNsCPVhhHmuF9lmmA7tq2Eh5NDqtWmng14vWTjB6xeyM9QKokSIan48RtWGYTEP2dAFilY2+cAOtAFaITf+n/nH3bX5K71LXHW9sXXXsWBuv8wn8iYweU4TRUAg1R/qvoYIXkriaydTqMErIyBYFk/S7OoCQTu4gxK04okYitBHJplWDB7WGj4zW0kpRBZXwzvLIbM3wgcKmgAqAFkajJuMcexKvIEx4VaZXKybRuQ1425LAm6M7Ikb2rBGIYNqyBGLQDYFVOvmUCrIOGLKac+uu/FmHW9SfbGy97MURmk1/8z9RfAdNTnIa+8CVZspxtrTaeFXakFJawm60YxlpmMwtJ8VZ5I7CiYQ36VBB71d9suYdsg+TIoJzM2k8zPJN0KAXQQZ6eOJ5nA+MJxbsP2krBmZ9JRlJ+CRTjuyNwKWKw1t6w5Z5fPfueCbDuCGYBN7/RWX2+402vHfDLH0H7osSsuKgVk7BIBdOhlFP6+qg3dt7Bk3QuMhVDkekWTLw3kTic/DiGRIu7KC3U/X2rNzQ7fUCADyE4uWrgHpiVRa48ZniSVmpQXD2RdGk4ZGuI6d6PXE8ZUk6L3emDzm3L34WyVGkA/fXOWgCsyul3HNB1CV/vwPKZNfeOvyZXrr3YvfF02+uZlrj+B9h5Nuo0TIzPkp2GWt2Nus7o96Nf2vlCrkYohtnMijcYKWpBimPwyCXBq7QwJU+F7NzYdE8xW0Hq3qgBa3wzfPyUMczwcZlLAwqAGoyL8cSrPO6/PLMgMOIspoRStiOCpwjTFQy3hG02VwJg1e7/4AEdrRNgecz6kV9d/MBPyJWb53tXvtzgtpM+houbn8DGV0JOQ0qKz5JFLaZDLYf5glEddxdBDBmKYW5mxWfniIxQBpGiD/qbQtFUvRrM/Ghf23APGFsOZdKZ9Sqb4eMUU0E6yCdX7ueSFToXQ1GCqSunPkiSQd3fIIL0NRH6JUXnSnvNljOvzrz5oC5VPwGWDy06/sO/dPi7/olc11weXPz0tjVws6CIja9i5VOeMCVN1gmRKyxqaVNhy+44cT3R2XBImVySgrCxmJU2HSc1lAGZ5BKAKEwHkQ2ty2uCCwigf9PnFJFCxPbJDM/2ZoaPnOjUO+TSAW85n4QXA8YRr0Y2yHERkpRBj1YeqqTsV37oLDF0ru5cCxY9LC7dWzr68ARYd0I58r3/9NgP/ku5prdtnv/E5qDprN8rxM5zuP4xEEXtWaH4LNVzIDpCVjXGnezemTuIIU6iiPU3QSxLYxZSzPBIjWsPRbSLuMewvBTY3a2+0bm+AQjYPQw35Um5+2OGx76Y4SM15Bm5nAkMupf8IOn3HSFepWNoLIoRRdfvcqfjeBEMCAdhgaG3YnW7zZsBsGbe+hcO7gidACtalj7006f/xm+QlJzR6NkXPrXZXhm6vaZ9UVz7fQg7ltRBDSV18PmlTYNY7qn/eSxWI4PXkTcTQ4JbEAnBVhnTcYQ0kTAMr9J8VdGD4b390nWXf50LIR0Qknq4e2Yp+2eGT6KYm7pTAxVAmjtwcolXCWAaZW7PUBJ9fVae5OzPwqHoRHGmiOZLW5etIJM90fy7fnQCrDuqzL71h+/56c+o1Xm/xjbF5S9ubV/qub2nd0Nc/R3wQcxvmJTUQdGhTiV23BwxWXH6IEWnk5uPkz1GJIWVRkdUGrYifsMQv5RCyVkGwimNC6tW3wCA/iqMZsRutX9meLZ/ZngKLfgOWVXUQAVBWpCseezsGsgRtBW3ZFEgZBHFFkxVQt+LFBgt3lrevBBkzph6+Lv0uZMTYN1ppXrm3ff93OPFpXuDnsNx/fHG6nNeIs3hprj627B7SfFZajSpgz6TNCM6zZKVASakTrgZI3tMUuNUk1YatjImErqVSrFUmg8yRAqbbz1/1TlXNJ8HZPv6bW6GjyCMvHkwiiBdUEFQJJtNfvEKmT0hvBG9GXc3nA1ZkfVrsf3M5kVTzioT8SxNgHXnlML8Xff97Fdr97xPrlx7oX39aztu7hSjLa78NsxWgpAVOA09S5Y2E+u+CEMnX8hVancflYkhmUfIytInMrCVQS73n1apKkUqTAdC1ubz14TjdR2sonctjCeXWXs2wyv7ZoaPUCyECfJg4TBCFawgSA+tnT1S70v48ZEZY8ykhZ1TsiHLybCGW7x5beN8IF6VT7y5/sC3T4B1xxalPHP3T34yEla6fal3+QtbtskdE7K4+rswtlOSOiiBJaswB1J3m3ohQha5H+fOxJBlYhdZc1BS49oRI1c4P1ypAqLKUiBkmd3BlmvJgmg8A2HFmXUbmeHdNJ7pSqLDLElVFFQQrABX4Iq8nyLi1bhzpJ201BFbWywbcjCXEGLja2svmdYweCgRJ/gEWHdgIVU//aO/fug7f06ubK8ML356wxrYEAAfimt/gMEamB5Ek0YnSKsgFfpcrBPH+qXIBhNGhy8gk1kjs/SJXUzHkff8WdCCGGnlij7FtHLQzdaevChsG0LA6ovNx73x5jNL3T8zPLv1ZngXGRKzGMAE6YL5eiLGE68SZxoKhKYKSvdPiKUYdZTBxvPD7Z2NC4Z/jfLJt0y/8fsOvAzx8z//8xMqjYIW1e/7oDZ1qPnCn/g9yRrw5vXB1NGSUmAQHK0LVFqEPp3QHf213ZUCzAaE7XU7eB2avJUmvLdoUC+1iZ4iH0LsCukt4a/jIJ8SaYNg8Qu5MmgcqUdSY9iDvtlpMY0G226YNTcstaBVDk0DgNkkVkBxIeHbOWn/Qncr/TIUu8m0DUo7Kv0yhNAvQLIsIzeg0IkUakzBr+5f1gmdBwlbEq/SwDQqaMuBEfNkT2+DmBdJw1QwxX1B9lew/Y2rjw+MTvCRd/13v3tAc2DJZSJh5S0L3/K3zv74x5gexBYZHevCp9cHOyYACEvc+FP0b0anGYaSOmjQF8NdNmcmBrnvpoRcIQGVsZZ5svRlhzKEEyKnW9ydf/rUDIDijCILWatPXLD6Q1ce23kawy1PNLhdzfDIb4ansBBEIF0oZckakD8FTVgf9JVBScKiyHQc52cZbonNJzcvGp31YC7O7Fv/YvXMu+6AYTgB1hhl6uHvuvdnviiHO5g9++Jn1vs7BgAIO8ys8MQdR1sszoEVRlusRqToG8uYlZNZ40dgyeQSImZ0BwC9NkWMAaidCKLebcNa/uJL3hVssfYZWK2oJYsp+2aGx56j4dOcialm+KhpXLCiYCVpnTSEXxXIYpkAZA5GgIvwLMLhttj4yrBtrjwfKINKaerYD/zvd8YYnABrvFI++ZZ7f+aL2vRRv8Ya8oufWu9tGu7wu/kJ9G8k+w0de3xxKQVMkc4aZ9mYxqzRzEoCZd6EyAjvihivXDOWXpsCoNdZcU6KyTq/unNu1W1pD8XKJ2APoszaLzM8KftnhmdjmuFZIByRCtURtZASpIIsp6E8HSdkxpJuvrcsNh7nln3lq31uBc/o+A/9a236yARYr9NSPHz/vX/vi4WFM36NbfJLn3WYBXBL3Pwk+qtJSR0cd+ECWHH8TAx7yR6TxqyMLH0jEyKL7ImEfuPirKsF109opATmreXPf7O/1XYbW12x+qchZkEJKYC3ixme7coMLxnvlbJj2BpDvAIkTgV3TvLkQWGJnedE40VA3Pj6QM7dPvXQn5l714/cMaNvAqzdlML8Xff8D5+Xl2X1mDUEAGGLlU9gsCFN1glriKWj4etlJDJOlL/GzR4TnnmTPB0HORIiJwpcifCS+D4z62iFTKOpUyHF8OIfPjXY6rgnGjti5Y9h92PMUhJm8Lz20fA0KhqeEYgoNj8ZBKUMpkWfY1r+/uDnTcmGzC3RvS42n8BwE8DG+eH2VWlFyOkjp37kP91JQ2/iJdztD1eqz7zlB9uvfNZsrrjdiovmtV51qaiVFUCgc5kqJ6BWQhRwJAylgOEOhBlz5EV8fHtwBdJIt2DY8ZdYE/IJJjoNETs3doSRPRxYvS4Atcy4CbPrvv+5xRsX1uqnFtwE8PYAnUtUPQmlGPOfut+CIh9HsWYZG4h5+uQfJ3KpkBsxdA/hZpTwUIILUvhH9U5nGoSJYIJfmnjl73IvAtlbNEDYZPXEYA3dazBbjkjbvGFef3og/fLq2Z/44+Kh+yfAmhQAYIXK7KN/of3yZ83GjSizKiqEjc5lqp2GUgqvHeC8LzUYW5lgSiLRaCqNxSxEQxnkGILR2EJKWEOUX4pe6G+sOdv6lGJ2uO1FM3KLNy9vTJ1aUAsqAHAT7QtUWoBWj/0U7mU9DFAyQeIkiiIpRq4ITShOn/AhivE9FPdAkfZByEPogSjgw3ziFdxfhg9hD2B1MNyB2YDVgj30Bdvuln3lKz0hrZR67Af+99lHf+hOG3QT7uylKKWpu3/qk5VTb/NrbJNf/vz6wPEb8oG48SfgRkIO+MI8FEn4GrHCTcaUQITVxgzdMEcCLIgxEyKnKINCnggttHJFr9Z9UMzcXdAqQcczu8MLf/j0sNF1r8MH4uafoPVy1PrOlP0zw+89Gl7Zqxne6QwJTzyGKl9nFxzCArcAHumHvS378mM9HoQxYOFb/tbSh/4/d+CIm0hYe0W+Vpx59IdkOYvbonmtN3WirBYUcBO961S/B0yNdkqmYbCRGT6KBCUROQWrpOtE2yNVPUyrlHeTZS4kNmaaPtjecKsYirPKcMfmXo4mbto759aqh6f0WtHFVvcqrC5VjoGU8J0HvwMl6NG5Q0njglJCswxtMS5PUUINQpGloVhTEMDBjVwLXmQmOO1t25e+1LXN4NDUQ9956kd/negOFEcmwNo3ZrVe/ITZWvWZ1brRnz5RUTSCPUR/labuRaQDKUUYW+BGMAhTdbrdKYPZzEKKepiGLaSasUYEvgOAWiwOmw1uGh6zqDCjDHds4QkFwuY759eK06XiTMUdjsNNdC9T6YiXZpqSmLXHaPhscmF0NHziRXJGwwuA9xNIFCFUZtBWe828/FhPDmKonHrb2b/7R0wr3pFjbQKs/WPWm76/9cKfWO11p8Y2eHulP3OqyhQGqwujSfUzUocUIIBp6K+nWqlkCWIsAzwwAmFRZo3CVrJtK6WGUpnV39oIfjGFimFmQYjGxQ1SqHrYSx9mD9B6mRQneI0l/kSvsRme2B7M8AJWbxzxKkIu0bhuXv1qV0iaYOXU2+7+qU8qxfqdOtAmwNo/ZhUq02/6c41n/sDu7Tg11oB3N4YzpytEBGMHwqRKOHeaWsJwE3wYQwmNbVYfm1lIVg+RKVVRDjKl1Ct6wRr0rEE/+MVU0iqsv2nLzTo3GoOdbu34DFOYOz6719G7RsVDrqhFbN/M8EjRBPGqmOG5BbufiiRnI30C/PrLw+VnevKpLq1KU3fwKJsAa19/zWJt6uHv2nn6t/mw69SYXWvYsqZPVgBgsEFaBcWlkCdIKaB/c5faX3ZLZExpTlMP82ArTi6MsmS5RavU+psb8tdXCsRtmJ2QFXmw02tc2Cgv1PSql6ja6qL1EsCpdMjTrKPu1LBJK4Zpiv0mlEmuBDxRuraYohIiRUl0/uNDD1jjiVfcEtef7G2cH8oHave8/+xP/PGdTasJsPa/qJXZ+gPfvv3ER4Tl9qdB0xS2qB0uAUDvOpUOQ6vLkMNwC/ZgfzIxjMGseLOR2MpDriyEMUVhChu2mnKlXlMG27awQi1tw9p+ZZWbduXwlGf6E+ivoP0KKSUU5mO0fc3N8DSuGR5mC8LMSpGWJF4ZHfvylzrttdDvNf2mP3f27/whK1Tu+PE1Adb+F62+VDn9tu0nf8OPDOxuDPWKWpotAED3KtXOQCkGfVEporecJT2lGrNGMgu53YKUFSBKGBE4GgVf+o9TqRrdtj0MpAMiaOWoYuj+bmutxsWN4kypUC+5A5gb6FxG9wrp09Cm9s8MjyRN8Faa4QX3AvHSUl0jLl41rhuXH+sY3ZBAuvjBnzz5V/8DKdrrYXBNgHVLSmH+rsL86cYzf+DXtG/2K4tFvapCcPRv0NT9gdNQKWG4AbufIj1lC1a7ZdY+YCsDXpk/Tm2qv73pppl2foAC2Yawegkze+yhtXNufbDTqyzVFd3Li2/30D6H3jJpVWhTt5kZnmLNkszwVgt2f9Rk0qCeW+LG17srz/fl0FBStJN/9VcOf+c/vCMjGCbAelVL6dgbAHTOfcHvge0b/elTFUVn4EMYO1S/R3oORfSuh1kzbigDRmTpi4cyIC3YikZMxyGMa3EPtVAUrVzp72zLlXqV9TdskZLga7DT2/rmCrftymKNFG/NNLOD9jl0r5Fahj4rf6PX0gyfALh4jS0Ga1785+is2Z1189L/296ZB0ly1Xf++zKzsq7u6rt7Wn3NjGZGQiOERiOjAyEhZCwEgsUCDMsReC3LC8vKNuaPXRxeL2xgh9FG4Ai8wbHsYtYcFmAvlyxWi7yAjISEBBqNZjT30fddV9edx9s/qirz5VXVM5pRZ838vtEx815WVXdV5qtP/N4vf8cT+cKKYxsY6Rnd9eA/XQJFRAlYYVH3njsqC4cqi0fqU9PgxeVK385uJjFoWTDGEhMAwDnkBKorMMovLxenHbOAczC1sLl0HIbzMLLkaFSS5Wo+L1CMMQXVrBn0Em7y4mJ+/egyk1i8P2mbFEYJhZPYOM44h9oLKfLy3PCb9Hm9HDc8eGkepiZAKbDRt6HxheeL88874kIBpPbeveePHrvE8gQJWFstxnquuzd/6FEroFSvGFpR75lMAAzlBRYfgdrfWKpKEsWzPiTaLLP8nozz2B5i0xFY3hRoCxAyIAtd83wMp0iyyzR0rVgUjkjVrGla30wmDb3h31UWDnPDLj9g6ubGbDZ9bJkxFu9P2PVqjCpKc8gdhpZncgyR7vN1w6NVEuLLd8PD5MX5xmbQQSmfaWa6euZf8sVVzXGOJWXsHX8x9b4vSNGuy/ArRcC6yMiSIz3XviX9y2+atcY3s5KtKTE5MRAFYyjOsNTuhgO+7snSiy2pdIGYBZwzttA6ol0CZCACpgBKo+lGozljFJIKJoNzcIcBFU31GNWqGJmlxETvO09O3bjzD76lZRcqC4fFF5qauTGXXTuybOpGvC8hKZa5ZaK2jo3j2DgGo8zkOOT41rnhPWgzS7w4a0e3B9fFLmf1mV/kV4856vABiI+/ZteDj/btf1eL8hiX+BeKB7kNSBdOhVNPHf/snVy3E1N23T2aGIiBAbFhNnEfuAmzhvIilh4/30oMLe8DBoYy+DrXW0Zgicd4055y1fCFs1yUXSrTgF4Et6v3gvPs9HRF8GdljteqWcPC/d5PvhQd3lU48cT8dz9ROPWUzwqWWO/O/sFrRpIjXT7f/0gvkhMsMcajQwDADXAT4OBmc+A9YrrH9QFMcA7UH20OGs/hnudwx8vNGi8vobruyU53p7VrZWPpYCF9puL5mPLI3f/hinv/nCnRy/mrRBbWKyG1f0JO9OUP/aj5LUVhqdx/ZZckSTCKzKyiaycAKHFUlqAXLwqzzjUdh7WOY2Dgzfp2rrbpLPgIk6EkwCLgtWaBMBbrSRm1ml5u2B2ROCtZ3RO4qZcyffvuUwemBl93f9fOmyuLR6wCZNbJrKTL6WOr2TNpbvBoKiYpklCVpYzKMvInkDuCWgZchxSBFN2EG77dThCbc8PrBV5eQmkWRsl+x/AJZagVjeWXirNP50tp3XWukztv2fXRH/S/9n1MUi7zrxJZWK+cTn/pXZlf/6M17Z1KTr1+uHEnfuwtSG6vl3bA4o8361a/UFX6gqJGERA4yj29YRpUQhNh8DGvmFBEmJvQrMRvgKOwuFhYbnj6cqdr1saQSfLeTx2NDu9qPpNnX/j+0mMPFU//wn9BSyw10dO/eyA10dPwcHmr4EtxxIYQG0KkH5EUJLlpCpnNfas48LO/Ao2veoUcHVqeazlU1mBWGn/UsekT7CyTbyxX10+WcvNVr69PSQ6M3fdXg6+7/7LdAxKwtkxGOXfk0zdU105bRyZuGey/shuMQVLZjvdDjsPUMP9PqCxfOGYhuErfuVQWrf8hjqZhxRyc2ox5BVd9YYbqqmB3oJxO52dnOedGha++WLG+vYOvf2DqA//ddTILp55aefyzmef/NwIWsByV+3b09+3uTw4nA8PHG4G7Sai9iHRDTkJJQI5BjgNwUMx/J9gcmDUYJWgFrhegFaHnmk+Gz+6vydBKVstMlzJnKlrZJ2iWyZGhOz4yeu+fK8kB+u4QsLZGpelfHX3oVsuZJSnSVfeOqV0RMCA+yibfDa6jOI2F/+PBUNut3znGW517QWTOmaPPsJtTTvPK/4ijix8YQ3UFesGiiVYqZc9OG7Va7lStvG57sq799EnfJqDVtdOrP/ti+um/0/LLQedc7VJTkz09kz1dI0kms/aNrxvXRoVc7ymp2rXMGrcOtHoVPW5UYdZglJvkal9Zn3OU1qr5hUputlLN60Hvue+Gd47d9xmx0QmJgLU1WvnJf5t9+EFrmhyOXfmmUcYYGNjgzRi8CWaNz3yXVVdbIumCVOk7h4LI3BRaKlwA88riF1BZbNwbBQCYhpGfnSssZtZetB3PI2/6eIvOetzQcgd/uPbz/5E7/JjrRqQoKSJ1j3WnxlPx/ni8L8okFkCrgNaNzoKunLdoBeKYchOVbK24Wi0sVwvLVaMW+A6ZHOm78T3Db/zD5PbfoG8KASssOvk3b80detSaXrG/f+hVPQCDxKSp9/DYCDZOYeHR83JXtWYW/BxVwdhqvoSbaLSuCjSvrL7Ebc0rV01hBs5RnrXrFgAAypnMzE9Ol9cbNogcS1330HzbyKNaZm79F19df/JvxX23/7pnLNoTjfVFYz3RaEqN9kbVZESJyheCVtArRm1Dq+Rq5YxWztTK6ZorOsGr6OCOgVt+d/D2P4ikttEXhIAVLmnZ+cOf3GuUG0ULJJntuXcs2h0BY1B7pJ0f4mD87LdYdeXludiDfFWbD2VgADivJ7own05TQdjyOeK0y1xPNg0UT6FRia6xIAuLuZOPHLPe08R7/2b4zn+/qfPLeeHUk+lffjPz63/QN1Y3f10kRVKTkUiXokSVSFyWo7ISlSWFSYokRxrnRFYlUzdNkwPcqJmmZhhVU68ZetnQyoZW0msFvYUN5ZKc6Ovb99v9N3+we/cd5FYnYIVX6We+fuYrH7SmyeHYrt8arYOD9V7LRu/mGyf43CPsXKvHtI+3OpdQBg7ejFrYlHnVyuAKMK+sW4faBkpnXeA5/r2XSquN3WJsZM/eTx09p281N7TCiSeyB76XPfC9WmYuPFdf7ZtI7b2774Z3dl9912VSZYGA1fE69fl3ZF/4vjWduHmgf1eqwazJd7HklHn6a6iunTOzsOkqfa0LIlu0CjSvvJGi7cwrR7dkuPlVnkNtrQkbAMicWp/+ib252/Oxx7uvvuv8znZ57mD+pcfyL/24NPNrvbj+yl9upWuwa9dtXbtfn7rmbrEFL4mA1RnS8ksvferVeqHxFZVV6eq3jysxGWCIdEm7H+AbZ/jc94UkXmzCXXUelUV9scW4EL7AHPcBvWxqGzVq4UnyiYC322dx5A43soLrbiGTv/T3B7VyI5mu/zf+9Y7f/+YFOPPZhdLcgfL8i5Wlo9XlE5WloxcDYZHUSHzs1fGJ6xPj1ye23xgbuYrWPAGrs7X25Fem/+5+a9p/ZdfELUMN3vS9mo3fa574Mqrr58gsnEuVPn8fFuc2bhiwOfMqOFI00LySnC4tCVoWGyfEU7T43NzygUZAKVOi1z20oCT7L/iFMErZWnqm8ZOd1wtremFVyy2ZtaJRzpmVDVOvWmWvATBJkaJJJslyvFdO9MqJPqVrUO0bj/SMqn3j0eHd0eHdcqybVjgB69IS50cfurV4+mnrwO57RhMDsQZCtr8HeonPP+IsPIBNpD2jVdQoWmQR1peEIzewnXkltTO4vHhyhmJZPUfrg/wRaHYN5WqueuQ7h6zpxHs/N3zng7RwLltR5+ctFWOT7/u82K9w/tm0Hb8z/yjruRqRVPNWOpxFSOxwRP8prF7NruOuZwpjXr8naL89sexAE4vMWTjFhTyhbB5c1c2Z51HhIWuQ3C68KR5NqcltdjRD+plv0KohYJG2TImJfUN3fNialtaqudlmrzotz5d/yoZutb++/sxyTr0N6F15IU0yebFV75VoEYTBlzXwIIk5uNMGT/B5ifhapRvqoPCeMbDb3gMWzzzTNsaKRMAiXUSN/au/ULqHrenywawFF772LKKDkKM2U3yY5Zz6Z5x4TS0X4DjA7GalgAAR2Jxym1ee4uUuovniyQ01uH9ncnuz7B8HeO8Oq0chAGSe+zatGQIWacskJ3pH7/mENS1narmZogUXPv8j1rfPYQe5meXKKYHf9rBpagXtEDnjkEWCCK0cPHBp/OvBVpDBZR+Ez0u8z1SSiNoZv1KEdU/YDuz0s39Pa4aARdpKDd7+b8WcjKWDWZss1VVUV11GE+eu7BB4tniu7aGLbm5scduP5jGvmNeHFWReufxc8NsYOqHGmP8OMbm9gVfOwdE71WudnPLcwdr6WVozBCzS1l2GSHz0rX9mTStZLT9ftpjF8yd8fercay65a6cEmVqOKlG8Xn/dbV4xHyq1Ma/Qyq3u4Jf3x/lXGm0HG+81NdHdiK8AAGRf+AGtGQIWaSs1eNsDopG1cjjXgIkIIE8tJ+52qHP/7aHb1BJ3iM2AA4tHon+dBd0ibO3PCsCT6yWOHg0eB3xyu/WeZVXqHrN3hbmDP6QFQ8AibaWYoo686U+saXG1WlypbI5Z8HFpeQ0rLm4GrUcZh+La+gWYV8y/0kPjX9dG0osn+GwMW+0Qgfg2SBHrU6TGbWBtHPupWS3QmiFgkbZSQ3d8RI73WNPVo/mAOk3u24LcG8rga2p5IrA4k90o8bGbnDFW7f8NwBML9l6J1LOfLyM+3rxVyFNjdjQWN/WNYz+lBUPAIm3pxYh2iRVUcrPlWkH3Y5ZoQzXn3Ls9hG+wlbBDrPfmElsneCNFvQ74IKdVCzzBx13l3WZ6iZacst682q1GU3bDmPzRf6YFQ8AibbGG3vBRsd7I6rENG0DtYxfQztQSd4iMs4jHFEKAeeWNC/X1W/nhyaelaEDoAzxurEiqGejPAZ4at42sjSOP02ohYJG2WJGe0b4b32NN06cKpmb6MSvwtqAQ8QCPqWW/ljPFHbjQIhGnLuaypFon4qBVQIP/DtHV4pSBMSTGrY/QtS1pnZnywiGr0AWJgEXaMo3c9cfW2NR4ZrrobbjigJSPr8q1PRSeWR8yCUxx3cgTfO2ejV5g2g1rhycEJ+LAx2/lk1o4acW7JocT4ony7atKImCRXlElpvYnd95iTdePF1wlw9HeV9XYHvKALEKOiLtgg7cuYIvABcdL0AZPvmFWrRzwzGFnKd3WrlCJSbEe240V1JqQRMAivaIS06HLGa20XvUwa1PbQ/h6tZgCJjvA4Zvn3CJStLXB5aoo3yLP2R0w4SGaa1cIJEfi1pgsLAIWKRTq2/87cqLPmqZPFX0aSSFge+iJwHKaWuCS6lcJ/oIk4qBNnrOvyRZENGuQGGveKODirrA0/Rw3DVotBCzSVl+VSGzglg9Z0+x0iRs8uPGn791DeLxa4JxzKQJIDt+TK89ZpNI5J+Kwdok4aOOA90VbbBhMrX+IRL+9JTRrperycVotBCzS1mvw1t+1xobGc3NlAUabqNLnG+wOhkYoA2wetTGv2LnnOTP/IImgPOcWIVpWYdL4aP2DRHtVJtsfoDR3gJYKAYu09YqPvyY+/hprmjlb2kSVPtgUs+kmPCfQvGqR54x25pUvntA+zIoFE405C8Yze1fIGOK9tpFVnn2BlgoBixQKDdxsNy7cWKwamtmuSh8PNrXqV1v1T8SBwK42ec6+Bhda5jn7hVmhZeCo1+CKj1gfKy7sCsvzB2mdELBIoVDf/ndbY27y/FzFZlMDRnBvD+EytQRsSdGmeSW4rUQ2Ae7bdiw44bkVntA+zIoFE80eSPZDaj+kWP0TxXpV67RUlo7SOiFgkUIhtX8yueMma1pYqfqHMvhuD907RBZoXrVKxMEmsp0RsDFk7RJxAogW9FM3ssCjKRtY1fVprtdoqRCwSKFQau+brXFprdaEkUgi3qogsnVEUt3mVas8Z9e4xT1BePIE0S4RBwHmVYD3ynpJbLjhd08Jvd25WVk5QeuEgEUKhZI7XmuNK3ndzivcVJU+6wYigxz3eJqw6Tzn4BuFgXnOzB1mBbTJc2atLS+pDizOeSSpiNVHqwQsAhYpLMDabgMLHOWs5td4op2pxSLu/jdb0nAwqBKWN4LUYV41Biw2Uv/EjHG1S7E+Si09Q+uEgEUKhZSuQXVgyppWcpqDRHxzppbHvNqahoNtiRZocEkAg5KAkmzUxuqyd4W1zCytEwIWKSyKbbtaAJYO39IxIsVcBZGlCCQ5MBHH4tQr03CQsXaJOLALzIvmFWMAY/GR+qeLxGUbWGkCFgGLFBrFR6+xxtWc3iTUphsOSrFWiTgXsuEga99wsAXRAikm2b8htq3+yZzAmqZFQsAihUUxEVgFw/amI8jUEo4wJnSNvtgNB7GphoO+RLMHkrfCDLPeRrS/DutIwvZhURk/AhYpRFIHtltjrWRwy63ON2Fq+ZtXW9pwcDOhDPYzJfFGIVP76+chkrDXrZ5foUVCwCKFRVHB6c45tLJuzZr/BBdEVuJhbDiItgnPzVCGpveq8Ttj/XUQy1F7S2hU8tzQaJ0QsEihkNo/KU61otmy4aAwYAqYIrIpLA0HmW/Cs+RveYk3CqUolATA5Yh4x4B2hQQsUmjElGgkNWIDq2z4FnF3dZ8HOORYSBsObirhWUIjXKz5O+tjdQAcsupYt0YpS+uEgEUKi5SuIWusV0wgoLcznL2d5XgTRuFrOOhOeJaaA495JXqyGGPRfq+FZdZKtEgIWKSwKNKzzQZW1Qwo4g7HDlGKNPaD4Ww46IKg+0eq3x200cmaG8NICoCkMCYgy6hu0CIhYJHCIqVr0AZWRWhT6FNZtPlQG/MqBA0H23iv4DWvGq1VwQEuKfbSNSsELAIWKZTAMmpmcMNBsTxDLOwNBwMTnkXzShIcWBIYg5J0eusAgFpRELBIIZLYQcfQuMe/3hxYO0QmQ2pm24W24aCYiOPKc/a/UcgAxiLd9Y8sCW4s8mERsEhhAlas2/5yan7lrlymlhzrjIaDgYk4sG4UOswrZm8JRR8W1fAjYJHCdJEEYBm6b78cJ7bkeGc0HHTlOQMB5pVkDyLdtB4IWKRQS46lrLFtYbUoiCzHICAqvA0HW+Q5Q/Kv9S7HvT4sEgGLFKaLpNrtjk2jXQSWpDY60XdAw8GWiTiNZwrmVf14A8ckAhYplGKSnTrHTbQpiNwoz9AhDQfdbjUhEcf1QsdG0mFhMTlCi4SARQrNRRKd7ma7gsh1B1anNBxsDDzmlRjWIDrgIUFWhVuiACBFk7RICFikMIobaF8QuYMaDgYm4jid9+ITmAIOo9GPg0TAIoVMotPdBpN/QWQVTO6whoNinrMDT6J5JbBMUlyxolIkTouEgEUKjZjzMvHgLEIp2nkNBwPynAWTyvV+FM7BTXtPKG6ZSQQsUgjlLeKOZkkZdFjDwRaJOI0lKrCMMXCrP2NDMgGLgEUKNa0a/3uwpSQ6r+Gg/41CjwPeAhmvJ1QSsAhYpE5ilqcgMsDkaOc1HGy81mNeMWcQlsU+s2rqTmDFe2hBELBIoYVVQBahFO3QhoMBiTjeYsoSwGAapuGIw5JUCmsgYJHCAyit4jkEvwisqAMHHdRw0JHnjADzyjLBuKkLwGISU1RaJAQsUlhk6hUPrnwisJhVxL0DGg5KjoaDvnnO7u0hGsf1ouh0JwcWAYsUXjEGIabB2TJHjndOw0EE5Dl7EnEsTjWOA1rJEYQV7aJVQcAihUjc0O0LprAGrGBhq5lFKKlNAKHDGg6K+TeuRBzXE7QSwEWnu6RS1CgBixQmmdWCE2DNf0VTCwyy2qkNB4GAPGePCablAOhVG9hKop9WCAGLFG55y/bJqhNAcFAg/A0H/RNxnC1zwHgtDXCtZO8JI71X0HIgYJHCK8bB4GmUI6kXseEgYxe74aCno5efecUkVNLg0MqmAKwxWhIELFKYLlLEU7KOe7AlqRex4SBw0RsO+uY5i6Gk9ZdUFgEuAkvtG6cVQsAihUhMAJapc9GwYs1Bo8po5zYcDErEgbMoTakOLNuHRRbWZSWFTkEHAEu2AyO50IMCrMksBkiRzm446GiZIzlNMBttvDhjaE4Lq3+SVsjlI7KwOuEiCTXdAZhWkIMY686Ujm44KODJZV5JDfOKMehllBbLaV08G4mJ62mFELBIIZLSNSBO9Rr3tqYHUzq74WBQIo7wWfjGKYCXMrZ5FR3eRZnPBCxS2IA16ABWhduosi0s2UGQC99wkF3choPeYsou8woMuSMAL2dtCysxuZ+WBwGLFLKLFImLu0IfC4vj4jccxMVtOOif5yy+SYlnXgRQWreDsJJTBCwCFil8Eu+FaSWTiaiy1eENB72JOLDMK0AvI3ukVjRqJfszJ3feQmuDgEUKnWLDu6xxtcTtOCwLW5x3fsNBv1IzlnmVfh5cLyzb5pWkJpLbX0trg4BFCp2iQ1da41rRtFxXArbMjm84CPibV3UIrjwJ8MKaDayu3a+nSlgELFI4gWVbWOUNq0KDjS3US674BEyhYxoOehNxrPdj1vjaL2FiQ7CwUlf/Ji0MAhYpjEpM7rPG1aJpasKNwrpMPaD/Tec0HHTmOYsQ5CtPQa8U1w2xTkP3q+6ihUHAIoVR8Yl9QtgnSnnTVSGZGbWObzjob14xAJj/MTiy87Z5FR3cmZjYRwuDgEUKo+RYd2x4tzUtpJvBkxa29GrHNxz0JOI0ij0U53j6IANyC3YEVu8N99GqIGCRwqvuq+60gbVuuEOxaqXmpGMbDoqRosJL+MwPGOeFVUPMee7b905aEgQsUpiB9UZrXMw0W12JFpZpdHbDQeYimgQA1QzmHwewftY2r9T+yeSOm2hJELBIYQbWnZYbyzSxsWowV7B7Nd/ZDQddiTh182r6+zBqRpVnhf3g4OvuFz16JAIWKXRSuoe6rnydNc0sGahXH7XaPlfyHd5wUCyUWjev0pj5AYD1GZ03vXZMkgdv+31aDwQsUtjVd+PvWOPcim5ojWJ+DWwV053dcLDOKdG8OvEN6DVuYPW0Zn3wnuveRnXcCVikTgDWvvvsXaGBdH2X1HRjMa0ErdSxDQcdec4AkD+J+f8LYH1GF93tQ2/4KK0EAhapAxTpHevZ+2Zrujaru2o2sPxSpzYcdCXicM4PfR4m5yZWTtasj5zccVPqVRTgTsAidYiG7viINS4XzPyaI76B5ZcaRZQ7ruGgA4LA2e8idxzA+llNLM9wxds+SWuAgEXqGKWufYtYxXzRcu7UsWXUWG6hExsOOsyrjWkc+zrjMKp88ZjtvUpMXJ8SDEwSAYsUdjFJ3nbPJ6xpMWvkVg1HInR6GtzsvIaD1lsyanj+MzBrABaP1gzNNq/G7vsMLQACFqnDNHjr76l9E9Z07litccu/ji29wtbPbGnDQel8Gg5aEDz4OWzMgKOwbqzNCLk4+347dc1v0dUnYJE6TExRR9/6n6xptWQuT2uOZoXrZ1Etbl3DQZxPw8H6z+l/xMJPARg6nz5QtZdpJD7x7r+mS08iYHWkBm+7X6xVsHi6VimYzN4YmtL8Ac/GEGFuOAgmYfFJvPTVup04+2KtJoQybHvLn6oDU3TdSQSszhSTJt77OWvGTZw9XDVNMKCBrcoGWzjUMQ0HwbB6AM//V4CDY21GzwiJOImp/dve/B/pmpMIWB2srl23Dd/5oDUtbZgzR6qNaKw6KrJzbOV4k0qwoRO+hoNYP4RnPw1DB0chbcwdFjaD0eSO3/s6k6hFOYmA1eEau++vokKRrPVFfWVWA2BhS1o5xtZOhr3h4NIzeOY/w6iCo5w3T/+qyoVWQFPv/2Js29V0rUkErM6/eGpi5wMPS5GYdWT2RC2z3NxMcYBDWjwsLR0SEBOyhoNnf8Se+wwzdMZRK5onn60Yuo2r4Tf+Yf9NH6ALTSJgXSJKTN4w+YEv2XOOM4erjsgsgK0cl848BUMPV8NBcPbiF9jBL8E067bVsWcqes2mVc+194y/+7N0iUmiGOeczkKna+47H19+3P5uM4Yde6N9w02/T50kkYQ5dTPv3gYmNR3nwsA19RnInpdIYBJrTGUhVF1ubvdk52uF48Vl9uu/Ru5U/Q3m140zB6qibZXc/to9H/+J2O+aRCJgXSri/OxXP7T+9NeEC4uJ3erweMR5tcEHrjTHb4ASbxKnbv4Ig1bkEp8pgzFm/ZI6sOAa+PJLxvSP2ZGvQa/U39TKtDZ/vCYuw8TU/j0f+2c53kMXlkTAukSRZeqnvnBf7uAPxYODo8rkVVHm2vfLqjl6LR9+FZSYn9HENmVeMRlgzAWyNuaVhI1p9uJXkKnfu4Re49P1Dayg5I6bdv/RY0QrEgHr0mfW2b/9UPqX3xQPJrqlHXujsYTHWSmrfGSvOXwNol2b2Bi6gLUZ86puizUHlSw7/g+YewLN9ZZd1meO1HTNsfx6rnvbzgcepp0gKUgErEtLnM9++49X/t/nxGOShPFd6tBYBN4y6EzifVN86GreNwUWaVpJknMgeywvr3nlxJNoXuWm2dnHsPA0eMOSKhfM+RO1/Jrhei8jv/knY+98iEkyXUZSkAhYl6BWn/jS7MMPckMTDyZT0uRV0UR3wH1hWeX9O3nfdt67HWrSaXB5zSuJCZ4sh4fLMq/0MpYPsLmfI33M+iO1Cl86U1tf0F2LTo6lpj74ZbEANInkKwLWpanCyZ+f/vJ7tey882pjYJuybTISS7YKZ+HJIfSM8+4rePcVSA57DS7mvFFom1dgKMyz7BmsHGTrRyyTCkApby7PaJll3bvcunbfvuPf/C91YDtdNVJbEbAuWRmlzPQ3PpJ57lveh/qGlOFJpatnE5svKcITA0gM8uQQ1BTULkS7IUcBCaYGcKYVUc6gnEZpheWmrXt/dWk1nlnW00t6MW96f7ec6B17x18O3f5h6tlF2qQIWJe40s8+PPftj2n5Je9D0bg0sE3p3yZH4xc4frhcMPNpI5828hkDfuuLSfLgbQ9c8fb/onQP0TUibV4ErEtfRiW/8L0/W/3Z57lp+D4hGmfdfXKqX06mZDV2PsaOrvHShln/2cgaYsC6e8HJkf6b3j96z5+KWZAk0iZFwLpcVF05ufjop9PPfD0IW3XJCosnpViSRaIsojJFZYrSQBiTwE0YOgydGzrXarxa5tWyWatwV3SC/29O9A7d/uHhOx+kroKk8xYB6/JSbX169Ykvrj35P/WN1VdohUlK6tp7Bm56f89r3i5F4nQJSC9rORGwLkNxvZo9+EjmV9/JvfiIWS1ejD+hJPu7r74rtffu3uvfoSQH6JyTLogIWJe1TK1cOPEv+cOPbZz4WXn2BW7qL2MpSbHh3Ymp/YmJfV177khO7QejWiCkCywCFqkhrldLcy9UFg5XVk5Wl4/XsvN6YU0vrJmVDRFkkpqQE31KojfSOxbpGVUHpqJDu2Ije+JXXCtFk3QaSRdVBCwSidQxIqOdRCJ1jAhYJBKpY0TAIpFIHaP/D3MR4JPVAkzvAAAAEnRFWHRFWElGOk9yaWVudGF0aW9uADGEWOzvAAAAAElFTkSuQmCC;" vertex="1" parent="RNrIEYivnAnbzNg7K0AD-9">
          <mxGeometry x="690" y="107.66666666666669" width="22" height="22" as="geometry" />
        </mxCell>
        <mxCell id="9fDAD1BXsFrjNk6evdLn-22" value="" style="dashed=0;align=center;fontSize=12;shape=rect;fillColor=#ffffff;strokeColor=#cccccc;shadow=1;" vertex="1" parent="1">
          <mxGeometry x="60" y="670" width="720" height="40" as="geometry" />
        </mxCell>
        <mxCell id="9fDAD1BXsFrjNk6evdLn-23" value="B. Quality" style="text;fontColor=#000000;verticalAlign=middle;spacingLeft=13;fontSize=14;fontStyle=1;fillColor=#F2F2F2;" vertex="1" parent="9fDAD1BXsFrjNk6evdLn-22">
          <mxGeometry width="720" height="40" as="geometry" />
        </mxCell>
        <mxCell id="9fDAD1BXsFrjNk6evdLn-24" value="" style="dashed=0;html=1;shape=mxgraph.gmdl.triangle;fillColor=#cccccc;strokeColor=none;" vertex="1" parent="9fDAD1BXsFrjNk6evdLn-22">
          <mxGeometry x="1" y="0.5" width="10" height="5" relative="1" as="geometry">
            <mxPoint x="-25" y="-2.5" as="offset" />
          </mxGeometry>
        </mxCell>
        <mxCell id="9fDAD1BXsFrjNk6evdLn-25" value="C. Site Rules    " style="text;fontColor=#000000;verticalAlign=middle;spacingLeft=13;fontSize=14;fontStyle=1;fillColor=#F2F2F2;shadow=1;" vertex="1" parent="1">
          <mxGeometry x="60" y="720" width="720" height="40" as="geometry" />
        </mxCell>
        <mxCell id="9fDAD1BXsFrjNk6evdLn-26" value="D. Environmental" style="text;fontColor=#000000;verticalAlign=middle;spacingLeft=13;fontSize=14;fontStyle=1;fillColor=#F2F2F2;shadow=1;" vertex="1" parent="1">
          <mxGeometry x="60" y="770" width="720" height="40" as="geometry" />
        </mxCell>
      </root>
    </mxGraphModel>
  </diagram>
</mxfile>
